<svg width="24" height="24" viewBox="0 0 24 24" fill="none" xmlns="http://www.w3.org/2000/svg">
<path d="M15.7071 9.70699C15.5196 9.89454 15.2653 9.99996 15.0001 10C14.735 9.99991 14.4808 9.89463 14.2933 9.70718C13.9027 9.31671 13.9026 8.68353 14.2931 8.29296L18.5861 3.99997H16.0001C15.4478 3.99997 15.0001 3.55226 15.0001 2.99998C15.0001 2.4477 15.4478 2 16.0001 2H21.0001C21.5524 2 22.0001 2.4477 22.0001 2.99998V7.99999C22.0001 8.55228 21.5524 8.99998 21.0001 8.99998C20.4478 8.99998 20.0001 8.55228 20.0001 7.99999V5.414L15.7071 9.70699Z" fill="white"/>
<path d="M7.99999 21.9998H2.99998C2.4477 21.9998 2 21.5521 2 20.9999V15.9998C2 15.4476 2.44775 14.9999 3.00003 14.9999C3.55231 14.9999 4.00001 15.4476 4.00001 15.9998V18.5858L8.29301 14.2928C8.68053 13.9185 9.29491 13.9185 9.68243 14.2928C10.0796 14.6765 10.0907 15.3096 9.70699 15.7068L5.414 19.9998H7.99999C8.55228 19.9998 8.99998 20.4476 8.99998 20.9999C8.99998 21.5521 8.55228 21.9998 7.99999 21.9998Z" fill="white"/>
</svg>
