<svg width="88" height="88" viewBox="0 0 88 88" fill="none" xmlns="http://www.w3.org/2000/svg">
<path d="M69.1367 16.6289H56.6822L55.3206 12.5459C54.4634 9.97647 52.0679 8.25 49.3596 8.25H38.6404C35.932 8.25 33.5366 9.97647 32.6774 12.5459L31.3174 16.6289H18.8633C15.398 16.6289 12.5791 19.4478 12.5791 22.9131V27.1025C12.5791 29.4358 14.6796 29.1973 16.9338 29.1973C36.2826 29.1973 53.8254 29.1973 73.3262 29.1973C74.484 29.1973 75.4209 28.2604 75.4209 27.1025V22.9131C75.4209 19.4478 72.602 16.6289 69.1367 16.6289ZM35.7346 16.6289L36.6521 13.8714C36.9385 13.0142 37.7383 12.4395 38.6404 12.4395H49.3596C50.2617 12.4395 51.0616 13.0142 51.3459 13.8714L52.2644 16.6289H35.7346Z" fill="url(#paint0_linear_2639_12391)"/>
<path d="M17.2805 33.666L20.6205 74.0344C20.9171 77.2931 23.6072 79.75 26.8781 79.75H61.122C64.393 79.75 67.0831 77.2931 67.3816 74.016L70.7198 33.666H17.2805ZM33.5264 69.2763C33.5264 72.0376 29.3369 72.0489 29.3369 69.2763V39.9502C29.3369 37.1889 33.5264 37.1776 33.5264 39.9502V69.2763ZM46.0948 69.2763C46.0948 72.0376 41.9053 72.0489 41.9053 69.2763V39.9502C41.9053 37.1889 46.0948 37.1776 46.0948 39.9502V69.2763ZM58.6631 69.2763C58.6631 72.0376 54.4737 72.0489 54.4737 69.2763V39.9502C54.4737 38.7923 55.4106 37.8554 56.5684 37.8554C57.7262 37.8554 58.6631 38.7923 58.6631 39.9502V69.2763Z" fill="url(#paint1_linear_2639_12391)"/>
<defs>
<linearGradient id="paint0_linear_2639_12391" x1="12.5791" y1="44.0026" x2="75.4209" y2="44.0026" gradientUnits="userSpaceOnUse">
<stop stop-color="#AB6E19"/>
<stop offset="0.01" stop-color="#B47B23"/>
<stop offset="0.06" stop-color="#CDA243"/>
<stop offset="0.121891" stop-color="#E2C15B"/>
<stop offset="0.171403" stop-color="#F0D76D"/>
<stop offset="0.232867" stop-color="#F9E477"/>
<stop offset="0.306282" stop-color="#FCE97B"/>
<stop offset="0.39399" stop-color="#F9E475"/>
<stop offset="0.504894" stop-color="#EFD665"/>
<stop offset="0.635883" stop-color="#E0C04B"/>
<stop offset="0.74" stop-color="#E8C853"/>
<stop offset="0.808788" stop-color="#FCE97B"/>
<stop offset="0.87" stop-color="#F8E475"/>
<stop offset="0.9" stop-color="#EED465"/>
<stop offset="0.94" stop-color="#DDBB4B"/>
<stop offset="0.98" stop-color="#C59826"/>
<stop offset="1" stop-color="#BA8916"/>
</linearGradient>
<linearGradient id="paint1_linear_2639_12391" x1="12.5791" y1="44.0026" x2="75.4209" y2="44.0026" gradientUnits="userSpaceOnUse">
<stop stop-color="#AB6E19"/>
<stop offset="0.01" stop-color="#B47B23"/>
<stop offset="0.06" stop-color="#CDA243"/>
<stop offset="0.121891" stop-color="#E2C15B"/>
<stop offset="0.171403" stop-color="#F0D76D"/>
<stop offset="0.232867" stop-color="#F9E477"/>
<stop offset="0.306282" stop-color="#FCE97B"/>
<stop offset="0.39399" stop-color="#F9E475"/>
<stop offset="0.504894" stop-color="#EFD665"/>
<stop offset="0.635883" stop-color="#E0C04B"/>
<stop offset="0.74" stop-color="#E8C853"/>
<stop offset="0.808788" stop-color="#FCE97B"/>
<stop offset="0.87" stop-color="#F8E475"/>
<stop offset="0.9" stop-color="#EED465"/>
<stop offset="0.94" stop-color="#DDBB4B"/>
<stop offset="0.98" stop-color="#C59826"/>
<stop offset="1" stop-color="#BA8916"/>
</linearGradient>
</defs>
</svg>
