<svg xmlns="http://www.w3.org/2000/svg" width="124.884" height="37.078" fill="none"  viewBox="0 0 1024 1024" version="1.1"><path d="M 382 141.924 C 382 147.450, 385.554 160.220, 389.593 169.207 C 397.990 187.891, 408.492 202.799, 420.859 213.591 C 427.942 219.772, 433.828 223.866, 460.500 241.168 C 474.877 250.494, 481.231 256.664, 485.636 265.579 C 491.742 277.933, 491.218 288.131, 483.889 299.570 C 481.750 302.908, 480 306.636, 480 307.853 C 480 311.437, 484.709 319.683, 488.235 322.275 C 493.392 326.065, 501.971 329.228, 508.520 329.754 C 535.674 331.933, 561.092 306.250, 562.707 275.002 C 563.689 256.014, 558.907 243.260, 545.543 229.216 C 531.885 214.863, 511.799 204.287, 483.338 196.461 C 460.635 190.218, 443.346 184.257, 432.686 178.999 C 420.442 172.958, 404.520 161.293, 391.398 148.748 C 383.873 141.554, 382 140.194, 382 141.924 M 411.116 185.250 C 422.436 199.897, 435.433 210.179, 464.500 227.483 C 487.855 241.387, 494.897 247.190, 502.980 259.191 C 509.905 269.472, 511.558 275.509, 510.659 287.225 C 509.997 295.857, 506.885 303.554, 504.437 302.614 C 503.647 302.311, 502.993 302.611, 502.985 303.281 C 502.974 304.154, 502.730 304.122, 502.126 303.169 C 501.521 302.216, 500.406 303.391, 498.191 307.316 C 496.491 310.328, 493.727 313.770, 492.050 314.964 C 490.372 316.159, 489 317.807, 489 318.627 C 489 319.447, 489.435 319.849, 489.966 319.521 C 490.497 319.193, 492.645 319.799, 494.740 320.868 C 499.782 323.440, 510.029 325.394, 514.988 324.728 C 528.034 322.979, 542.096 309.143, 547.015 293.217 C 549.420 285.430, 549.649 272.029, 547.515 264.008 C 542.376 244.697, 526.786 229.221, 502.301 219.124 C 498.374 217.505, 485.707 213.206, 474.152 209.571 C 446.399 200.841, 424.178 191.448, 412.706 183.597 C 410.619 182.169, 408.668 181, 408.372 181 C 408.075 181, 409.310 182.912, 411.116 185.250 M 446 202.568 C 446 203.082, 451.334 205.809, 454.743 207.039 L 457.500 208.033 455.076 206.131 C 452.841 204.378, 446 201.692, 446 202.568 M 285.873 206.750 C 284.562 210.098, 286.057 228.744, 289.039 246.226 C 291.065 258.102, 296.321 277.630, 300.079 287.242 C 308.929 309.882, 328.935 333.442, 348.940 344.786 C 354.067 347.693, 358.316 349.943, 358.381 349.786 C 358.446 349.629, 360.020 346.445, 361.879 342.712 C 363.737 338.979, 364.988 335.654, 364.658 335.325 C 364.329 334.995, 362.683 336.198, 361.001 337.999 L 357.944 341.272 354.222 337.319 C 352.175 335.145, 347.350 330.855, 343.500 327.787 C 330.487 317.415, 322.307 307.192, 313.669 290.500 C 307.553 278.682, 297.971 254, 299.499 254 C 299.685 254, 300.861 255.688, 302.113 257.750 C 307.431 266.512, 318.984 281.150, 327.418 289.809 C 336.422 299.054, 347.585 307.178, 356.583 311.036 C 364.987 314.638, 363.619 312.988, 354.425 308.433 C 345.633 304.077, 341.323 300.738, 334 292.610 C 330.054 288.229, 330.135 288.267, 342.476 296.461 C 357.059 306.144, 374.493 312.716, 386.708 313.135 C 392.491 313.334, 393.829 312.571, 398.167 306.600 C 401.771 301.638, 401.724 301.001, 397.750 300.997 C 392.653 300.992, 377.155 298.132, 370 295.877 C 349.634 289.456, 326.624 272.013, 312.781 252.500 C 307.041 244.409, 301.427 233.566, 294.013 216.250 C 291.128 209.512, 288.359 204, 287.859 204 C 287.359 204, 286.466 205.238, 285.873 206.750 M 571.241 227.946 C 571.393 228.251, 573.373 232.100, 575.640 236.500 C 579.951 244.866, 585 259.414, 585 263.470 C 585 267.788, 586.029 269, 589.693 269 C 593.593 269, 606.328 272.119, 606.815 273.193 C 606.988 273.575, 607.849 273.611, 608.729 273.274 C 609.724 272.892, 610.078 273.065, 609.665 273.733 C 608.828 275.088, 614.472 277.140, 616.692 276.288 C 617.712 275.896, 618.080 276.061, 617.670 276.725 C 616.928 277.925, 619.687 279.311, 621.090 278.444 C 621.591 278.135, 622 278.385, 622 279 C 622 279.615, 622.416 279.861, 622.925 279.546 C 624.187 278.766, 629.068 281.080, 628.410 282.146 C 627.878 283.006, 629.353 283.394, 631.850 283.052 C 632.593 282.950, 632.963 283.250, 632.673 283.720 C 632.383 284.189, 635.826 286.545, 640.323 288.954 C 652.006 295.214, 657.910 299.068, 671.500 309.304 C 695.790 327.600, 709.050 340.519, 723.793 360.251 C 729.863 368.376, 732.676 371, 730.046 366.086 C 729.432 364.939, 729.159 364, 729.439 364 C 729.719 364, 730.672 365.400, 731.557 367.110 C 732.441 368.821, 732.678 369.919, 732.083 369.551 C 730.155 368.359, 730.903 369.902, 736.562 378.777 C 746.910 395.005, 761.128 425.890, 767.279 445.500 C 771.288 458.282, 776.810 483.640, 777.949 494.500 C 778.940 503.956, 779.172 504.650, 782.211 507.250 C 785.923 510.427, 788.101 510.584, 799.500 508.501 C 812.171 506.186, 812 506.273, 811.998 502.133 C 811.995 496.158, 808.034 467.163, 805.901 457.500 C 796.204 413.570, 777.984 373.197, 752.799 339.830 C 743.345 327.304, 726.118 308.196, 716.269 299.310 C 705.155 289.284, 684.213 273.744, 669.850 264.867 C 646.299 250.309, 611.253 235.274, 588.429 229.936 C 582.384 228.522, 570.862 227.188, 571.241 227.946 M 403 242.367 C 380.456 252.632, 357 265.913, 357 268.413 C 357 271.594, 371.010 276.982, 387.252 280.048 C 399.942 282.442, 400.065 282.421, 418.500 274.536 C 424 272.183, 434.236 268.288, 441.246 265.879 C 448.256 263.471, 453.994 261.218, 453.996 260.874 C 453.998 260.529, 450.738 258.551, 446.750 256.476 C 442.762 254.402, 434.457 249.171, 428.294 244.852 C 422.131 240.534, 416.506 237.029, 415.794 237.065 C 415.082 237.101, 409.325 239.487, 403 242.367 M 462 280.557 C 444.374 285.498, 436.373 290.925, 411.420 314.869 C 405.326 320.716, 396.192 329.100, 391.122 333.500 C 377.346 345.454, 372.724 352.466, 367.975 368.613 C 367.008 371.901, 365.803 373.305, 361.967 375.613 C 359.327 377.201, 348.017 384.283, 336.834 391.350 C 325.650 398.418, 311.185 406.743, 304.688 409.850 L 292.876 415.500 293.199 441.500 C 293.582 472.369, 293.076 470.773, 307.161 485.507 C 317.378 496.194, 328.991 504.519, 343.591 511.621 L 352.945 516.172 362.723 512.183 C 389.139 501.406, 400.706 498.723, 421 498.668 C 432.573 498.637, 435.928 499.015, 444.500 501.317 C 490.617 513.700, 526.860 555.402, 536.996 607.745 C 541.309 630.018, 542.002 660.197, 538.561 675.990 C 537.784 679.560, 537.290 682.623, 537.464 682.798 C 537.834 683.168, 542.311 670.364, 545.085 661 C 549.219 647.045, 549.855 620.973, 546.520 602.188 C 544.537 591.020, 539.406 572.847, 535.915 564.628 C 531.856 555.070, 521.744 537.188, 516.311 529.961 C 507.222 517.869, 489.707 503.501, 473.909 495.177 C 455.512 485.484, 439.665 481.625, 418 481.563 C 401.554 481.515, 395.018 482.881, 371.500 491.281 C 362.150 494.620, 353.394 497.270, 352.042 497.170 C 346.563 496.764, 334.636 488.639, 324.636 478.500 C 311.707 465.393, 311.014 463.783, 310.052 444.644 C 309.387 431.419, 309.493 429.290, 310.895 427.844 C 311.778 426.933, 316.550 423.955, 321.500 421.225 C 326.450 418.495, 336.125 412.627, 343 408.184 C 376.798 386.341, 380.210 383.295, 384.370 371.256 C 387.753 361.469, 391.361 355.733, 397.775 349.945 C 402.396 345.775, 408.313 340.267, 424.532 325.041 C 439.576 310.917, 441.544 309.255, 448.521 304.781 C 452.360 302.320, 458.023 299.167, 461.107 297.774 C 468.517 294.427, 474 286.805, 474 279.851 C 474 277.501, 472.612 277.582, 462 280.557 M 609.500 298.102 C 600.352 299.058, 576.236 303.579, 572.300 305.076 C 568.939 306.354, 567.814 307.813, 563.046 317.083 C 558.219 326.467, 550.686 333.638, 540.098 338.925 C 530.564 343.686, 523.925 345.875, 515.839 346.924 L 509.500 347.746 514.540 347.873 C 527.154 348.191, 546.842 339.455, 559.500 327.925 C 563.586 324.203, 568.124 322.400, 580.500 319.581 C 587.416 318.005, 599.856 316.058, 603.250 316.020 C 605.809 315.991, 605.455 317.734, 600.896 327.610 C 596.346 337.466, 587.797 349.442, 583.154 352.462 L 580.138 354.424 585.012 359.297 C 588.970 363.256, 590.308 364.037, 592.133 363.458 C 595.970 362.240, 608.274 348.777, 612.713 340.939 C 616.607 334.063, 624.591 310.626, 626.403 300.750 L 627.091 297 622.295 297.133 C 619.658 297.206, 613.900 297.642, 609.500 298.102 M 289.500 321.968 C 287.850 324.105, 283.252 329.668, 279.281 334.330 C 275.311 338.992, 270.739 345.051, 269.121 347.795 C 267.503 350.540, 263.888 355.934, 261.089 359.782 C 258.290 363.631, 256 367.011, 256 367.294 C 256 367.576, 254.431 370.584, 252.513 373.976 C 242.727 391.290, 230.862 423.387, 224.969 448.484 C 222.233 460.138, 217.838 492.935, 218.194 499.038 C 218.496 504.204, 218.568 504.310, 223.697 507.203 C 232.335 512.073, 242.479 512.054, 248.842 507.155 C 250.905 505.567, 251.404 503.688, 253.020 491.426 C 255.515 472.496, 261.136 447.783, 266.590 431.772 C 275.408 405.879, 293.021 374.407, 309.784 354.587 L 317.323 345.674 314.911 343.587 C 311.506 340.640, 300.906 328.177, 297.103 322.650 C 295.344 320.093, 293.588 318.018, 293.202 318.041 C 292.816 318.063, 291.150 319.830, 289.500 321.968 M 635.965 338.681 C 635.286 340.782, 633.661 344.349, 632.353 346.608 L 629.976 350.716 642.238 359.024 C 671.110 378.585, 695.781 400.066, 710.548 418.500 C 719.558 429.749, 730.240 455.546, 735.171 477.966 C 740.838 503.736, 741.446 509.013, 741.397 532 C 741.341 557.422, 739.639 570.740, 734.490 586.030 C 730.973 596.472, 729.786 601.921, 732.644 594.500 C 735.046 588.261, 735.669 586.750, 737.383 583 C 738.876 579.734, 739.025 579.651, 739.608 581.750 C 740.278 584.161, 743.494 584.841, 744.338 582.750 C 744.726 581.789, 744.860 581.802, 744.921 582.809 C 744.964 583.529, 745.468 583.829, 746.040 583.475 C 747.122 582.807, 746.565 586.160, 744.791 591 C 744.213 592.574, 744.225 593.130, 744.821 592.500 C 745.341 591.950, 747.392 587, 749.378 581.500 C 758.460 556.345, 762.309 520.908, 758.501 497.500 C 754.220 471.184, 748.286 448.521, 742.848 437.716 C 732.082 416.325, 709.760 388.354, 690.650 372.309 C 674.839 359.034, 644.923 337.826, 638.566 335.387 C 637.661 335.040, 636.784 336.150, 635.965 338.681 M 557.432 360.513 C 556.778 364, 554.814 365.903, 548.694 368.985 C 544.162 371.267, 538.231 378.427, 536.959 383.152 C 533.560 395.775, 540.046 408.971, 552.648 415.072 C 559.344 418.313, 564.477 418.567, 571.312 415.996 C 578.528 413.282, 582.885 409.011, 587.031 400.588 C 589.826 394.912, 590.189 393.284, 589.814 388.106 C 589.204 379.675, 584.693 371.271, 579.098 368.142 C 576.779 366.846, 574.669 365.997, 574.410 366.257 C 574.150 366.516, 573.690 368.927, 573.386 371.614 C 572.914 375.804, 573.203 376.991, 575.417 379.944 C 578.547 384.119, 578.744 388.622, 576.028 393.945 C 573.004 399.872, 569.669 402, 563.400 402 C 558.868 402, 557.542 401.537, 554.549 398.909 C 547.443 392.670, 547.884 385.751, 555.935 377.164 C 558.171 374.780, 560.023 372.305, 560.051 371.664 C 560.080 371.024, 560.440 367.462, 560.853 363.750 C 561.527 357.694, 561.423 357, 559.847 357 C 558.630 357, 557.888 358.079, 557.432 360.513 M 431.196 367.446 C 422.172 370.798, 417.939 375.342, 416.473 383.250 L 415.777 387 423.324 387 C 436.284 387, 439.167 384.458, 440 372.297 C 440.582 363.809, 440.745 363.899, 431.196 367.446 M 451.138 379.260 C 447.705 386.990, 445.291 390.252, 440.500 393.634 C 436.282 396.611, 432.435 397.233, 418.075 397.257 C 407.932 397.274, 406.370 397.452, 410 398.176 C 412.475 398.670, 418.775 399.169, 424 399.287 C 432.644 399.481, 433.968 399.253, 438.688 396.765 C 441.541 395.260, 445.073 392.460, 446.536 390.541 C 449.070 387.220, 455.415 373.081, 454.695 372.361 C 454.507 372.173, 452.906 375.278, 451.138 379.260 M 573 410.185 C 571.625 410.767, 569.150 411.592, 567.500 412.019 C 565.288 412.592, 565.059 412.822, 566.628 412.898 C 568.789 413.002, 576 410.377, 576 409.487 C 576 408.898, 576.092 408.876, 573 410.185 M 531.684 425.827 C 529.262 433.395, 524.947 439.934, 518.465 445.858 C 511.228 452.472, 498.906 459.644, 492.098 461.204 C 485.799 462.648, 441.554 463.011, 436.500 461.660 C 430.291 460.001, 435.692 462.813, 443.500 465.305 C 467.717 473.034, 485.631 472.809, 503.670 464.551 C 510.161 461.579, 519.721 454.366, 523.180 449.830 C 527.395 444.303, 531.745 434.785, 533.021 428.298 C 534.632 420.109, 533.930 418.810, 531.684 425.827 M 330.643 433.544 C 328.521 434.328, 325.258 435.913, 323.393 437.066 C 318.848 439.875, 318.858 441.947, 323.482 454.741 C 324.166 456.635, 333.056 451.024, 335.794 446.971 C 337.630 444.251, 338.029 442.474, 337.794 438.047 C 337.460 431.770, 336.713 431.299, 330.643 433.544 M 634.440 475.822 C 634.382 495.050, 631.821 520.461, 628.979 530 C 628.405 531.925, 626.581 539.951, 624.926 547.835 C 623.270 555.720, 621.258 563.820, 620.454 565.835 C 619.650 567.851, 617.703 574, 616.127 579.500 C 612.548 591.989, 605.668 608.489, 596.739 626 C 588.806 641.556, 589.103 641.690, 598.387 626.750 C 607.534 612.031, 618.893 589.824, 624.346 576 C 637.099 543.666, 642.507 500.690, 637.607 470.612 C 636.631 464.623, 635.533 458.918, 635.167 457.933 C 634.800 456.949, 634.473 464.998, 634.440 475.822 M 687.616 513.072 C 684.118 530.573, 673.740 559.975, 664.522 578.500 C 659.869 587.850, 654.424 597.975, 652.422 601 C 650.421 604.025, 647.711 608.615, 646.400 611.200 C 641.757 620.358, 622.917 645.921, 607.118 664.500 C 589.256 685.506, 561.293 711.694, 536 731.105 C 527.020 737.996, 501.591 755.278, 484 766.444 C 463.780 779.279, 429.440 794.399, 405.500 801.007 C 393.424 804.341, 393.302 804.936, 404.691 804.970 C 410.296 804.986, 415.129 804.601, 415.430 804.113 C 415.731 803.626, 417.670 802.929, 419.739 802.564 C 423.815 801.846, 443.364 795.681, 457 790.813 C 465.017 787.951, 476.454 784.587, 487.318 781.896 C 490.179 781.187, 491.648 780.401, 490.936 779.960 C 490.138 779.467, 490.534 778.967, 492.118 778.468 C 495.182 777.503, 519.183 766.945, 520.500 765.983 C 521.050 765.581, 527.226 762.061, 534.225 758.161 C 552.365 748.052, 566.344 738.785, 574.996 731.131 C 590.032 717.830, 611.433 696.258, 619.274 686.500 C 636.977 664.467, 653.880 635.097, 664.738 607.500 C 674.666 582.268, 683.300 550.270, 687.591 522.805 C 690.434 504.610, 690.449 498.898, 687.616 513.072 M 410.250 519.745 L 401 520.075 401 534.538 L 401 549 374.361 549 L 347.721 549 348.352 554.250 C 348.699 557.138, 348.987 562.717, 348.991 566.650 L 349 573.799 361.750 574.172 C 369.107 574.388, 375.403 575.053, 376.634 575.746 C 378.717 576.918, 378.786 577.708, 379.521 608.723 C 380.219 638.169, 379.587 678.241, 378.395 680.170 C 378.113 680.627, 371.545 681, 363.800 681 L 349.718 681 350.437 694.221 C 350.832 701.493, 351.405 707.846, 351.710 708.340 C 352.023 708.846, 362.778 709.076, 376.382 708.868 L 400.500 708.500 400.227 724.750 L 399.954 741 404.727 741.009 C 407.352 741.013, 411.863 741.301, 414.750 741.648 L 420 742.279 420 725.639 L 420 709 430 709 L 440 709 440 725 L 440 741 449.500 741 L 459 741 459 725 L 459 709 467.364 709 C 471.963 709, 478.149 708.541, 481.109 707.979 C 493.385 705.651, 506.799 696.298, 512.266 686.253 C 518.183 675.382, 519.829 656.963, 515.837 646.295 C 513.130 639.058, 504.877 630.531, 496.744 626.566 L 490.988 623.759 495.264 621.048 C 503.217 616.004, 507.991 608.619, 510.044 598.184 C 515.200 571.975, 494.528 549, 465.790 549 L 459 549 459 534.500 L 459 520 449 520 L 439 520 439 534 L 439 548 430 548 L 421 548 421 533.500 C 421 525.525, 420.663 519.093, 420.250 519.208 C 419.837 519.322, 415.337 519.564, 410.250 519.745 M 788.306 537.075 C 786.550 537.599, 783.578 539.484, 781.702 541.264 C 778.501 544.301, 778.215 545.116, 777.070 554.500 C 773.913 580.364, 765.038 610.142, 753.300 634.259 C 745.632 650.011, 739.333 660.588, 728.142 676.500 C 706.426 707.377, 685.715 726.607, 649.500 749.517 C 630.693 761.415, 600.256 774.003, 570 782.398 C 557.458 785.877, 547.104 789.797, 550.105 789.929 C 553.246 790.068, 583.363 782.998, 594.837 779.429 C 626.645 769.537, 660.507 750.473, 689.721 726.011 C 696.992 719.923, 706.003 711.467, 709.745 707.220 C 723.298 691.840, 741.938 665.688, 749.994 650.750 C 754.298 642.769, 756.651 639.844, 752.983 647.034 C 751.851 649.253, 751.236 651.573, 751.617 652.189 C 752.070 652.922, 751.851 653.026, 750.985 652.490 C 750.015 651.891, 749.836 652.132, 750.319 653.388 C 750.682 654.334, 750.566 654.850, 750.061 654.537 C 749.556 654.226, 748.831 654.957, 748.448 656.162 C 748.066 657.368, 746.684 659.507, 745.376 660.917 C 742.382 664.146, 742.182 668, 745.010 668 C 746.115 668, 747.790 667.100, 748.732 666 C 749.674 664.900, 751.218 664, 752.163 664 C 753.109 664, 754.160 663.550, 754.500 663 C 754.840 662.450, 756.015 662, 757.111 662 C 758.426 662, 759.460 660.980, 760.150 659 C 761.138 656.166, 761.494 656, 766.598 656 C 771.641 656, 772 656.160, 772 658.412 C 772 660.139, 772.496 660.750, 773.750 660.567 C 774.712 660.426, 775.648 659.551, 775.830 658.622 C 776.207 656.691, 783 646.084, 783 647.426 C 783 649.415, 768.199 676.213, 761.915 685.602 C 754.342 696.917, 741.201 713.735, 733.556 721.897 C 730.775 724.866, 729.028 727.116, 729.674 726.897 C 733.338 725.657, 758.912 692.857, 768.492 677.113 C 780.667 657.103, 792.837 631.218, 799.341 611.500 C 803.236 599.691, 808.678 574.346, 810.668 558.751 L 812.414 545.069 810.085 542.591 C 805.499 537.709, 795.049 535.062, 788.306 537.075 M 230.953 537.885 C 227.671 538.959, 220.859 543.260, 219.118 545.358 C 217.550 547.247, 217.982 553.319, 221.081 573 C 228.421 619.598, 249.767 667.646, 281.059 708 C 300.442 732.996, 333.903 761.470, 365 779.431 C 368.575 781.495, 372.479 784.090, 373.676 785.197 C 376.128 787.464, 378.903 786.793, 376.926 784.411 C 376.282 783.635, 375.427 783, 375.026 783 C 374.625 783, 370.292 780.547, 365.398 777.548 C 360.504 774.550, 353.484 770.268, 349.798 768.032 C 337.534 760.594, 304 732.195, 304 729.246 C 304 728.664, 304.900 728.423, 306 728.710 C 307.100 728.998, 308 729.801, 308 730.494 C 308 733.291, 311.060 734.294, 318.949 734.086 C 325.231 733.920, 327.662 734.297, 330.880 735.939 C 333.595 737.324, 336.836 738, 340.760 738 C 343.972 738, 347.080 738.480, 347.666 739.066 C 348.421 739.821, 348.890 739.529, 349.272 738.066 C 349.570 736.930, 349.505 736, 349.129 736 C 348.753 736, 347.065 734.763, 345.378 733.250 C 343.691 731.737, 338.078 726.780, 332.905 722.234 C 327.732 717.687, 321.263 711.387, 318.529 708.234 C 315.794 705.079, 319.447 708.142, 326.650 715.043 C 347.667 735.179, 382.584 758.148, 402.699 765.069 C 415.655 769.526, 413.285 766.743, 397.129 758.528 C 381.805 750.736, 371.249 744.193, 353.144 731.264 C 317 705.454, 284.295 661.082, 266.712 614 C 260.929 598.514, 254.570 568.862, 252.499 547.719 C 251.940 542.022, 251.442 540.681, 249.385 539.333 C 246.606 537.512, 234.904 536.593, 230.953 537.885 M 412.958 575 C 412.780 577.253, 413.141 612.474, 413.344 612.678 C 413.489 612.823, 424.159 613.022, 437.054 613.120 C 459.590 613.293, 460.708 613.209, 465.870 610.975 C 473.152 607.823, 477 602.559, 477 595.751 C 477 589.362, 474.621 584.462, 469.836 580.996 C 463.347 576.296, 455.843 575.013, 433.249 574.742 C 422.111 574.609, 412.980 574.725, 412.958 575 M 715 634 C 711.570 640.795, 711.754 642.269, 715.218 635.750 C 718.037 630.446, 719.067 628, 718.482 628 C 718.233 628, 716.666 630.700, 715 634 M 412 660.427 L 412 681 426.250 681.250 C 447.764 681.627, 462.974 681.150, 468.162 679.935 C 473.689 678.640, 480.662 673.054, 482.630 668.343 C 485.659 661.093, 483.098 650.632, 477.253 646.376 C 469.835 640.974, 467.309 640.569, 438.750 640.200 L 412 639.855 412 660.427 M 483.185 674.639 C 481.654 676.975, 478.836 679.109, 474.696 681.067 C 471.288 682.679, 469.220 683.999, 470.101 683.999 C 470.982 684, 473.818 682.875, 476.404 681.500 C 481.911 678.572, 482.118 678.530, 481.364 680.494 C 481.048 681.316, 480.329 681.703, 479.765 681.355 C 479.189 680.998, 478.961 681.329, 479.245 682.111 C 479.523 682.875, 480.256 683.388, 480.875 683.250 C 481.494 683.112, 482 683.480, 482 684.067 C 482 684.680, 481.147 684.864, 480 684.500 C 478.874 684.142, 477.945 684.331, 477.875 684.933 C 477.806 685.520, 477.694 686.563, 477.625 687.250 C 477.556 687.938, 476.534 688.924, 475.353 689.443 C 473.748 690.148, 473.046 691.597, 472.569 695.193 C 472.136 698.459, 471.461 700, 470.466 700 C 469.660 700, 469 700.900, 469 702 C 469 703.680, 469.667 704, 473.167 704 C 480.740 704, 476.550 704.941, 468.311 705.091 C 463.868 705.172, 459.618 705.671, 458.867 706.200 C 456.758 707.686, 480.716 706.291, 486.328 704.602 C 492.280 702.811, 502.982 695.923, 507.097 691.236 C 510.526 687.331, 513.418 681.258, 514.372 675.960 C 514.779 673.693, 514.328 674.389, 513.064 677.978 C 512.002 680.991, 510.650 683.617, 510.060 683.813 C 509.470 684.010, 509.210 684.531, 509.483 684.972 C 509.755 685.413, 509.355 686.290, 508.594 686.922 C 507.502 687.828, 507.241 687.702, 507.355 686.322 C 507.536 684.144, 499.883 682.671, 492.750 683.510 C 488.904 683.963, 488 683.777, 488 682.534 C 488 681.555, 487.075 681, 485.441 681 C 484.034 681, 483.141 680.581, 483.457 680.069 C 483.774 679.557, 483.567 678.851, 482.998 678.499 C 482.350 678.098, 482.759 676.743, 484.091 674.872 C 485.261 673.229, 486.051 671.718, 485.847 671.514 C 485.643 671.310, 484.445 672.716, 483.185 674.639 M 441 706.887 C 442.182 707.705, 442.621 711.276, 443.069 723.713 C 443.602 738.484, 443.662 738.856, 443.991 729.500 C 444.184 724, 444.400 718.600, 444.471 717.500 C 444.703 713.897, 442.436 706.643, 440.952 706.241 C 439.747 705.915, 439.755 706.025, 441 706.887 M 720.524 735.874 L 713.548 743.500 721.274 736.025 C 725.523 731.914, 729 728.426, 729 728.275 C 729 727.098, 726.511 729.329, 720.524 735.874 M 698 755.546 C 695.525 757.469, 688.775 762.157, 683 765.963 C 670.301 774.332, 666.761 777.110, 673.500 773.417 C 683.971 767.678, 705.776 751.731, 702.750 752.024 C 702.612 752.038, 700.475 753.622, 698 755.546 M 661.719 779.577 C 658.573 781.544, 656 783.387, 656 783.672 C 656 784.355, 665.084 779.136, 666.964 777.373 C 669.367 775.120, 667.773 775.790, 661.719 779.577 M 641.924 790.135 C 633.151 794.457, 624.089 797.858, 589.500 809.806 C 587.850 810.376, 587.036 810.878, 587.692 810.921 C 589.839 811.063, 612.261 803.946, 623.541 799.542 C 637.945 793.917, 655.810 785, 652.674 785 C 652.495 785, 647.657 787.311, 641.924 790.135 M 448.083 812.412 C 448.313 812.639, 456.375 814.037, 466 815.519 C 484.457 818.360, 519.888 820.159, 533 818.919 C 537.663 818.479, 535.119 818.259, 524 818.142 C 505.547 817.948, 489.262 816.659, 471.327 813.973 C 459.425 812.190, 447.017 811.357, 448.083 812.412 M 569 814 C 565.626 814.710, 565.608 814.737, 568.500 814.750 C 570.150 814.757, 572.850 814.420, 574.500 814 C 577.162 813.323, 577.218 813.238, 575 813.250 C 573.625 813.257, 570.925 813.595, 569 814" stroke="none" fill="#edd9a5" fill-rule="evenodd"/><path d="M 381.116 143.066 C 380.660 157.087, 392.740 183.408, 408.692 203.151 C 413.783 209.453, 424.604 219.226, 432.750 224.880 C 436.208 227.281, 436.952 229.697, 434.520 230.631 C 433.706 230.943, 432.114 232.697, 430.983 234.528 C 428.475 238.586, 424.111 239.891, 420.802 237.574 C 417.261 235.094, 414.639 235.628, 401.148 241.580 C 388.997 246.942, 355.518 265.169, 354.832 266.796 C 354.649 267.229, 351.575 269.590, 348 272.042 C 344.425 274.494, 341.261 276.817, 340.970 277.203 C 340.121 278.329, 327.934 268.430, 322.818 262.460 C 311.141 248.835, 306.254 240.459, 294.983 214.752 C 289.791 202.909, 288.553 201.604, 285.761 205.032 C 283.901 207.315, 283.800 208.409, 284.417 219.631 C 285.478 238.932, 291.334 269.609, 297.080 285.965 C 299.597 293.131, 299.502 296.075, 296.566 301.870 C 295.227 304.511, 293.151 309.708, 291.953 313.419 C 290.167 318.946, 288.333 321.821, 281.800 329.332 C 274.102 338.183, 256.509 363.685, 250.294 375 C 242.234 389.675, 232.338 415.604, 225.487 440 C 221.099 455.624, 217 483.690, 217 498.106 C 217 502.613, 217.458 504.458, 218.947 505.947 C 222.595 509.595, 227.384 511.331, 235.060 511.786 C 241.369 512.161, 243.307 511.884, 246.776 510.114 C 251.967 507.466, 252.468 506.477, 253.929 496 C 255.509 484.664, 260.596 458.216, 262.872 449.500 C 265.438 439.674, 272.997 419.251, 278.236 407.991 C 282.500 398.827, 289.922 386.101, 291.043 386.033 C 291.341 386.015, 292.098 387.918, 292.725 390.262 C 294.191 395.741, 297.719 399.019, 302.902 399.714 C 306.901 400.250, 308.017 401.254, 306 402.500 C 305.450 402.840, 305 404.195, 305 405.512 C 305 407.398, 304.017 408.341, 300.373 409.953 C 297.828 411.079, 295.144 412, 294.408 412 C 293.672 412, 292.605 412.870, 292.035 413.934 C 290.807 416.229, 290.760 436.947, 291.938 456.283 C 292.932 472.581, 292.973 472.666, 307.088 487.430 C 316.607 497.388, 323.278 502.337, 338.500 510.737 C 351.154 517.720, 354.021 518.648, 357.930 517.029 C 362.447 515.158, 363.012 516.661, 358.970 519.796 C 357.061 521.276, 353.976 523.871, 352.113 525.563 C 348.875 528.504, 348.777 528.796, 349.897 532.187 C 350.540 534.138, 353.297 538.156, 356.023 541.117 L 360.979 546.500 355.104 546.795 C 346.647 547.219, 345.664 548.594, 347.020 558.098 C 347.601 562.169, 348.011 567.750, 347.933 570.500 C 347.854 573.250, 348.104 576.474, 348.489 577.664 C 349.012 579.284, 348.656 580.114, 347.074 580.961 C 345.910 581.583, 344.545 581.837, 344.039 581.524 C 342.979 580.869, 339 584.814, 339 586.521 C 339 587.150, 340.652 588.753, 342.672 590.082 C 349.196 594.378, 350.297 596.794, 351.041 608.441 C 351.720 619.089, 353.426 624, 356.446 624 C 358.230 624, 359.734 628.736, 360.576 637 C 361.238 643.504, 363.484 650, 365.072 650 C 365.536 650, 366.925 646.737, 368.159 642.750 C 370.207 636.130, 370.406 633.450, 370.451 611.904 C 370.505 585.845, 370.522 585.921, 364.170 583.981 C 356.019 581.492, 353.938 579.174, 357.934 577.035 C 360.351 575.742, 373.975 575.699, 376 576.978 C 377.294 577.795, 377.542 584.751, 377.802 627.547 C 378.034 665.620, 377.819 677.513, 376.879 678.646 C 375.894 679.833, 373.145 680.073, 362.849 679.872 C 355.807 679.734, 349.741 679.925, 349.370 680.297 C 348.998 680.668, 348.793 686.938, 348.913 694.230 C 349.169 709.783, 349.719 710.944, 356.905 711.099 L 361.500 711.199 355.750 712.707 C 352.587 713.537, 350 714.738, 350 715.376 C 350 716.014, 351.125 718.191, 352.500 720.215 C 355.010 723.908, 355.824 728, 354.050 728 C 352.645 728, 343.768 721.867, 341.783 719.526 C 340.839 718.412, 340.052 716.938, 340.033 716.250 C 340.015 715.563, 339.401 715, 338.669 715 C 337.134 715, 315.649 694.224, 311.781 689 C 310.356 687.075, 307.122 682.834, 304.595 679.575 C 302.068 676.317, 300 673.157, 300 672.553 C 300 671.950, 298.717 669.891, 297.150 667.978 C 293.151 663.098, 284.869 649.676, 280.482 640.963 C 275.454 630.980, 266.227 607.854, 264.337 600.500 C 259.148 580.305, 254.953 560.424, 254.419 553.500 C 254.080 549.100, 253.383 543.826, 252.871 541.780 C 252.055 538.522, 251.420 537.921, 247.748 536.932 C 245.443 536.312, 240.370 535.965, 236.474 536.161 C 230.514 536.462, 228.481 537.070, 223.655 539.995 C 219.964 542.232, 217.702 544.340, 217.308 545.908 C 216.972 547.248, 217.217 553.554, 217.853 559.922 C 221.818 599.621, 235.430 638.860, 258.815 678 C 275.344 705.666, 297.186 731.247, 319.898 749.541 C 323.966 752.819, 328.586 756.551, 330.165 757.836 C 331.743 759.121, 340.789 765.293, 350.267 771.553 C 377.312 789.414, 373.512 786.471, 383.874 797.577 C 392.202 806.504, 393.559 807.179, 404.268 807.716 C 409.345 807.971, 421.150 809.708, 430.500 811.578 C 466.176 818.710, 478.095 820.103, 508.500 820.693 C 553.912 821.573, 574.725 818.590, 611.662 805.908 C 640.428 796.031, 678.482 775.061, 701.982 756.136 C 712.391 747.754, 733.739 726.312, 744.919 713.010 C 768.044 685.497, 790.819 643.829, 801.770 609 C 807.412 591.056, 814.669 549.208, 812.976 544.375 C 810.353 536.885, 794.416 532.336, 785.544 536.546 C 779.478 539.425, 777.380 542.740, 776.083 551.500 C 774.456 562.485, 771.099 579.567, 769.498 585 C 768.769 587.475, 767.190 592.875, 765.988 597 C 763.253 606.389, 760.435 614.326, 758 619.500 C 756.964 621.700, 755.338 625.300, 754.386 627.500 C 752.922 630.884, 752.596 631.162, 752.265 629.302 C 752.050 628.092, 752.388 626.143, 753.016 624.970 C 754.067 623.006, 753.936 622.863, 751.379 623.168 C 749.161 623.433, 748.488 623.032, 748.048 621.186 C 747.746 619.914, 746.223 618.114, 744.664 617.186 C 741.851 615.512, 741.809 615.525, 738.915 618.962 C 735.499 623.019, 735.288 622.538, 737.936 616.739 C 753.211 583.300, 761.251 550.481, 761.392 521 C 761.469 504.874, 760.235 494.945, 755.549 474 C 754.257 468.225, 752.893 461.700, 752.518 459.500 C 752.144 457.300, 750.087 450.842, 747.948 445.149 C 744.526 436.041, 744.235 434.622, 745.529 433.328 C 746.338 432.519, 747 430.973, 747 429.893 C 747 428.262, 747.327 428.105, 748.934 428.965 C 751.716 430.454, 751.990 430.326, 753.150 427 C 753.725 425.350, 754.608 424, 755.113 424 C 759.883 424, 774.338 471.868, 776.554 495 C 777.523 505.123, 778.513 507.358, 783.196 509.990 L 787.351 512.325 796.925 510.574 C 802.191 509.611, 807.507 508.630, 808.737 508.395 C 809.968 508.160, 811.638 506.956, 812.449 505.718 C 813.763 503.712, 813.659 501.384, 811.490 484.320 C 807.923 456.269, 803.149 436.606, 793.809 411.500 C 784.119 385.452, 766.168 353.924, 748.463 331.856 C 724.259 301.691, 688.013 271.788, 655 254.750 C 626.849 240.222, 587.044 226, 574.534 226 C 572.551 226, 569.742 225.222, 568.289 224.270 C 566.171 222.882, 563.332 222.536, 553.937 222.520 C 542.490 222.500, 542.126 222.430, 537.862 219.428 C 530.379 214.159, 517.418 207.126, 508.275 203.374 C 497.505 198.954, 493.975 197.813, 477.500 193.420 C 463.264 189.625, 445.914 183.649, 435.753 179.042 C 425.371 174.334, 409.462 163.070, 396.637 151.345 C 390.113 145.380, 384.263 140.358, 383.637 140.184 C 381.035 139.461, 401.554 158.302, 411.511 165.778 C 429.098 178.983, 445.934 186.175, 483.338 196.461 C 511.799 204.287, 531.885 214.863, 545.543 229.216 C 558.907 243.260, 563.689 256.014, 562.707 275.002 C 561.898 290.665, 555.728 304.272, 544.216 315.784 C 528.359 331.641, 504.711 334.384, 488.235 322.275 C 484.709 319.683, 480 311.437, 480 307.853 C 480 306.636, 481.750 302.908, 483.889 299.570 C 491.218 288.131, 491.742 277.933, 485.636 265.579 C 481.231 256.664, 474.877 250.494, 460.500 241.168 C 433.828 223.866, 427.942 219.772, 420.859 213.591 C 404.112 198.977, 387.377 171.031, 383.594 151.362 C 381.302 139.443, 381.240 139.239, 381.116 143.066 M 411.116 185.250 C 422.436 199.897, 435.433 210.179, 464.500 227.483 C 487.855 241.387, 494.897 247.190, 502.980 259.191 C 509.905 269.472, 511.558 275.509, 510.659 287.225 C 509.997 295.857, 506.885 303.554, 504.437 302.614 C 503.647 302.311, 502.993 302.611, 502.985 303.281 C 502.974 304.154, 502.730 304.122, 502.126 303.169 C 501.521 302.216, 500.406 303.391, 498.191 307.316 C 496.491 310.328, 493.727 313.770, 492.050 314.964 C 490.372 316.159, 489 317.807, 489 318.627 C 489 319.447, 489.435 319.849, 489.966 319.521 C 490.497 319.193, 492.645 319.799, 494.740 320.868 C 499.782 323.440, 510.029 325.394, 514.988 324.728 C 528.034 322.979, 542.096 309.143, 547.015 293.217 C 549.420 285.430, 549.649 272.029, 547.515 264.008 C 542.376 244.697, 526.786 229.221, 502.301 219.124 C 498.374 217.505, 485.707 213.206, 474.152 209.571 C 446.399 200.841, 424.178 191.448, 412.706 183.597 C 410.619 182.169, 408.668 181, 408.372 181 C 408.075 181, 409.310 182.912, 411.116 185.250 M 432.016 202.842 C 432.041 203.835, 445.391 213.152, 455 218.882 C 465.029 224.863, 469.618 226.178, 470.673 223.372 C 471.060 222.342, 472.078 220.974, 472.936 220.332 C 473.795 219.689, 474.273 218.953, 473.998 218.695 C 473.006 217.763, 450.400 207.740, 446.500 206.504 C 437.008 203.494, 432.001 202.228, 432.016 202.842 M 446 202.568 C 446 203.082, 451.334 205.809, 454.743 207.039 L 457.500 208.033 455.076 206.131 C 452.841 204.378, 446 201.692, 446 202.568 M 285.873 206.750 C 284.562 210.098, 286.057 228.744, 289.039 246.226 C 291.065 258.102, 296.321 277.630, 300.079 287.242 C 308.929 309.882, 328.935 333.442, 348.940 344.786 C 354.067 347.693, 358.316 349.943, 358.381 349.786 C 358.446 349.629, 360.020 346.445, 361.879 342.712 C 363.737 338.979, 364.988 335.654, 364.658 335.325 C 364.329 334.995, 362.683 336.198, 361.001 337.999 L 357.944 341.272 354.222 337.319 C 352.175 335.145, 347.350 330.855, 343.500 327.787 C 330.487 317.415, 322.307 307.192, 313.669 290.500 C 307.553 278.682, 297.971 254, 299.499 254 C 299.685 254, 300.861 255.688, 302.113 257.750 C 307.431 266.512, 318.984 281.150, 327.418 289.809 C 336.422 299.054, 347.585 307.178, 356.583 311.036 C 364.987 314.638, 363.619 312.988, 354.425 308.433 C 345.633 304.077, 341.323 300.738, 334 292.610 C 330.054 288.229, 330.135 288.267, 342.476 296.461 C 357.059 306.144, 374.493 312.716, 386.708 313.135 C 392.491 313.334, 393.829 312.571, 398.167 306.600 C 401.771 301.638, 401.724 301.001, 397.750 300.997 C 392.653 300.992, 377.155 298.132, 370 295.877 C 349.634 289.456, 326.624 272.013, 312.781 252.500 C 307.041 244.409, 301.427 233.566, 294.013 216.250 C 291.128 209.512, 288.359 204, 287.859 204 C 287.359 204, 286.466 205.238, 285.873 206.750 M 491 219.504 C 491 220.353, 495.512 224.002, 501.056 227.634 C 510.564 233.864, 514.359 235.264, 510.661 231.177 C 508.271 228.537, 508.608 227.690, 511.750 228.434 C 514.305 229.038, 514.251 228.927, 511 226.868 C 506.096 223.763, 497.020 219.430, 493.750 218.633 C 491.649 218.120, 491 218.326, 491 219.504 M 571.241 227.946 C 571.393 228.251, 573.373 232.100, 575.640 236.500 C 579.951 244.866, 585 259.414, 585 263.470 C 585 267.788, 586.029 269, 589.693 269 C 593.593 269, 606.328 272.119, 606.815 273.193 C 606.988 273.575, 607.849 273.611, 608.729 273.274 C 609.724 272.892, 610.078 273.065, 609.665 273.733 C 608.828 275.088, 614.472 277.140, 616.692 276.288 C 617.712 275.896, 618.080 276.061, 617.670 276.725 C 616.928 277.925, 619.687 279.311, 621.090 278.444 C 621.591 278.135, 622 278.385, 622 279 C 622 279.615, 622.416 279.861, 622.925 279.546 C 624.187 278.766, 629.068 281.080, 628.410 282.146 C 627.878 283.006, 629.353 283.394, 631.850 283.052 C 632.593 282.950, 632.963 283.250, 632.673 283.720 C 632.383 284.189, 635.826 286.545, 640.323 288.954 C 652.006 295.214, 657.910 299.068, 671.500 309.304 C 695.790 327.600, 709.050 340.519, 723.793 360.251 C 729.863 368.376, 732.676 371, 730.046 366.086 C 729.432 364.939, 729.159 364, 729.439 364 C 729.719 364, 730.672 365.400, 731.557 367.110 C 732.441 368.821, 732.678 369.919, 732.083 369.551 C 730.155 368.359, 730.903 369.902, 736.562 378.777 C 746.910 395.005, 761.128 425.890, 767.279 445.500 C 771.288 458.282, 776.810 483.640, 777.949 494.500 C 778.940 503.956, 779.172 504.650, 782.211 507.250 C 785.923 510.427, 788.101 510.584, 799.500 508.501 C 812.171 506.186, 812 506.273, 811.998 502.133 C 811.995 496.158, 808.034 467.163, 805.901 457.500 C 796.204 413.570, 777.984 373.197, 752.799 339.830 C 743.345 327.304, 726.118 308.196, 716.269 299.310 C 705.155 289.284, 684.213 273.744, 669.850 264.867 C 646.299 250.309, 611.253 235.274, 588.429 229.936 C 582.384 228.522, 570.862 227.188, 571.241 227.946 M 403 242.367 C 380.456 252.632, 357 265.913, 357 268.413 C 357 271.594, 371.010 276.982, 387.252 280.048 C 399.942 282.442, 400.065 282.421, 418.500 274.536 C 424 272.183, 434.236 268.288, 441.246 265.879 C 448.256 263.471, 453.994 261.218, 453.996 260.874 C 453.998 260.529, 450.738 258.551, 446.750 256.476 C 442.762 254.402, 434.457 249.171, 428.294 244.852 C 422.131 240.534, 416.506 237.029, 415.794 237.065 C 415.082 237.101, 409.325 239.487, 403 242.367 M 462 280.557 C 444.374 285.498, 436.373 290.925, 411.420 314.869 C 405.326 320.716, 396.192 329.100, 391.122 333.500 C 377.346 345.454, 372.724 352.466, 367.975 368.613 C 367.008 371.901, 365.803 373.305, 361.967 375.613 C 359.327 377.201, 348.017 384.283, 336.834 391.350 C 325.650 398.418, 311.185 406.743, 304.688 409.850 L 292.876 415.500 293.199 441.500 C 293.582 472.369, 293.076 470.773, 307.161 485.507 C 317.378 496.194, 328.991 504.519, 343.591 511.621 L 352.945 516.172 362.723 512.183 C 389.139 501.406, 400.706 498.723, 421 498.668 C 432.573 498.637, 435.928 499.015, 444.500 501.317 C 490.617 513.700, 526.860 555.402, 536.996 607.745 C 541.309 630.018, 542.002 660.197, 538.561 675.990 C 537.784 679.560, 537.290 682.623, 537.464 682.798 C 537.834 683.168, 542.311 670.364, 545.085 661 C 549.219 647.045, 549.855 620.973, 546.520 602.188 C 544.537 591.020, 539.406 572.847, 535.915 564.628 C 531.856 555.070, 521.744 537.188, 516.311 529.961 C 507.222 517.869, 489.707 503.501, 473.909 495.177 C 455.512 485.484, 439.665 481.625, 418 481.563 C 401.554 481.515, 395.018 482.881, 371.500 491.281 C 362.150 494.620, 353.394 497.270, 352.042 497.170 C 346.563 496.764, 334.636 488.639, 324.636 478.500 C 311.707 465.393, 311.014 463.783, 310.052 444.644 C 309.387 431.419, 309.493 429.290, 310.895 427.844 C 311.778 426.933, 316.550 423.955, 321.500 421.225 C 326.450 418.495, 336.125 412.627, 343 408.184 C 376.798 386.341, 380.210 383.295, 384.370 371.256 C 387.753 361.469, 391.361 355.733, 397.775 349.945 C 402.396 345.775, 408.313 340.267, 424.532 325.041 C 439.576 310.917, 441.544 309.255, 448.521 304.781 C 452.360 302.320, 458.023 299.167, 461.107 297.774 C 468.517 294.427, 474 286.805, 474 279.851 C 474 277.501, 472.612 277.582, 462 280.557 M 609.500 298.102 C 600.352 299.058, 576.236 303.579, 572.300 305.076 C 568.939 306.354, 567.814 307.813, 563.046 317.083 C 558.219 326.467, 550.686 333.638, 540.098 338.925 C 530.564 343.686, 523.925 345.875, 515.839 346.924 L 509.500 347.746 514.540 347.873 C 527.154 348.191, 546.842 339.455, 559.500 327.925 C 563.586 324.203, 568.124 322.400, 580.500 319.581 C 587.416 318.005, 599.856 316.058, 603.250 316.020 C 605.809 315.991, 605.455 317.734, 600.896 327.610 C 596.346 337.466, 587.797 349.442, 583.154 352.462 L 580.138 354.424 585.012 359.297 C 588.970 363.256, 590.308 364.037, 592.133 363.458 C 595.970 362.240, 608.274 348.777, 612.713 340.939 C 616.607 334.063, 624.591 310.626, 626.403 300.750 L 627.091 297 622.295 297.133 C 619.658 297.206, 613.900 297.642, 609.500 298.102 M 452.492 304.619 C 444.461 308.832, 438.686 313.755, 417.500 334.446 C 401.233 350.332, 397.780 354.172, 399 355.018 C 400.409 355.995, 401.461 355.928, 409 354.387 C 411.396 353.897, 412 354.115, 412 355.470 C 412 356.403, 412.337 357.017, 412.750 356.833 C 413.163 356.650, 416.425 355.081, 420 353.348 C 423.575 351.614, 429.200 349.641, 432.500 348.963 C 437.875 347.859, 438.260 347.622, 436.194 346.688 C 434.459 345.903, 432.729 346.061, 429.194 347.327 C 421.178 350.200, 420.494 349.804, 420.988 342.570 C 421.107 340.838, 422.173 338.865, 423.594 337.747 C 424.917 336.706, 426 335.228, 426 334.462 C 426 332.251, 431.952 326.065, 436.131 323.933 C 438.233 322.861, 440.914 320.683, 442.090 319.093 C 444.884 315.313, 451.548 312.229, 453.836 313.657 C 454.751 314.228, 457.352 318.193, 459.616 322.468 C 463.348 329.513, 469.269 336.064, 470.654 334.680 C 470.955 334.378, 470.088 332.639, 468.726 330.816 C 467.365 328.992, 465.673 326.383, 464.966 325.018 C 463.139 321.488, 460.037 309.100, 460.017 305.250 C 459.996 301.286, 459.003 301.203, 452.492 304.619 M 289.500 321.968 C 287.850 324.105, 283.252 329.668, 279.281 334.330 C 275.311 338.992, 270.739 345.051, 269.121 347.795 C 267.503 350.540, 263.888 355.934, 261.089 359.782 C 258.290 363.631, 256 367.011, 256 367.294 C 256 367.576, 254.431 370.584, 252.513 373.976 C 242.727 391.290, 230.862 423.387, 224.969 448.484 C 222.233 460.138, 217.838 492.935, 218.194 499.038 C 218.496 504.204, 218.568 504.310, 223.697 507.203 C 232.335 512.073, 242.479 512.054, 248.842 507.155 C 250.905 505.567, 251.404 503.688, 253.020 491.426 C 255.515 472.496, 261.136 447.783, 266.590 431.772 C 275.408 405.879, 293.021 374.407, 309.784 354.587 L 317.323 345.674 314.911 343.587 C 311.506 340.640, 300.906 328.177, 297.103 322.650 C 295.344 320.093, 293.588 318.018, 293.202 318.041 C 292.816 318.063, 291.150 319.830, 289.500 321.968 M 635.965 338.681 C 635.286 340.782, 633.661 344.349, 632.353 346.608 L 629.976 350.716 642.238 359.024 C 671.110 378.585, 695.781 400.066, 710.548 418.500 C 719.558 429.749, 730.240 455.546, 735.171 477.966 C 740.838 503.736, 741.446 509.013, 741.397 532 C 741.341 557.422, 739.639 570.740, 734.490 586.030 C 730.973 596.472, 729.786 601.921, 732.644 594.500 C 735.046 588.261, 735.669 586.750, 737.383 583 C 738.876 579.734, 739.025 579.651, 739.608 581.750 C 740.278 584.161, 743.494 584.841, 744.338 582.750 C 744.726 581.789, 744.860 581.802, 744.921 582.809 C 744.964 583.529, 745.468 583.829, 746.040 583.475 C 747.122 582.807, 746.565 586.160, 744.791 591 C 744.213 592.574, 744.225 593.130, 744.821 592.500 C 745.341 591.950, 747.392 587, 749.378 581.500 C 758.460 556.345, 762.309 520.908, 758.501 497.500 C 754.220 471.184, 748.286 448.521, 742.848 437.716 C 732.082 416.325, 709.760 388.354, 690.650 372.309 C 674.839 359.034, 644.923 337.826, 638.566 335.387 C 637.661 335.040, 636.784 336.150, 635.965 338.681 M 557.432 360.513 C 556.778 364, 554.814 365.903, 548.694 368.985 C 544.162 371.267, 538.231 378.427, 536.959 383.152 C 533.560 395.775, 540.046 408.971, 552.648 415.072 C 559.344 418.313, 564.477 418.567, 571.312 415.996 C 578.528 413.282, 582.885 409.011, 587.031 400.588 C 589.826 394.912, 590.189 393.284, 589.814 388.106 C 589.204 379.675, 584.693 371.271, 579.098 368.142 C 576.779 366.846, 574.669 365.997, 574.410 366.257 C 574.150 366.516, 573.690 368.927, 573.386 371.614 C 572.914 375.804, 573.203 376.991, 575.417 379.944 C 578.547 384.119, 578.744 388.622, 576.028 393.945 C 573.004 399.872, 569.669 402, 563.400 402 C 558.868 402, 557.542 401.537, 554.549 398.909 C 547.443 392.670, 547.884 385.751, 555.935 377.164 C 558.171 374.780, 560.023 372.305, 560.051 371.664 C 560.080 371.024, 560.440 367.462, 560.853 363.750 C 561.527 357.694, 561.423 357, 559.847 357 C 558.630 357, 557.888 358.079, 557.432 360.513 M 720.949 363.500 C 722.256 365.700, 724.468 369.525, 725.865 372 C 727.262 374.475, 730.114 378.678, 732.202 381.340 C 734.291 384.002, 736 386.780, 736 387.513 C 736 388.247, 737.524 390.843, 739.387 393.284 C 741.250 395.724, 743.551 399.359, 744.501 401.360 C 745.451 403.362, 746.649 405, 747.165 405 C 748.316 405, 740.452 389.700, 737.453 386.104 C 736.259 384.672, 734.512 382, 733.572 380.168 C 730.937 375.028, 722.350 362.530, 720.356 360.930 C 718.985 359.831, 719.122 360.425, 720.949 363.500 M 688.566 365.128 C 689.490 366.914, 695.550 373.732, 702.032 380.278 C 708.514 386.825, 715.547 394.386, 717.659 397.081 C 720.888 401.200, 721.898 401.890, 723.998 401.409 C 725.372 401.095, 726.641 400.693, 726.818 400.516 C 727.537 399.796, 722.851 392.124, 718.175 386.365 C 715.435 382.991, 712.683 379.276, 712.059 378.110 C 711.435 376.945, 708.180 374.530, 704.826 372.745 C 694.158 367.069, 693.510 366.703, 693 366.073 C 692.725 365.732, 691.237 364.650, 689.693 363.667 L 686.886 361.879 688.566 365.128 M 431.196 367.446 C 422.172 370.798, 417.939 375.342, 416.473 383.250 L 415.777 387 423.324 387 C 436.284 387, 439.167 384.458, 440 372.297 C 440.582 363.809, 440.745 363.899, 431.196 367.446 M 451.138 379.260 C 447.705 386.990, 445.291 390.252, 440.500 393.634 C 436.282 396.611, 432.435 397.233, 418.075 397.257 C 407.932 397.274, 406.370 397.452, 410 398.176 C 412.475 398.670, 418.775 399.169, 424 399.287 C 432.644 399.481, 433.968 399.253, 438.688 396.765 C 441.541 395.260, 445.073 392.460, 446.536 390.541 C 449.070 387.220, 455.415 373.081, 454.695 372.361 C 454.507 372.173, 452.906 375.278, 451.138 379.260 M 573 410.185 C 571.625 410.767, 569.150 411.592, 567.500 412.019 C 565.288 412.592, 565.059 412.822, 566.628 412.898 C 568.789 413.002, 576 410.377, 576 409.487 C 576 408.898, 576.092 408.876, 573 410.185 M 733.667 411.667 C 732.004 413.330, 733.090 415.750, 735.500 415.750 C 738.174 415.750, 738.758 414.158, 736.800 412.200 C 735.441 410.841, 734.631 410.703, 733.667 411.667 M 531.684 425.827 C 529.262 433.395, 524.947 439.934, 518.465 445.858 C 511.228 452.472, 498.906 459.644, 492.098 461.204 C 485.799 462.648, 441.554 463.011, 436.500 461.660 C 430.291 460.001, 435.692 462.813, 443.500 465.305 C 467.717 473.034, 485.631 472.809, 503.670 464.551 C 510.161 461.579, 519.721 454.366, 523.180 449.830 C 527.395 444.303, 531.745 434.785, 533.021 428.298 C 534.632 420.109, 533.930 418.810, 531.684 425.827 M 330.643 433.544 C 328.521 434.328, 325.258 435.913, 323.393 437.066 C 318.848 439.875, 318.858 441.947, 323.482 454.741 C 324.166 456.635, 333.056 451.024, 335.794 446.971 C 337.630 444.251, 338.029 442.474, 337.794 438.047 C 337.460 431.770, 336.713 431.299, 330.643 433.544 M 634.440 475.822 C 634.382 495.050, 631.821 520.461, 628.979 530 C 628.405 531.925, 626.581 539.951, 624.926 547.835 C 623.270 555.720, 621.258 563.820, 620.454 565.835 C 619.650 567.851, 617.703 574, 616.127 579.500 C 612.548 591.989, 605.668 608.489, 596.739 626 C 588.806 641.556, 589.103 641.690, 598.387 626.750 C 607.534 612.031, 618.893 589.824, 624.346 576 C 637.099 543.666, 642.507 500.690, 637.607 470.612 C 636.631 464.623, 635.533 458.918, 635.167 457.933 C 634.800 456.949, 634.473 464.998, 634.440 475.822 M 687.616 513.072 C 684.118 530.573, 673.740 559.975, 664.522 578.500 C 659.869 587.850, 654.424 597.975, 652.422 601 C 650.421 604.025, 647.711 608.615, 646.400 611.200 C 641.757 620.358, 622.917 645.921, 607.118 664.500 C 589.256 685.506, 561.293 711.694, 536 731.105 C 527.020 737.996, 501.591 755.278, 484 766.444 C 463.780 779.279, 429.440 794.399, 405.500 801.007 C 393.424 804.341, 393.302 804.936, 404.691 804.970 C 410.296 804.986, 415.129 804.601, 415.430 804.113 C 415.731 803.626, 417.670 802.929, 419.739 802.564 C 423.815 801.846, 443.364 795.681, 457 790.813 C 465.017 787.951, 476.454 784.587, 487.318 781.896 C 490.179 781.187, 491.648 780.401, 490.936 779.960 C 490.138 779.467, 490.534 778.967, 492.118 778.468 C 495.182 777.503, 519.183 766.945, 520.500 765.983 C 521.050 765.581, 527.226 762.061, 534.225 758.161 C 552.365 748.052, 566.344 738.785, 574.996 731.131 C 590.032 717.830, 611.433 696.258, 619.274 686.500 C 636.977 664.467, 653.880 635.097, 664.738 607.500 C 674.666 582.268, 683.300 550.270, 687.591 522.805 C 690.434 504.610, 690.449 498.898, 687.616 513.072 M 410.250 519.745 L 401 520.075 401 534.538 L 401 549 374.361 549 L 347.721 549 348.352 554.250 C 348.699 557.138, 348.987 562.717, 348.991 566.650 L 349 573.799 361.750 574.172 C 369.107 574.388, 375.403 575.053, 376.634 575.746 C 378.717 576.918, 378.786 577.708, 379.521 608.723 C 380.219 638.169, 379.587 678.241, 378.395 680.170 C 378.113 680.627, 371.545 681, 363.800 681 L 349.718 681 350.437 694.221 C 350.832 701.493, 351.405 707.846, 351.710 708.340 C 352.023 708.846, 362.778 709.076, 376.382 708.868 L 400.500 708.500 400.227 724.750 L 399.954 741 404.727 741.009 C 407.352 741.013, 411.863 741.301, 414.750 741.648 L 420 742.279 420 725.639 L 420 709 430 709 L 440 709 440 725 L 440 741 449.500 741 L 459 741 459 725 L 459 709 467.364 709 C 471.963 709, 478.149 708.541, 481.109 707.979 C 493.385 705.651, 506.799 696.298, 512.266 686.253 C 518.183 675.382, 519.829 656.963, 515.837 646.295 C 513.130 639.058, 504.877 630.531, 496.744 626.566 L 490.988 623.759 495.264 621.048 C 503.217 616.004, 507.991 608.619, 510.044 598.184 C 515.200 571.975, 494.528 549, 465.790 549 L 459 549 459 534.500 L 459 520 449 520 L 439 520 439 534 L 439 548 430 548 L 421 548 421 533.500 C 421 525.525, 420.663 519.093, 420.250 519.208 C 419.837 519.322, 415.337 519.564, 410.250 519.745 M 788.306 537.075 C 786.550 537.599, 783.578 539.484, 781.702 541.264 C 778.501 544.301, 778.215 545.116, 777.070 554.500 C 773.913 580.364, 765.038 610.142, 753.300 634.259 C 745.632 650.011, 739.333 660.588, 728.142 676.500 C 706.426 707.377, 685.715 726.607, 649.500 749.517 C 630.693 761.415, 600.256 774.003, 570 782.398 C 557.458 785.877, 547.104 789.797, 550.105 789.929 C 553.246 790.068, 583.363 782.998, 594.837 779.429 C 626.645 769.537, 660.507 750.473, 689.721 726.011 C 696.992 719.923, 706.003 711.467, 709.745 707.220 C 723.298 691.840, 741.938 665.688, 749.994 650.750 C 754.298 642.769, 756.651 639.844, 752.983 647.034 C 751.851 649.253, 751.236 651.573, 751.617 652.189 C 752.070 652.922, 751.851 653.026, 750.985 652.490 C 750.015 651.891, 749.836 652.132, 750.319 653.388 C 750.682 654.334, 750.566 654.850, 750.061 654.537 C 749.556 654.226, 748.831 654.957, 748.448 656.162 C 748.066 657.368, 746.684 659.507, 745.376 660.917 C 742.382 664.146, 742.182 668, 745.010 668 C 746.115 668, 747.790 667.100, 748.732 666 C 749.674 664.900, 751.218 664, 752.163 664 C 753.109 664, 754.160 663.550, 754.500 663 C 754.840 662.450, 756.015 662, 757.111 662 C 758.426 662, 759.460 660.980, 760.150 659 C 761.138 656.166, 761.494 656, 766.598 656 C 771.641 656, 772 656.160, 772 658.412 C 772 660.139, 772.496 660.750, 773.750 660.567 C 774.712 660.426, 775.648 659.551, 775.830 658.622 C 776.207 656.691, 783 646.084, 783 647.426 C 783 649.415, 768.199 676.213, 761.915 685.602 C 754.342 696.917, 741.201 713.735, 733.556 721.897 C 730.775 724.866, 729.028 727.116, 729.674 726.897 C 733.338 725.657, 758.912 692.857, 768.492 677.113 C 780.667 657.103, 792.837 631.218, 799.341 611.500 C 803.236 599.691, 808.678 574.346, 810.668 558.751 L 812.414 545.069 810.085 542.591 C 805.499 537.709, 795.049 535.062, 788.306 537.075 M 230.953 537.885 C 227.671 538.959, 220.859 543.260, 219.118 545.358 C 217.550 547.247, 217.982 553.319, 221.081 573 C 228.421 619.598, 249.767 667.646, 281.059 708 C 300.442 732.996, 333.903 761.470, 365 779.431 C 368.575 781.495, 372.479 784.090, 373.676 785.197 C 376.128 787.464, 378.903 786.793, 376.926 784.411 C 376.282 783.635, 375.427 783, 375.026 783 C 374.625 783, 370.292 780.547, 365.398 777.548 C 360.504 774.550, 353.484 770.268, 349.798 768.032 C 337.534 760.594, 304 732.195, 304 729.246 C 304 728.664, 304.900 728.423, 306 728.710 C 307.100 728.998, 308 729.801, 308 730.494 C 308 733.291, 311.060 734.294, 318.949 734.086 C 325.231 733.920, 327.662 734.297, 330.880 735.939 C 333.595 737.324, 336.836 738, 340.760 738 C 343.972 738, 347.080 738.480, 347.666 739.066 C 348.421 739.821, 348.890 739.529, 349.272 738.066 C 349.570 736.930, 349.505 736, 349.129 736 C 348.753 736, 347.065 734.763, 345.378 733.250 C 343.691 731.737, 338.078 726.780, 332.905 722.234 C 327.732 717.687, 321.263 711.387, 318.529 708.234 C 315.794 705.079, 319.447 708.142, 326.650 715.043 C 347.667 735.179, 382.584 758.148, 402.699 765.069 C 415.655 769.526, 413.285 766.743, 397.129 758.528 C 381.805 750.736, 371.249 744.193, 353.144 731.264 C 317 705.454, 284.295 661.082, 266.712 614 C 260.929 598.514, 254.570 568.862, 252.499 547.719 C 251.940 542.022, 251.442 540.681, 249.385 539.333 C 246.606 537.512, 234.904 536.593, 230.953 537.885 M 412.958 575 C 412.780 577.253, 413.141 612.474, 413.344 612.678 C 413.489 612.823, 424.159 613.022, 437.054 613.120 C 459.590 613.293, 460.708 613.209, 465.870 610.975 C 473.152 607.823, 477 602.559, 477 595.751 C 477 589.362, 474.621 584.462, 469.836 580.996 C 463.347 576.296, 455.843 575.013, 433.249 574.742 C 422.111 574.609, 412.980 574.725, 412.958 575 M 731.596 629.273 C 726.340 638.182, 724.813 641.146, 725.251 641.584 C 725.952 642.285, 734.252 628.252, 733.844 627.056 C 733.655 626.500, 732.643 627.498, 731.596 629.273 M 715 634 C 711.570 640.795, 711.754 642.269, 715.218 635.750 C 718.037 630.446, 719.067 628, 718.482 628 C 718.233 628, 716.666 630.700, 715 634 M 412 660.427 L 412 681 426.250 681.250 C 447.764 681.627, 462.974 681.150, 468.162 679.935 C 473.689 678.640, 480.662 673.054, 482.630 668.343 C 485.659 661.093, 483.098 650.632, 477.253 646.376 C 469.835 640.974, 467.309 640.569, 438.750 640.200 L 412 639.855 412 660.427 M 471 646.060 C 471 646.706, 472.791 648.972, 474.981 651.097 C 477.674 653.711, 479.334 656.442, 480.116 659.545 C 480.761 662.109, 481.650 663.750, 482.131 663.269 C 483.268 662.132, 480.729 652.462, 478.710 650.237 C 476.262 647.539, 471 644.689, 471 646.060 M 718.538 650.538 C 717.031 652.515, 716.023 654.356, 716.298 654.631 C 716.573 654.906, 718.031 653.515, 719.538 651.538 C 721.046 649.562, 722.054 647.721, 721.779 647.446 C 721.504 647.171, 720.046 648.562, 718.538 650.538 M 708.645 663.840 C 707.723 664.859, 705.513 667.694, 703.734 670.141 C 697.142 679.209, 687.298 690.736, 679.266 698.792 C 674.720 703.353, 671 707.291, 671 707.542 C 671 708.976, 673.841 707.211, 682.345 700.494 C 689.010 695.231, 692.179 692.020, 692.955 689.744 C 694.214 686.052, 697.713 681.759, 700.817 680.098 C 703.614 678.601, 708.328 671.471, 709.774 666.551 C 711.144 661.891, 710.912 661.335, 708.645 663.840 M 414 673.500 C 414 677.833, 414.111 678, 417 678 C 419.473 678, 420 677.592, 420 675.674 C 420 673.567, 416.364 669, 414.686 669 C 414.308 669, 414 671.025, 414 673.500 M 483.185 674.639 C 481.654 676.975, 478.836 679.109, 474.696 681.067 C 471.288 682.679, 469.220 683.999, 470.101 683.999 C 470.982 684, 473.818 682.875, 476.404 681.500 C 481.911 678.572, 482.118 678.530, 481.364 680.494 C 481.048 681.316, 480.329 681.703, 479.765 681.355 C 479.189 680.998, 478.961 681.329, 479.245 682.111 C 479.523 682.875, 480.256 683.388, 480.875 683.250 C 481.494 683.112, 482 683.480, 482 684.067 C 482 684.680, 481.147 684.864, 480 684.500 C 478.874 684.142, 477.945 684.331, 477.875 684.933 C 477.806 685.520, 477.694 686.563, 477.625 687.250 C 477.556 687.938, 476.534 688.924, 475.353 689.443 C 473.748 690.148, 473.046 691.597, 472.569 695.193 C 472.136 698.459, 471.461 700, 470.466 700 C 469.660 700, 469 700.900, 469 702 C 469 703.680, 469.667 704, 473.167 704 C 480.740 704, 476.550 704.941, 468.311 705.091 C 463.868 705.172, 459.618 705.671, 458.867 706.200 C 456.758 707.686, 480.716 706.291, 486.328 704.602 C 492.280 702.811, 502.982 695.923, 507.097 691.236 C 510.526 687.331, 513.418 681.258, 514.372 675.960 C 514.779 673.693, 514.328 674.389, 513.064 677.978 C 512.002 680.991, 510.650 683.617, 510.060 683.813 C 509.470 684.010, 509.210 684.531, 509.483 684.972 C 509.755 685.413, 509.355 686.290, 508.594 686.922 C 507.502 687.828, 507.241 687.702, 507.355 686.322 C 507.536 684.144, 499.883 682.671, 492.750 683.510 C 488.904 683.963, 488 683.777, 488 682.534 C 488 681.555, 487.075 681, 485.441 681 C 484.034 681, 483.141 680.581, 483.457 680.069 C 483.774 679.557, 483.567 678.851, 482.998 678.499 C 482.350 678.098, 482.759 676.743, 484.091 674.872 C 485.261 673.229, 486.051 671.718, 485.847 671.514 C 485.643 671.310, 484.445 672.716, 483.185 674.639 M 441 706.887 C 442.182 707.705, 442.621 711.276, 443.069 723.713 C 443.602 738.484, 443.662 738.856, 443.991 729.500 C 444.184 724, 444.400 718.600, 444.471 717.500 C 444.703 713.897, 442.436 706.643, 440.952 706.241 C 439.747 705.915, 439.755 706.025, 441 706.887 M 387 710.729 C 387 711.466, 391.938 713.481, 396.609 714.651 C 398.639 715.159, 400.617 712.808, 399.576 711.123 C 398.973 710.148, 387 709.773, 387 710.729 M 431.500 713.084 C 437.646 715.437, 438 715.444, 438 713.206 C 438 711.702, 437.069 711.392, 432.250 711.290 L 426.500 711.169 431.500 713.084 M 720.524 735.874 L 713.548 743.500 721.274 736.025 C 725.523 731.914, 729 728.426, 729 728.275 C 729 727.098, 726.511 729.329, 720.524 735.874 M 698 755.546 C 695.525 757.469, 688.775 762.157, 683 765.963 C 670.301 774.332, 666.761 777.110, 673.500 773.417 C 683.971 767.678, 705.776 751.731, 702.750 752.024 C 702.612 752.038, 700.475 753.622, 698 755.546 M 661.719 779.577 C 658.573 781.544, 656 783.387, 656 783.672 C 656 784.355, 665.084 779.136, 666.964 777.373 C 669.367 775.120, 667.773 775.790, 661.719 779.577 M 641.924 790.135 C 633.151 794.457, 624.089 797.858, 589.500 809.806 C 587.850 810.376, 587.036 810.878, 587.692 810.921 C 589.839 811.063, 612.261 803.946, 623.541 799.542 C 637.945 793.917, 655.810 785, 652.674 785 C 652.495 785, 647.657 787.311, 641.924 790.135 M 448.083 812.412 C 448.313 812.639, 456.375 814.037, 466 815.519 C 484.457 818.360, 519.888 820.159, 533 818.919 C 537.663 818.479, 535.119 818.259, 524 818.142 C 505.547 817.948, 489.262 816.659, 471.327 813.973 C 459.425 812.190, 447.017 811.357, 448.083 812.412 M 569 814 C 565.626 814.710, 565.608 814.737, 568.500 814.750 C 570.150 814.757, 572.850 814.420, 574.500 814 C 577.162 813.323, 577.218 813.238, 575 813.250 C 573.625 813.257, 570.925 813.595, 569 814" stroke="none" fill="#312c2e" fill-rule="evenodd"/></svg>