<svg width="38" height="37" viewBox="0 0 38 37" fill="none" xmlns="http://www.w3.org/2000/svg">
<path d="M2.39657 12.6813C2.39657 12.6813 2.34836 12.7361 2.39657 12.6813C2.12712 13.3192 2.16673 13.9373 2.47379 14.6934C2.5352 14.8446 2.65142 15.0441 2.76765 15.2435C3.0615 15.7936 3.45837 16.3371 4.01307 16.9222C4.1227 17.0186 4.28712 17.1633 4.34853 17.3145C4.7388 17.755 5.2321 18.1888 5.7802 18.6709C5.88982 18.7673 6.05425 18.912 6.16387 19.0084C6.60235 19.3941 7.14385 19.7731 7.68535 20.1522C7.79496 20.2486 7.90459 20.345 8.11722 20.4348C8.60391 20.7657 9.14541 21.1448 9.6321 21.4756C9.74172 21.572 9.89955 21.6136 10.064 21.7583C10.5507 22.0891 11.0856 22.3652 11.6753 22.6894C11.7849 22.7858 11.9427 22.8275 12.1071 22.9721C12.642 23.2481 13.1769 23.5242 13.7118 23.8002C13.8697 23.8418 13.9793 23.9383 14.1371 23.9799C14.672 24.2559 15.2069 24.532 15.79 24.7532C15.8448 24.8014 16.0027 24.843 16.0575 24.8912C16.1123 24.9394 16.1123 24.9394 16.2153 24.9328C16.7984 25.1541 17.3333 25.4301 17.9164 25.6514C18.0742 25.693 18.1838 25.7894 18.3417 25.831C18.767 26.0106 19.1922 26.1902 19.6109 26.2669C19.7687 26.3085 19.9266 26.3501 20.0362 26.4465C20.194 26.4881 20.3518 26.5297 20.4615 26.6261C21.0446 26.8474 21.6759 27.0138 22.2042 27.1868C22.362 27.2284 22.5198 27.27 22.6777 27.3116C23.0481 27.4431 23.3638 27.5263 23.7825 27.6029C24.0433 27.6379 24.2559 27.7277 24.5168 27.7627C24.6746 27.8043 24.8325 27.8459 24.9903 27.8875C25.6216 28.054 26.2463 28.1174 26.8228 28.2356C26.9258 28.229 27.0837 28.2706 27.1867 28.264C27.2415 28.3122 27.2897 28.2574 27.3445 28.3056C27.6054 28.3406 27.8662 28.3756 28.127 28.4106C28.4909 28.439 28.9096 28.5156 29.2186 28.4958C29.4247 28.4826 29.5825 28.5242 29.7403 28.5658C30.4133 28.5744 31.0314 28.5348 31.5465 28.5018C31.6495 28.4952 31.6977 28.4404 31.8007 28.4338C31.9037 28.4272 32.0067 28.4206 32.055 28.3658C32.158 28.3592 32.261 28.3526 32.3092 28.2978C33.175 28.0872 33.7667 27.6355 34.0909 27.0458C34.1391 26.991 34.1391 26.991 34.1325 26.8879L35.6726 23.4791L34.7124 23.0234L34.2871 22.8438L32.6342 22.0705L32.209 21.8908L30.8783 21.3037L30.5079 21.1723L30.0826 20.9927L28.4297 20.2193L28.0044 20.0397L26.3515 19.2664L25.9262 19.0867L24.2733 18.3134L23.848 18.1338L22.1951 17.3604L21.7699 17.1808L20.117 16.4075L19.6917 16.2278L18.0388 15.4545L17.6135 15.2749L15.9606 14.5015L15.5353 14.3219L13.8824 13.5486L13.4572 13.369L11.8043 12.5956L11.379 12.416L9.72609 11.6426L9.30081 11.463L9.19119 11.3666L7.64791 10.6897L7.22264 10.5101L5.56974 9.73672L5.14446 9.55708L4.29391 9.19783L2.39657 12.6813Z" fill="#CE9200"/>
<path d="M3.93153 9.16036C2.79894 11.6638 9.02747 16.8505 17.8685 20.8354C19.0413 21.3809 20.2623 21.8716 21.4285 22.3141C22.9104 22.8398 24.3374 23.3173 25.6549 23.6983C26.8145 24.0378 27.9675 24.2742 28.9627 24.4691C29.2783 24.5523 29.5874 24.5325 29.9031 24.6157C31.2073 24.7907 32.4019 24.8693 33.3225 24.7069C33.5285 24.6937 33.6797 24.6323 33.8858 24.6191C34.9094 24.45 35.5559 24.0466 35.8801 23.4569C35.9283 23.402 35.9217 23.299 35.9217 23.299C36.6905 20.7672 30.5716 15.6769 21.9432 11.7818C19.865 10.8288 17.7452 10.0337 15.8447 9.43138C15.4742 9.29995 15.1037 9.16853 14.7399 9.14013C13.1068 8.67585 11.6381 8.35619 10.2791 8.13295C10.0182 8.09795 9.70257 8.01474 9.39351 8.03454C8.40493 7.94273 7.51938 7.84431 6.75004 7.94533C5.92589 7.99814 5.31438 8.14077 4.81249 8.37981C4.46182 8.55745 4.16598 8.78329 4.02795 9.05074C4.02795 9.05074 3.97974 9.10555 3.93153 9.16036Z" fill="#E7B816"/>
<path d="M7.13129 10.6161C7.08308 10.6709 7.08969 10.774 7.08969 10.774C6.5488 12.8257 11.4619 16.8555 18.2795 19.9356C25.0972 23.0157 31.3641 23.9589 32.5429 22.1766C32.5911 22.1217 32.6393 22.0669 32.5845 22.0187C33.4893 19.9954 28.5148 15.8144 21.4363 12.6993C14.4608 9.57753 8.09086 8.64098 7.13129 10.6161Z" fill="#A98005"/>
<path d="M7.08663 10.7498C6.54573 12.8016 11.4588 16.8313 18.2765 19.9114C18.4343 19.9531 18.5439 20.0495 18.7566 20.1393C20.2998 20.8162 21.7817 21.3419 23.2088 21.8194C24.6358 22.2969 25.9467 22.5749 27.0997 22.8113C27.4153 22.8946 27.6762 22.9296 27.9852 22.9098C29.2895 23.0848 30.3745 23.067 31.192 22.9112C31.398 22.8979 31.5493 22.8365 31.7005 22.7751C32.106 22.6457 32.4018 22.4199 32.5398 22.1524C33.0807 20.1006 28.1676 16.0709 21.35 12.9908C20.4994 12.6315 19.6489 12.2723 18.7983 11.913C18.3731 11.7334 17.9478 11.5537 17.5291 11.4771C15.8346 10.8616 14.2563 10.4455 12.8425 10.1741C12.5268 10.0909 12.266 10.0559 11.9021 10.0275C10.8039 9.83925 9.76711 9.80224 8.99777 9.90326C8.22843 10.0043 7.67173 10.1951 7.27946 10.5306C7.23125 10.5854 7.13483 10.695 7.08663 10.7498Z" fill="#F3CC30"/>
<path d="M17.1777 17.6007L16.9016 18.1356L19.6177 19.358L19.8389 18.7749C21.7527 19.5832 23.6598 20.2886 24.9225 20.6214L23.8897 19.0325C22.524 18.7063 20.7747 18.0426 19.3345 17.359C18.0586 16.8201 17.6267 16.5375 17.6684 16.3797C17.8962 15.8996 25.0625 19.578 25.6978 18.1926C25.9672 17.5547 24.6518 16.3977 21.552 14.8378L21.7733 14.2547L19.0572 13.0323L18.8908 13.6636C17.4571 13.0831 16.0783 12.5508 14.8704 12.2661L15.8484 13.8068C17.2689 14.1813 18.4899 14.672 19.7109 15.1626C21.0416 15.7497 21.3704 16.039 21.3288 16.1968C21.101 16.6769 13.8799 12.9503 13.2994 14.3839C13.0233 14.9188 14.2905 16.1306 17.1777 17.6007Z" fill="#795807"/>
<path d="M17.3433 17.4783L17.0738 18.1162L19.7899 19.3386L20.0112 18.7555C21.9249 19.5638 23.8321 20.2691 25.0947 20.602L24.0619 19.0131C22.6963 18.6869 20.9469 18.0232 19.4585 17.3944C18.1826 16.8555 17.7508 16.5729 17.7924 16.4151C18.0202 15.935 25.1865 19.6134 25.8218 18.228C26.0913 17.5901 24.7758 16.4331 21.6761 14.8732L21.8973 14.2901L19.1812 13.0677L19.1594 13.5345C17.7258 12.954 16.3469 12.4218 15.1391 12.1371L16.0623 13.6296C17.4827 14.004 18.7037 14.4947 19.9248 14.9854C21.2554 15.5725 21.5843 15.8618 21.5426 16.0196C21.3148 16.4997 14.0937 12.773 13.5132 14.2067C13.1889 14.7964 14.4562 16.0082 17.3433 17.4783Z" fill="#FFFDF3"/>
</svg>
