<svg width="25" height="24" viewBox="0 0 25 24" fill="none" xmlns="http://www.w3.org/2000/svg">
<path d="M20.3772 13.8718C20.6603 13.3325 20.2706 12.7147 19.6903 12.8999C18.5987 13.2483 17.6707 14.0242 17.1418 15.0818L15.5098 18.0205C15.3661 18.2793 15.0933 18.4399 14.7972 18.4399H10.7431C10.4532 18.4399 10.2183 18.2049 10.2183 17.915C10.2183 17.6251 10.4532 17.3901 10.7431 17.3901H14.1726C14.4814 17.3901 14.7636 17.2156 14.9017 16.9395L15.26 16.2227C15.531 15.6807 15.1369 15.043 14.531 15.043H8.97147C8.19103 15.043 7.43465 15.3599 6.9258 15.8842L4.80052 17.7821C4.45333 18.0921 4.43582 18.6295 4.76208 18.9615L7.37604 21.6212C7.67577 21.9262 8.16022 21.9477 8.48581 21.6705L9.14991 21.1052C9.29736 20.9796 9.48467 20.9107 9.67831 20.9107H16.3176C16.6266 20.9107 16.9119 20.73 17.05 20.4536C19.1446 16.2595 19.9677 14.6517 20.3772 13.8718Z" fill="#0F0E0C"/>
<path fill-rule="evenodd" clip-rule="evenodd" d="M6.71837 8.00243C6.71837 4.7672 9.3508 2.13477 12.586 2.13477C15.8213 2.13477 18.4537 4.7672 18.4537 8.00243C18.4537 11.2377 15.8213 13.8701 12.586 13.8701C9.3508 13.8701 6.71837 11.2377 6.71837 8.00243ZM12.6884 4.26568C12.8769 4.26568 13.026 4.45323 13.026 4.64167V5.14417H14.1308C14.3192 5.14417 14.5278 5.28945 14.5278 5.49478V5.6204C14.5278 5.80884 14.3451 5.96074 14.1566 5.96074H11.7069C11.5185 5.96074 11.33 6.08637 11.2044 6.21199C11.016 6.40043 10.9531 6.58887 10.9531 6.77731C10.9531 6.96575 11.0788 7.15419 11.2044 7.27982C11.33 7.40544 11.5185 7.53107 11.7069 7.53107H13.4029C13.8426 7.53107 14.2596 7.68667 14.5963 8.03357C14.8981 8.34451 15.0988 8.72452 15.0988 9.16421C15.0988 9.6039 14.9732 9.98078 14.7219 10.2948C14.4707 10.6089 14.031 10.7974 13.5913 10.7974H13.1516V11.3627C13.1516 11.5511 12.9632 11.7395 12.7747 11.7395H12.5863C12.3979 11.7395 12.2094 11.5511 12.2094 11.3627V10.7974H10.8275C10.6391 10.7974 10.4506 10.6089 10.4506 10.4205V10.232C10.4506 10.0436 10.5763 9.91797 10.7647 9.91797H13.4029C13.7229 9.91797 13.9146 9.7854 14.0225 9.6604C14.1304 9.53539 14.2194 9.35265 14.2194 9.16421C14.2194 8.92817 14.0829 8.71606 13.9831 8.63695L13.9797 8.63427C13.8792 8.55456 13.6976 8.41045 13.4029 8.41045H11.7069C11.33 8.41045 10.8903 8.22201 10.5763 7.90795C10.2622 7.6567 10.0738 7.217 10.0738 6.77731C10.0738 6.33762 10.2933 5.92857 10.5763 5.64668C10.8804 5.34363 11.2672 5.14417 11.7069 5.14417H12.1466V4.64167C12.1466 4.45323 12.3116 4.26568 12.5 4.26568H12.6884Z" fill="#0F0E0C"/>
</svg>
