<svg width="38" height="29" viewBox="0 0 38 29" fill="none" xmlns="http://www.w3.org/2000/svg">
<path d="M37.7035 10.5468C38.02 11.6547 38.0992 12.7627 37.8617 13.8706C37.7826 14.1871 37.7035 14.5037 37.6243 14.8994C37.3078 16.0073 36.7538 17.1152 35.9624 18.2231C35.8042 18.3814 35.725 18.5397 35.5668 18.698C35.0128 19.4102 34.3006 20.1224 33.5883 20.8347C33.43 20.9929 33.3509 21.0721 33.1926 21.2304C32.5595 21.7843 31.8473 22.3383 31.0559 22.8922C30.8977 22.9714 30.7394 23.1297 30.5811 23.2088C29.8689 23.6836 29.1566 24.1584 28.3653 24.5541C28.207 24.6333 28.0487 24.7124 27.8904 24.7915C27.1782 25.1872 26.3868 25.5038 25.5955 25.8995C25.4372 25.9786 25.2789 26.0577 25.1206 26.0577C24.4084 26.3743 23.617 26.6117 22.9048 26.8491C22.8257 26.8491 22.8257 26.8491 22.7465 26.9282C22.5882 27.0074 22.43 27.0074 22.2717 27.0865C21.4803 27.3239 20.6098 27.5613 19.8184 27.7196C19.6602 27.7196 19.5019 27.7988 19.3436 27.7988C19.1853 27.7988 19.0271 27.8779 18.7896 27.8779C18.1565 28.0362 17.4443 28.1153 16.8112 28.1944C16.6529 28.1944 16.4947 28.1944 16.3364 28.2736C15.545 28.3527 14.7536 28.4319 13.9623 28.4319C13.8831 28.4319 13.8831 28.4319 13.804 28.4319C13.6457 28.4319 13.4874 28.4319 13.25 28.4319C12.3004 28.4319 11.4299 28.3527 10.5594 28.1944C10.4011 28.1944 10.1637 28.1153 10.0054 28.1153H9.92627C9.53058 28.0362 9.21404 27.957 8.81835 27.8779C8.26439 27.7196 7.71043 27.5613 7.15647 27.4031C6.99819 27.3239 6.76078 27.2448 6.6025 27.1657C5.89027 26.8491 5.25717 26.5326 4.62407 26.216C4.38666 26.0577 4.14925 25.8995 3.99097 25.7412C3.8327 25.5829 3.67442 25.5038 3.51615 25.3455C3.27874 25.1081 3.04133 24.8707 2.80391 24.6333C2.17082 23.921 1.69599 23.0505 1.37944 22.18L0.192383 17.9066L0.904619 17.59L1.37944 17.4318L3.75356 16.6404L4.22838 16.4821L6.6025 15.6907L7.07733 15.5325L9.45145 14.7411L9.92627 14.5828L12.3004 13.7915L12.7752 13.6332L15.1493 12.8418L15.6242 12.6835L17.9983 11.8922L18.4731 11.7339L20.8472 10.9425L21.322 10.7842L23.6962 9.99286L24.171 9.83459L26.5451 9.04321L27.0199 8.88494L29.394 8.09357L29.8689 7.93529L32.243 7.14392L32.7178 6.98564L35.0919 6.19427L35.5668 6.036L36.279 5.79858L37.3078 9.59718C37.6243 10.2303 37.6243 10.3885 37.7035 10.5468Z" fill="#CE9200"/>
<path d="M36.518 6.19287C38.3381 11.9699 31.7697 19.2505 21.7193 22.416C20.374 22.8908 19.0286 23.2074 17.6833 23.4448C16.0214 23.7614 14.3595 23.9196 12.7768 23.9196C11.3523 23.9196 10.0861 23.8405 8.81993 23.6031C8.42424 23.5239 8.10769 23.4448 7.71201 23.3657C6.12926 22.97 4.70479 22.416 3.51773 21.7038C3.28032 21.5455 3.0429 21.3872 2.88463 21.229C1.61843 20.3585 0.747922 19.1714 0.273098 17.7469C0.193961 17.5886 0.193961 17.5095 0.193961 17.3512C-1.23051 11.6533 5.33789 4.61013 15.0718 1.52377C17.4459 0.732398 19.8992 0.257578 22.115 0.099303C22.5898 0.099303 22.9855 0.0201669 23.3812 0.0201669C25.2805 -0.0589704 27.0215 0.0993042 28.6043 0.415853C28.9208 0.494991 29.3165 0.574124 29.633 0.653262C30.8201 0.969811 31.928 1.44463 32.8777 1.91946C33.8273 2.47342 34.6978 3.10652 35.3309 3.89789C35.8058 4.45185 36.2014 5.08495 36.4388 5.71805C36.4388 5.95546 36.4389 6.11374 36.518 6.19287Z" fill="#E7B816"/>
<path d="M32.8901 7.38383C32.9693 7.54211 32.9693 7.62125 32.9693 7.77952C33.9981 12.3695 28.775 17.9091 21.0195 20.3624C13.2641 22.8156 5.74605 21.312 4.00503 16.9594C4.00503 16.8803 3.92589 16.722 3.92589 16.6429C2.42228 12.0529 7.72448 6.19678 15.7173 3.66438C23.7102 1.05285 31.3865 2.79387 32.8901 7.38383Z" fill="#A98005"/>
<path d="M32.9752 7.77772C34.004 12.3677 28.7809 17.9073 21.0255 20.3605C20.8672 20.4397 20.7089 20.4397 20.4715 20.5188C18.7305 21.0728 16.9895 21.3893 15.3276 21.4685C13.6657 21.6267 12.1621 21.5476 10.7376 21.3102C10.3419 21.2311 10.0254 21.1519 9.70884 21.0728C8.1261 20.6771 6.8599 20.1231 5.83112 19.2526C5.5937 19.0943 5.35629 18.8569 5.11888 18.6195C4.64406 18.1447 4.24837 17.5116 4.01096 16.8785C2.98217 12.2885 8.20524 6.74893 15.9607 4.29567C16.9103 3.97912 17.9391 3.74172 18.8888 3.58344C19.3636 3.5043 19.8384 3.42516 20.3132 3.34603C22.2917 3.10862 24.191 3.10862 25.8529 3.34603C26.2485 3.42516 26.5651 3.42516 26.8816 3.5043C28.227 3.82085 29.414 4.21654 30.4428 4.84964C31.3925 5.48274 32.1838 6.19497 32.6587 7.06548C32.8169 7.38203 32.8961 7.5403 32.9752 7.77772Z" fill="#F3CC30"/>
<path d="M21.8874 16.0852L22.3622 17.5097L19.2758 18.4594L18.8801 17.114C16.6643 17.7471 14.4484 18.0637 13.024 17.9845L13.9736 15.2939C15.5564 15.2939 17.5348 15.0565 19.1967 14.5025C20.6212 14.0277 21.096 13.7111 21.0168 13.3946C20.7003 12.2867 12.5491 15.8478 11.5204 12.6032C11.0455 11.1787 12.47 9.43772 15.9521 8.01324L15.4772 6.66791L18.5636 5.71826L18.9593 7.06359C20.6212 6.66791 22.2039 6.35136 23.6284 6.35136L22.7579 8.96289C21.096 8.96289 19.6715 9.2003 18.3262 9.67513C16.8226 10.15 16.4269 10.5456 16.506 10.8622C16.8226 11.891 24.9737 8.32979 26.0025 11.5744C26.4773 12.9989 25.132 14.7399 21.8874 16.0852Z" fill="#795807"/>
<path d="M21.6559 15.6919L22.1307 17.1164L19.0444 18.0661L18.6487 16.7207C16.4328 17.3538 14.217 17.6704 12.7925 17.5912L13.7422 14.9006C15.3249 14.9006 17.3034 14.6632 18.9652 14.1092C20.3897 13.6344 20.8645 13.3178 20.7854 13.0013C20.4688 11.8933 12.3177 15.4545 11.2889 12.2099C10.8141 10.7854 12.2386 9.04441 15.7206 7.61993L15.2458 6.2746L18.3321 5.32495L18.7278 6.67028C20.3897 6.2746 21.9725 5.95805 23.3969 5.95805L22.5264 8.56958C20.8645 8.56958 19.4401 8.80699 18.0947 9.28182C16.5911 9.75664 16.1954 10.1523 16.2746 10.4689C16.5911 11.4977 24.7423 7.93648 25.771 11.1811C26.2459 12.5264 24.9005 14.2675 21.6559 15.6919Z" fill="#FFFDF3"/>
</svg>
