<svg width="24" height="24" viewBox="0 0 24 24" fill="none" xmlns="http://www.w3.org/2000/svg">
<path d="M17.1138 3.89648C17.1138 3.3442 16.6661 2.89648 16.1138 2.89648C15.5615 2.89648 15.1138 3.3442 15.1138 3.89648L15.1138 6.89648C15.1138 7.44877 15.5615 7.89648 16.1138 7.89648C16.6661 7.89648 17.1138 7.44877 17.1138 6.89648L17.1138 3.89648Z" fill="white"/>
<path d="M9.11377 3.89649C9.11377 3.3442 8.66605 2.89649 8.11377 2.89649C7.56148 2.89649 7.11377 3.3442 7.11377 3.89649L7.11377 6.89648C7.11377 7.44877 7.56148 7.89648 8.11377 7.89648C8.66605 7.89648 9.11377 7.44877 9.11377 6.89648L9.11377 3.89649Z" fill="white"/>
<path d="M14.1138 4.83252H10.1138L10.1138 6.83252C10.1138 7.93709 9.21834 8.83252 8.11377 8.83252C7.0092 8.83252 6.11377 7.93709 6.11377 6.83252L6.11377 4.92088C5.272 5.02253 4.72327 5.24112 4.25319 5.7112C3.46284 6.50155 3.38339 7.72516 3.3754 10.0215H20.6253C20.6252 7.26179 20.6167 6.58131 19.7466 5.7112C19.2973 5.26191 18.8357 5.04235 18.1138 4.93506L18.1138 6.83252C18.1138 7.93709 17.2183 8.83252 16.1138 8.83252C15.0092 8.83252 14.1138 7.93709 14.1138 6.83252L14.1138 4.83252Z" fill="white"/>
<path fill-rule="evenodd" clip-rule="evenodd" d="M20.6253 11.7715H3.37451V15.1036C3.37451 17.932 3.37451 19.3462 4.25319 20.2249C5.13187 21.1036 6.28538 21.1036 9.11381 21.1036H15.1138C17.9422 21.1036 18.8679 21.1036 19.7466 20.2249C20.6253 19.3462 20.6253 17.932 20.6253 15.1036V11.7715ZM6.62451 14.459C6.62451 14.1483 6.87635 13.8965 7.18701 13.8965H8.31201C8.62267 13.8965 8.87451 14.1483 8.87451 14.459V15.584C8.87451 15.8946 8.62267 16.1465 8.31201 16.1465H7.18701C6.87635 16.1465 6.62451 15.8946 6.62451 15.584V14.459ZM11.1245 14.459C11.1245 14.1483 11.3764 13.8965 11.687 13.8965H12.812C13.1227 13.8965 13.3745 14.1483 13.3745 14.459V15.584C13.3745 15.8946 13.1227 16.1465 12.812 16.1465H11.687C11.3764 16.1465 11.1245 15.8946 11.1245 15.584V14.459ZM16.187 13.8965C15.8764 13.8965 15.6245 14.1483 15.6245 14.459V15.584C15.6245 15.8946 15.8764 16.1465 16.187 16.1465H17.312C17.6227 16.1465 17.8745 15.8946 17.8745 15.584V14.459C17.8745 14.1483 17.6227 13.8965 17.312 13.8965H16.187Z" fill="white"/>
</svg>
