<svg width="24" height="24" viewBox="0 0 24 24" fill="none" xmlns="http://www.w3.org/2000/svg">
<path d="M12 4.5C4.06667 4.5 1.5 12 1.5 12C1.5 12 3.95 19.5 12 19.5C20.2833 19.5 22.5 12 22.5 12C22.5 12 20.2833 4.5 12 4.5ZM12 16.7833C9.31667 16.7833 7.21667 14.5667 7.21667 12C7.21667 9.43333 9.31667 7.21666 12 7.21666C14.6833 7.21666 16.7833 9.43333 16.7833 12C16.7833 14.5667 14.6833 16.7833 12 16.7833Z" fill="white" fill-opacity="0.6"/>
<path d="M12.0001 14.9167C13.6109 14.9167 14.9167 13.6108 14.9167 12C14.9167 10.3892 13.6109 9.08333 12.0001 9.08333C10.3892 9.08333 9.0834 10.3892 9.0834 12C9.0834 13.6108 10.3892 14.9167 12.0001 14.9167Z" fill="white" fill-opacity="0.6"/>
</svg>
