<svg width="25" height="24" viewBox="0 0 25 24" fill="none" xmlns="http://www.w3.org/2000/svg">
<path fill-rule="evenodd" clip-rule="evenodd" d="M12.5 2C13.0523 2 13.5 2.44772 13.5 3V6.6C13.5 7.15228 13.0523 7.6 12.5 7.6C11.9477 7.6 11.5 7.15228 11.5 6.6V3C11.5 2.44772 11.9477 2 12.5 2Z" fill="url(#paint0_linear_2932_7157)"/>
<path fill-rule="evenodd" clip-rule="evenodd" d="M12.5 16.4C13.0523 16.4 13.5 16.8477 13.5 17.4V21C13.5 21.5523 13.0523 22 12.5 22C11.9477 22 11.5 21.5523 11.5 21V17.4C11.5 16.8477 11.9477 16.4 12.5 16.4Z" fill="url(#paint1_linear_2932_7157)"/>
<path fill-rule="evenodd" clip-rule="evenodd" d="M5.42961 4.92961C5.82014 4.53909 6.4533 4.53909 6.84383 4.92961L9.39083 7.47661C9.78135 7.86714 9.78135 8.5003 9.39083 8.89083C9.0003 9.28135 8.36714 9.28135 7.97661 8.89083L5.42961 6.34383C5.03909 5.9533 5.03909 5.32014 5.42961 4.92961Z" fill="url(#paint2_linear_2932_7157)"/>
<path fill-rule="evenodd" clip-rule="evenodd" d="M15.6093 15.1091C15.9998 14.7186 16.633 14.7186 17.0235 15.1091L19.5705 17.6561C19.961 18.0466 19.961 18.6798 19.5705 19.0703C19.18 19.4608 18.5468 19.4608 18.1563 19.0703L15.6093 16.5233C15.2188 16.1328 15.2188 15.4996 15.6093 15.1091Z" fill="url(#paint3_linear_2932_7157)"/>
<path fill-rule="evenodd" clip-rule="evenodd" d="M2.5 12C2.5 11.4477 2.94772 11 3.5 11H7.1C7.65228 11 8.1 11.4477 8.1 12C8.1 12.5523 7.65228 13 7.1 13H3.5C2.94772 13 2.5 12.5523 2.5 12Z" fill="url(#paint4_linear_2932_7157)"/>
<path fill-rule="evenodd" clip-rule="evenodd" d="M16.9004 12C16.9004 11.4477 17.3481 11 17.9004 11H21.5004C22.0527 11 22.5004 11.4477 22.5004 12C22.5004 12.5523 22.0527 13 21.5004 13H17.9004C17.3481 13 16.9004 12.5523 16.9004 12Z" fill="url(#paint5_linear_2932_7157)"/>
<path fill-rule="evenodd" clip-rule="evenodd" d="M9.39083 15.1091C9.78135 15.4996 9.78135 16.1328 9.39083 16.5233L6.84383 19.0703C6.4533 19.4608 5.82014 19.4608 5.42961 19.0703C5.03909 18.6798 5.03909 18.0466 5.42961 17.6561L7.97661 15.1091C8.36714 14.7186 9.0003 14.7186 9.39083 15.1091Z" fill="url(#paint6_linear_2932_7157)"/>
<path fill-rule="evenodd" clip-rule="evenodd" d="M19.5705 4.92961C19.961 5.32014 19.961 5.9533 19.5705 6.34383L17.0235 8.89083C16.633 9.28135 15.9998 9.28135 15.6093 8.89083C15.2188 8.5003 15.2188 7.86714 15.6093 7.47661L18.1563 4.92961C18.5468 4.53909 19.18 4.53909 19.5705 4.92961Z" fill="url(#paint7_linear_2932_7157)"/>
<defs>
<linearGradient id="paint0_linear_2932_7157" x1="2.5" y1="12.0007" x2="22.5004" y2="12.0007" gradientUnits="userSpaceOnUse">
<stop stop-color="#AB6E19"/>
<stop offset="0.01" stop-color="#B47B23"/>
<stop offset="0.06" stop-color="#CDA243"/>
<stop offset="0.121891" stop-color="#E2C15B"/>
<stop offset="0.171403" stop-color="#F0D76D"/>
<stop offset="0.232867" stop-color="#F9E477"/>
<stop offset="0.306282" stop-color="#FCE97B"/>
<stop offset="0.39399" stop-color="#F9E475"/>
<stop offset="0.504894" stop-color="#EFD665"/>
<stop offset="0.635883" stop-color="#E0C04B"/>
<stop offset="0.74" stop-color="#E8C853"/>
<stop offset="0.808788" stop-color="#FCE97B"/>
<stop offset="0.87" stop-color="#F8E475"/>
<stop offset="0.9" stop-color="#EED465"/>
<stop offset="0.94" stop-color="#DDBB4B"/>
<stop offset="0.98" stop-color="#C59826"/>
<stop offset="1" stop-color="#BA8916"/>
</linearGradient>
<linearGradient id="paint1_linear_2932_7157" x1="2.5" y1="12.0007" x2="22.5004" y2="12.0007" gradientUnits="userSpaceOnUse">
<stop stop-color="#AB6E19"/>
<stop offset="0.01" stop-color="#B47B23"/>
<stop offset="0.06" stop-color="#CDA243"/>
<stop offset="0.121891" stop-color="#E2C15B"/>
<stop offset="0.171403" stop-color="#F0D76D"/>
<stop offset="0.232867" stop-color="#F9E477"/>
<stop offset="0.306282" stop-color="#FCE97B"/>
<stop offset="0.39399" stop-color="#F9E475"/>
<stop offset="0.504894" stop-color="#EFD665"/>
<stop offset="0.635883" stop-color="#E0C04B"/>
<stop offset="0.74" stop-color="#E8C853"/>
<stop offset="0.808788" stop-color="#FCE97B"/>
<stop offset="0.87" stop-color="#F8E475"/>
<stop offset="0.9" stop-color="#EED465"/>
<stop offset="0.94" stop-color="#DDBB4B"/>
<stop offset="0.98" stop-color="#C59826"/>
<stop offset="1" stop-color="#BA8916"/>
</linearGradient>
<linearGradient id="paint2_linear_2932_7157" x1="2.5" y1="12.0007" x2="22.5004" y2="12.0007" gradientUnits="userSpaceOnUse">
<stop stop-color="#AB6E19"/>
<stop offset="0.01" stop-color="#B47B23"/>
<stop offset="0.06" stop-color="#CDA243"/>
<stop offset="0.121891" stop-color="#E2C15B"/>
<stop offset="0.171403" stop-color="#F0D76D"/>
<stop offset="0.232867" stop-color="#F9E477"/>
<stop offset="0.306282" stop-color="#FCE97B"/>
<stop offset="0.39399" stop-color="#F9E475"/>
<stop offset="0.504894" stop-color="#EFD665"/>
<stop offset="0.635883" stop-color="#E0C04B"/>
<stop offset="0.74" stop-color="#E8C853"/>
<stop offset="0.808788" stop-color="#FCE97B"/>
<stop offset="0.87" stop-color="#F8E475"/>
<stop offset="0.9" stop-color="#EED465"/>
<stop offset="0.94" stop-color="#DDBB4B"/>
<stop offset="0.98" stop-color="#C59826"/>
<stop offset="1" stop-color="#BA8916"/>
</linearGradient>
<linearGradient id="paint3_linear_2932_7157" x1="2.5" y1="12.0007" x2="22.5004" y2="12.0007" gradientUnits="userSpaceOnUse">
<stop stop-color="#AB6E19"/>
<stop offset="0.01" stop-color="#B47B23"/>
<stop offset="0.06" stop-color="#CDA243"/>
<stop offset="0.121891" stop-color="#E2C15B"/>
<stop offset="0.171403" stop-color="#F0D76D"/>
<stop offset="0.232867" stop-color="#F9E477"/>
<stop offset="0.306282" stop-color="#FCE97B"/>
<stop offset="0.39399" stop-color="#F9E475"/>
<stop offset="0.504894" stop-color="#EFD665"/>
<stop offset="0.635883" stop-color="#E0C04B"/>
<stop offset="0.74" stop-color="#E8C853"/>
<stop offset="0.808788" stop-color="#FCE97B"/>
<stop offset="0.87" stop-color="#F8E475"/>
<stop offset="0.9" stop-color="#EED465"/>
<stop offset="0.94" stop-color="#DDBB4B"/>
<stop offset="0.98" stop-color="#C59826"/>
<stop offset="1" stop-color="#BA8916"/>
</linearGradient>
<linearGradient id="paint4_linear_2932_7157" x1="2.5" y1="12.0007" x2="22.5004" y2="12.0007" gradientUnits="userSpaceOnUse">
<stop stop-color="#AB6E19"/>
<stop offset="0.01" stop-color="#B47B23"/>
<stop offset="0.06" stop-color="#CDA243"/>
<stop offset="0.121891" stop-color="#E2C15B"/>
<stop offset="0.171403" stop-color="#F0D76D"/>
<stop offset="0.232867" stop-color="#F9E477"/>
<stop offset="0.306282" stop-color="#FCE97B"/>
<stop offset="0.39399" stop-color="#F9E475"/>
<stop offset="0.504894" stop-color="#EFD665"/>
<stop offset="0.635883" stop-color="#E0C04B"/>
<stop offset="0.74" stop-color="#E8C853"/>
<stop offset="0.808788" stop-color="#FCE97B"/>
<stop offset="0.87" stop-color="#F8E475"/>
<stop offset="0.9" stop-color="#EED465"/>
<stop offset="0.94" stop-color="#DDBB4B"/>
<stop offset="0.98" stop-color="#C59826"/>
<stop offset="1" stop-color="#BA8916"/>
</linearGradient>
<linearGradient id="paint5_linear_2932_7157" x1="2.5" y1="12.0007" x2="22.5004" y2="12.0007" gradientUnits="userSpaceOnUse">
<stop stop-color="#AB6E19"/>
<stop offset="0.01" stop-color="#B47B23"/>
<stop offset="0.06" stop-color="#CDA243"/>
<stop offset="0.121891" stop-color="#E2C15B"/>
<stop offset="0.171403" stop-color="#F0D76D"/>
<stop offset="0.232867" stop-color="#F9E477"/>
<stop offset="0.306282" stop-color="#FCE97B"/>
<stop offset="0.39399" stop-color="#F9E475"/>
<stop offset="0.504894" stop-color="#EFD665"/>
<stop offset="0.635883" stop-color="#E0C04B"/>
<stop offset="0.74" stop-color="#E8C853"/>
<stop offset="0.808788" stop-color="#FCE97B"/>
<stop offset="0.87" stop-color="#F8E475"/>
<stop offset="0.9" stop-color="#EED465"/>
<stop offset="0.94" stop-color="#DDBB4B"/>
<stop offset="0.98" stop-color="#C59826"/>
<stop offset="1" stop-color="#BA8916"/>
</linearGradient>
<linearGradient id="paint6_linear_2932_7157" x1="2.5" y1="12.0007" x2="22.5004" y2="12.0007" gradientUnits="userSpaceOnUse">
<stop stop-color="#AB6E19"/>
<stop offset="0.01" stop-color="#B47B23"/>
<stop offset="0.06" stop-color="#CDA243"/>
<stop offset="0.121891" stop-color="#E2C15B"/>
<stop offset="0.171403" stop-color="#F0D76D"/>
<stop offset="0.232867" stop-color="#F9E477"/>
<stop offset="0.306282" stop-color="#FCE97B"/>
<stop offset="0.39399" stop-color="#F9E475"/>
<stop offset="0.504894" stop-color="#EFD665"/>
<stop offset="0.635883" stop-color="#E0C04B"/>
<stop offset="0.74" stop-color="#E8C853"/>
<stop offset="0.808788" stop-color="#FCE97B"/>
<stop offset="0.87" stop-color="#F8E475"/>
<stop offset="0.9" stop-color="#EED465"/>
<stop offset="0.94" stop-color="#DDBB4B"/>
<stop offset="0.98" stop-color="#C59826"/>
<stop offset="1" stop-color="#BA8916"/>
</linearGradient>
<linearGradient id="paint7_linear_2932_7157" x1="2.5" y1="12.0007" x2="22.5004" y2="12.0007" gradientUnits="userSpaceOnUse">
<stop stop-color="#AB6E19"/>
<stop offset="0.01" stop-color="#B47B23"/>
<stop offset="0.06" stop-color="#CDA243"/>
<stop offset="0.121891" stop-color="#E2C15B"/>
<stop offset="0.171403" stop-color="#F0D76D"/>
<stop offset="0.232867" stop-color="#F9E477"/>
<stop offset="0.306282" stop-color="#FCE97B"/>
<stop offset="0.39399" stop-color="#F9E475"/>
<stop offset="0.504894" stop-color="#EFD665"/>
<stop offset="0.635883" stop-color="#E0C04B"/>
<stop offset="0.74" stop-color="#E8C853"/>
<stop offset="0.808788" stop-color="#FCE97B"/>
<stop offset="0.87" stop-color="#F8E475"/>
<stop offset="0.9" stop-color="#EED465"/>
<stop offset="0.94" stop-color="#DDBB4B"/>
<stop offset="0.98" stop-color="#C59826"/>
<stop offset="1" stop-color="#BA8916"/>
</linearGradient>
</defs>
</svg>
