<svg width="24" height="24" viewBox="0 0 24 24" fill="none" xmlns="http://www.w3.org/2000/svg">
<path fill-rule="evenodd" clip-rule="evenodd" d="M3.57231 12.0001C3.57231 7.34554 7.34554 3.57231 12.0001 3.57231C16.6546 3.57231 20.4278 7.34554 20.4278 12.0001C20.4278 16.6546 16.6546 20.4278 12.0001 20.4278C7.34554 20.4278 3.57231 16.6546 3.57231 12.0001ZM12.0001 2.03589C6.497 2.03589 2.03589 6.497 2.03589 12.0001C2.03589 17.5031 6.497 21.9642 12.0001 21.9642C17.5031 21.9642 21.9642 17.5031 21.9642 12.0001C21.9642 6.497 17.5031 2.03589 12.0001 2.03589ZM16.028 12.0003C16.028 11.2583 16.6292 10.6571 17.3723 10.6571C18.1137 10.6571 18.7155 11.2583 18.7155 12.0003C18.7155 12.7294 18.1336 13.3236 17.4083 13.343H17.3363C16.6099 13.3236 16.028 12.7294 16.028 12.0003ZM10.6564 12.0003C10.6564 11.2583 11.257 10.6571 11.9995 10.6571C12.7421 10.6571 13.3427 11.2583 13.3427 12.0003C13.3427 12.7294 12.7614 13.3236 12.0355 13.343H11.9635C11.2377 13.3236 10.6564 12.7294 10.6564 12.0003ZM5.28463 12.0003C5.28463 11.2583 5.88584 10.6571 6.62782 10.6571C7.37034 10.6571 7.97263 11.2583 7.97263 12.0003C7.97263 12.7294 7.39022 13.3236 6.66382 13.343H6.59183C5.8665 13.3236 5.28463 12.7294 5.28463 12.0003Z" fill="white"/>
</svg>
