<svg width="25" height="24" viewBox="0 0 25 24" fill="none" xmlns="http://www.w3.org/2000/svg">
<rect x="0.666992" width="24" height="24" rx="12" fill="#07A42E"/>
<path d="M19.7334 7.33341V10.0001C19.7334 10.1769 19.6631 10.3465 19.5381 10.4715C19.4131 10.5965 19.2435 10.6667 19.0667 10.6667C18.8899 10.6667 18.7203 10.5965 18.5953 10.4715C18.4703 10.3465 18.4 10.1769 18.4 10.0001V9.01341L14.2334 13.7734C14.1709 13.8445 14.094 13.9015 14.0078 13.9406C13.9216 13.9797 13.828 14 13.7334 14.0001C13.6418 14.0024 13.5508 13.9859 13.4659 13.9515C13.381 13.917 13.3041 13.8655 13.24 13.8001L11.7467 12.2934L7.5467 17.1067C7.49025 17.1768 7.4202 17.2348 7.34075 17.2771C7.26131 17.3193 7.17413 17.3451 7.08447 17.3528C6.9948 17.3605 6.90451 17.3499 6.81903 17.3218C6.73355 17.2937 6.65465 17.2485 6.58709 17.189C6.51953 17.1296 6.4647 17.0571 6.42592 16.9759C6.38714 16.8947 6.3652 16.8064 6.36143 16.7165C6.35765 16.6266 6.37212 16.5369 6.40397 16.4527C6.43581 16.3685 6.48436 16.2917 6.5467 16.2267L11.2134 10.8934C11.2734 10.8246 11.347 10.7689 11.4294 10.7297C11.5119 10.6905 11.6015 10.6687 11.6928 10.6655C11.7841 10.6624 11.875 10.6781 11.96 10.7115C12.0449 10.745 12.1221 10.7956 12.1867 10.8601L13.7334 12.3534L17.5134 8.00008H16.4C16.2232 8.00008 16.0537 7.92984 15.9286 7.80482C15.8036 7.67979 15.7334 7.51023 15.7334 7.33341C15.7334 7.1566 15.8036 6.98703 15.9286 6.86201C16.0537 6.73699 16.2232 6.66675 16.4 6.66675H19.0667C19.2435 6.66675 19.4131 6.73699 19.5381 6.86201C19.6631 6.98703 19.7334 7.1566 19.7334 7.33341Z" fill="white"/>
</svg>
