<svg width="25" height="24" viewBox="0 0 25 24" fill="none" xmlns="http://www.w3.org/2000/svg">
<rect x="0.333496" width="24" height="24" rx="12" fill="#C2180F"/>
<path d="M17.4212 18.7059H14.7546C14.5778 18.7059 14.4082 18.6356 14.2832 18.5106C14.1581 18.3856 14.0879 18.216 14.0879 18.0392C14.0879 17.8624 14.1581 17.6928 14.2832 17.5678C14.4082 17.4428 14.5778 17.3725 14.7546 17.3725H15.7412L10.9812 13.2059C10.9101 13.1434 10.8531 13.0665 10.814 12.9803C10.775 12.8941 10.7547 12.8005 10.7546 12.7059C10.7522 12.6143 10.7688 12.5232 10.8032 12.4384C10.8376 12.3535 10.8891 12.2766 10.9546 12.2125L12.4612 10.7192L7.6479 6.5192C7.57781 6.46275 7.51988 6.39269 7.47759 6.31325C7.4353 6.23381 7.40954 6.14663 7.40185 6.05696C7.39416 5.96729 7.40471 5.877 7.43285 5.79152C7.46099 5.70604 7.50615 5.62714 7.56561 5.55958C7.62506 5.49202 7.69757 5.4372 7.77878 5.39842C7.85999 5.35963 7.94821 5.33769 8.03813 5.33392C8.12804 5.33015 8.21779 5.34462 8.30196 5.37646C8.38614 5.4083 8.46299 5.45686 8.5279 5.5192L13.8612 10.1859C13.93 10.2459 13.9857 10.3194 14.0249 10.4019C14.0641 10.4844 14.086 10.574 14.0891 10.6653C14.0922 10.7566 14.0766 10.8475 14.0431 10.9324C14.0096 11.0174 13.9591 11.0946 13.8946 11.1592L12.4012 12.7059L16.7546 16.4859V15.3725C16.7546 15.1957 16.8248 15.0262 16.9498 14.9011C17.0748 14.7761 17.2444 14.7059 17.4212 14.7059C17.598 14.7059 17.7676 14.7761 17.8926 14.9011C18.0177 15.0262 18.0879 15.1957 18.0879 15.3725V18.0392C18.0879 18.216 18.0177 18.3856 17.8926 18.5106C17.7676 18.6356 17.598 18.7059 17.4212 18.7059Z" fill="white"/>
</svg>
