<svg width="24" height="24" viewBox="0 0 24 24" fill="none" xmlns="http://www.w3.org/2000/svg">
<path fill-rule="evenodd" clip-rule="evenodd" d="M20.1645 8.70225C19.4445 7.10225 18.2345 5.78225 16.7045 4.93225C15.1745 4.08225 13.4045 3.76225 11.6745 4.00225C9.94451 4.24225 8.34451 5.04225 7.10451 6.27225L4.87451 8.37225V5.59225C4.87451 5.11225 4.48451 4.71225 3.99451 4.71225C3.50451 4.71225 3.12451 5.10225 3.12451 5.59225V10.3922C3.12451 10.4322 3.14451 10.4722 3.14451 10.5122C3.15451 10.5822 3.15451 10.6522 3.18451 10.7122C3.20451 10.7722 3.25451 10.8222 3.28451 10.8722C3.31451 10.9122 3.32451 10.9522 3.35451 10.9822C3.35451 10.9822 3.36451 10.9822 3.36451 10.9922C3.42451 11.0422 3.47451 11.0722 3.53451 11.1122C3.57451 11.1422 3.61451 11.1722 3.65451 11.1922C3.68451 11.2022 3.71451 11.2022 3.74451 11.2122C3.82451 11.2422 3.90451 11.2622 3.98451 11.2622H3.99451H8.79451C9.27451 11.2622 9.67451 10.8722 9.67451 10.3822C9.67451 9.90225 9.28451 9.51225 8.79451 9.51225H6.20451L8.30451 7.54225C8.31451 7.53225 8.32451 7.53225 8.33451 7.52225C9.30451 6.55225 10.5645 5.92225 11.9145 5.73225C13.2745 5.54225 14.6545 5.79225 15.8545 6.46225C17.0545 7.13225 18.0045 8.16225 18.5645 9.41225C19.1245 10.6622 19.2645 12.0622 18.9545 13.4022C18.6545 14.7422 17.9245 15.9422 16.8745 16.8322C15.8245 17.7222 14.5245 18.2422 13.1545 18.3222C11.7845 18.4022 10.4245 18.0322 9.28451 17.2722C8.14451 16.5122 7.27451 15.4022 6.82451 14.1122C6.66451 13.6522 6.16451 13.4122 5.70451 13.5822C5.26451 13.7222 5.02451 14.2222 5.18451 14.6822C5.76451 16.3322 6.86451 17.7522 8.32451 18.7222C9.78451 19.6922 11.5145 20.1622 13.2645 20.0622C15.0145 19.9622 16.6845 19.2922 18.0145 18.1622C19.3545 17.0322 20.2845 15.4922 20.6745 13.7922C21.0645 12.0822 20.8845 10.2922 20.1645 8.70225Z" fill="url(#paint0_linear_3245_251524)"/>
<defs>
<linearGradient id="paint0_linear_3245_251524" x1="3.12451" y1="12.0007" x2="20.8759" y2="12.0007" gradientUnits="userSpaceOnUse">
<stop stop-color="#AB6E19"/>
<stop offset="0.01" stop-color="#B47B23"/>
<stop offset="0.06" stop-color="#CDA243"/>
<stop offset="0.121891" stop-color="#E2C15B"/>
<stop offset="0.171403" stop-color="#F0D76D"/>
<stop offset="0.232867" stop-color="#F9E477"/>
<stop offset="0.306282" stop-color="#FCE97B"/>
<stop offset="0.39399" stop-color="#F9E475"/>
<stop offset="0.504894" stop-color="#EFD665"/>
<stop offset="0.635883" stop-color="#E0C04B"/>
<stop offset="0.74" stop-color="#E8C853"/>
<stop offset="0.808788" stop-color="#FCE97B"/>
<stop offset="0.87" stop-color="#F8E475"/>
<stop offset="0.9" stop-color="#EED465"/>
<stop offset="0.94" stop-color="#DDBB4B"/>
<stop offset="0.98" stop-color="#C59826"/>
<stop offset="1" stop-color="#BA8916"/>
</linearGradient>
</defs>
</svg>
