<svg width="24" height="24" viewBox="0 0 24 24" fill="none" xmlns="http://www.w3.org/2000/svg">
<path d="M17.1594 1.30088C16.7733 0.905996 16.1402 0.898882 15.7453 1.28499C15.3504 1.67111 15.3433 2.30423 15.7294 2.69912L17.9792 5H7.55556C6.34 5 5.1789 5.49406 4.32639 6.36595C3.47462 7.23707 3 8.41389 3 9.63636V11.4545C3 12.0068 3.44772 12.4545 4 12.4545C4.55228 12.4545 5 12.0068 5 11.4545V9.63636C5 8.93 5.27458 8.25696 5.7564 7.76418C6.23748 7.27217 6.88512 7 7.55556 7H17.2681L15.7294 8.57361C15.3433 8.9685 15.3504 9.60162 15.7453 9.98773C16.1402 10.3738 16.7733 10.3667 17.1594 9.97185L20.715 6.33548C21.095 5.94685 21.095 5.32587 20.715 4.93725L17.1594 1.30088Z" fill="url(#paint0_linear_2721_9665)"/>
<path d="M8.25467 14.0123C8.64956 14.3984 8.65667 15.0315 8.27056 15.4264L6.37636 17.3636H16.4444C17.1149 17.3636 17.7625 17.0915 18.2436 16.5994C18.7254 16.1067 19 15.4336 19 14.7273V12.9091C19 12.3568 19.4477 11.9091 20 11.9091C20.5523 11.9091 21 12.3568 21 12.9091V14.7273C21 15.9497 20.5254 17.1266 19.6736 17.9977C18.8211 18.8696 17.66 19.3636 16.4444 19.3636H6.37637L8.27056 21.3009C8.65667 21.6958 8.64956 22.3289 8.25467 22.715C7.85979 23.1011 7.22666 23.094 6.84055 22.6991L3.28699 19.0648C3.27832 19.056 3.26981 19.047 3.26147 19.0379C3.18829 18.9578 3.13047 18.8687 3.08801 18.7745C3.03147 18.6491 3 18.5101 3 18.3636C3 18.2194 3.03055 18.0822 3.08554 17.9583C3.1326 17.8521 3.19909 17.7524 3.28499 17.6645L6.84055 14.0281C7.22666 13.6333 7.85979 13.6261 8.25467 14.0123Z" fill="url(#paint1_linear_2721_9665)"/>
<defs>
<linearGradient id="paint0_linear_2721_9665" x1="3" y1="12.0008" x2="21" y2="12.0008" gradientUnits="userSpaceOnUse">
<stop stop-color="#AB6E19"/>
<stop offset="0.01" stop-color="#B47B23"/>
<stop offset="0.06" stop-color="#CDA243"/>
<stop offset="0.121891" stop-color="#E2C15B"/>
<stop offset="0.171403" stop-color="#F0D76D"/>
<stop offset="0.232867" stop-color="#F9E477"/>
<stop offset="0.306282" stop-color="#FCE97B"/>
<stop offset="0.39399" stop-color="#F9E475"/>
<stop offset="0.504894" stop-color="#EFD665"/>
<stop offset="0.635883" stop-color="#E0C04B"/>
<stop offset="0.74" stop-color="#E8C853"/>
<stop offset="0.808788" stop-color="#FCE97B"/>
<stop offset="0.87" stop-color="#F8E475"/>
<stop offset="0.9" stop-color="#EED465"/>
<stop offset="0.94" stop-color="#DDBB4B"/>
<stop offset="0.98" stop-color="#C59826"/>
<stop offset="1" stop-color="#BA8916"/>
</linearGradient>
<linearGradient id="paint1_linear_2721_9665" x1="3" y1="12.0008" x2="21" y2="12.0008" gradientUnits="userSpaceOnUse">
<stop stop-color="#AB6E19"/>
<stop offset="0.01" stop-color="#B47B23"/>
<stop offset="0.06" stop-color="#CDA243"/>
<stop offset="0.121891" stop-color="#E2C15B"/>
<stop offset="0.171403" stop-color="#F0D76D"/>
<stop offset="0.232867" stop-color="#F9E477"/>
<stop offset="0.306282" stop-color="#FCE97B"/>
<stop offset="0.39399" stop-color="#F9E475"/>
<stop offset="0.504894" stop-color="#EFD665"/>
<stop offset="0.635883" stop-color="#E0C04B"/>
<stop offset="0.74" stop-color="#E8C853"/>
<stop offset="0.808788" stop-color="#FCE97B"/>
<stop offset="0.87" stop-color="#F8E475"/>
<stop offset="0.9" stop-color="#EED465"/>
<stop offset="0.94" stop-color="#DDBB4B"/>
<stop offset="0.98" stop-color="#C59826"/>
<stop offset="1" stop-color="#BA8916"/>
</linearGradient>
</defs>
</svg>
