<svg width="24" height="24" viewBox="0 0 24 24" fill="none" xmlns="http://www.w3.org/2000/svg">
<path fill-rule="evenodd" clip-rule="evenodd" d="M4.63009 3.43004C3.42077 3.43004 2.44043 4.41038 2.44043 5.6197V18.3803C2.44043 19.5896 3.42077 20.57 4.63009 20.57H19.3694C20.5787 20.57 21.5591 19.5896 21.5591 18.3803V5.6197C21.5591 4.41038 20.5787 3.43004 19.3694 3.43004H4.63009ZM6.62207 7.24348C5.81586 7.24348 5.1623 7.89704 5.1623 8.70325V15.2968C5.1623 16.103 5.81586 16.7565 6.62207 16.7565H17.3786C18.1848 16.7565 18.8384 16.103 18.8384 15.2968V8.70326C18.8384 7.89705 18.1848 7.24348 17.3786 7.24348H6.62207ZM9.26411 5.42294C9.26411 5.23941 9.41289 5.09062 9.59643 5.09062H14.404C14.5876 5.09062 14.7364 5.23941 14.7364 5.42294C14.7364 5.60647 14.5876 5.75526 14.404 5.75526H9.59643C9.41289 5.75526 9.26411 5.60647 9.26411 5.42294ZM11.0448 18.2448C10.8613 18.2448 10.7125 18.3935 10.7125 18.5771C10.7125 18.7606 10.8613 18.9094 11.0448 18.9094H12.9547C13.1383 18.9094 13.287 18.7606 13.287 18.5771C13.287 18.3935 13.1383 18.2448 12.9547 18.2448H11.0448Z" fill="white" fill-opacity="0.8"/>
<path fill-rule="evenodd" clip-rule="evenodd" d="M6.97371 8.01254C6.43624 8.01254 6.00053 8.44825 6.00053 8.98573V15.0143C6.00053 15.5518 6.43624 15.9875 6.97371 15.9875H17.0263C17.5638 15.9875 17.9995 15.5518 17.9995 15.0143V8.98573C17.9995 8.44825 17.5638 8.01254 17.0263 8.01254H6.97371ZM7.76843 10.9654C7.60035 10.9654 7.4641 11.1017 7.4641 11.2698C7.4641 11.4378 7.60035 11.5741 7.76843 11.5741H9.74954C9.91762 11.5741 10.0539 11.4378 10.0539 11.2698C10.0539 11.1017 9.91762 10.9654 9.74954 10.9654H7.76843ZM7.4641 12.7302C7.4641 12.5622 7.60035 12.4259 7.76843 12.4259H11.2397C11.4078 12.4259 11.5441 12.5622 11.5441 12.7302C11.5441 12.8983 11.4078 13.0346 11.2397 13.0346H7.76843C7.60035 13.0346 7.4641 12.8983 7.4641 12.7302ZM13.3289 10.1539C13.0601 10.1539 12.8423 10.3717 12.8423 10.6405V13.3595C12.8423 13.6282 13.0601 13.8461 13.3289 13.8461H16.0479C16.3166 13.8461 16.5345 13.6282 16.5345 13.3595V10.6405C16.5345 10.3717 16.3166 10.1539 16.0479 10.1539H13.3289Z" fill="white" fill-opacity="0.8"/>
</svg>
