<svg width="24" height="24" viewBox="0 0 24 24" fill="none" xmlns="http://www.w3.org/2000/svg">
<path fill-rule="evenodd" clip-rule="evenodd" d="M2.5 6.90244C2.5 4.47104 4.47104 2.5 6.90244 2.5H17.0976C19.529 2.5 21.5 4.47104 21.5 6.90244V17.0976C21.5 19.529 19.529 21.5 17.0976 21.5H6.90244C4.47104 21.5 2.5 19.529 2.5 17.0976V6.90244ZM6.90244 3.89024C5.23885 3.89024 3.89024 5.23885 3.89024 6.90244V17.0976C3.89024 18.7612 5.23885 20.1098 6.90244 20.1098H17.0976C18.7612 20.1098 20.1098 18.7612 20.1098 17.0976V6.90244C20.1098 5.23885 18.7612 3.89024 17.0976 3.89024H6.90244Z" fill="white" fill-opacity="0.4"/>
</svg>
