<svg width="88" height="88" viewBox="0 0 88 88" fill="none" xmlns="http://www.w3.org/2000/svg">
<path fill-rule="evenodd" clip-rule="evenodd" d="M43.9997 13.8313C27.3379 13.8313 13.8309 27.3383 13.8309 44C13.8309 60.6618 27.3379 74.1688 43.9997 74.1688C60.6614 74.1688 74.1684 60.6618 74.1684 44C74.1684 27.3383 60.6614 13.8313 43.9997 13.8313ZM7.33301 44C7.33301 23.7496 23.7492 7.33337 43.9997 7.33337C64.2501 7.33337 80.6663 23.7496 80.6663 44C80.6663 64.2505 64.2501 80.6667 43.9997 80.6667C23.7492 80.6667 7.33301 64.2505 7.33301 44Z" fill="url(#paint0_linear_2610_10075)"/>
<path fill-rule="evenodd" clip-rule="evenodd" d="M44.0001 29.1494C46.0508 29.1494 47.7132 30.8118 47.7132 32.8625V46.2296C47.7132 48.2803 46.0508 49.9427 44.0001 49.9427C41.9494 49.9427 40.287 48.2803 40.287 46.2296V32.8625C40.287 30.8118 41.9494 29.1494 44.0001 29.1494Z" fill="url(#paint1_linear_2610_10075)"/>
<path fill-rule="evenodd" clip-rule="evenodd" d="M40.287 57.366C40.287 55.3153 41.9494 53.6529 44.0001 53.6529H44.0335C46.0842 53.6529 47.7466 55.3153 47.7466 57.366C47.7466 59.4167 46.0842 61.0791 44.0335 61.0791H44.0001C41.9494 61.0791 40.287 59.4167 40.287 57.366Z" fill="url(#paint2_linear_2610_10075)"/>
<defs>
<linearGradient id="paint0_linear_2610_10075" x1="7.33301" y1="44.0027" x2="80.6663" y2="44.0027" gradientUnits="userSpaceOnUse">
<stop stop-color="#AB6E19"/>
<stop offset="0.01" stop-color="#B47B23"/>
<stop offset="0.06" stop-color="#CDA243"/>
<stop offset="0.121891" stop-color="#E2C15B"/>
<stop offset="0.171403" stop-color="#F0D76D"/>
<stop offset="0.232867" stop-color="#F9E477"/>
<stop offset="0.306282" stop-color="#FCE97B"/>
<stop offset="0.39399" stop-color="#F9E475"/>
<stop offset="0.504894" stop-color="#EFD665"/>
<stop offset="0.635883" stop-color="#E0C04B"/>
<stop offset="0.74" stop-color="#E8C853"/>
<stop offset="0.808788" stop-color="#FCE97B"/>
<stop offset="0.87" stop-color="#F8E475"/>
<stop offset="0.9" stop-color="#EED465"/>
<stop offset="0.94" stop-color="#DDBB4B"/>
<stop offset="0.98" stop-color="#C59826"/>
<stop offset="1" stop-color="#BA8916"/>
</linearGradient>
<linearGradient id="paint1_linear_2610_10075" x1="7.33301" y1="44.0027" x2="80.6663" y2="44.0027" gradientUnits="userSpaceOnUse">
<stop stop-color="#AB6E19"/>
<stop offset="0.01" stop-color="#B47B23"/>
<stop offset="0.06" stop-color="#CDA243"/>
<stop offset="0.121891" stop-color="#E2C15B"/>
<stop offset="0.171403" stop-color="#F0D76D"/>
<stop offset="0.232867" stop-color="#F9E477"/>
<stop offset="0.306282" stop-color="#FCE97B"/>
<stop offset="0.39399" stop-color="#F9E475"/>
<stop offset="0.504894" stop-color="#EFD665"/>
<stop offset="0.635883" stop-color="#E0C04B"/>
<stop offset="0.74" stop-color="#E8C853"/>
<stop offset="0.808788" stop-color="#FCE97B"/>
<stop offset="0.87" stop-color="#F8E475"/>
<stop offset="0.9" stop-color="#EED465"/>
<stop offset="0.94" stop-color="#DDBB4B"/>
<stop offset="0.98" stop-color="#C59826"/>
<stop offset="1" stop-color="#BA8916"/>
</linearGradient>
<linearGradient id="paint2_linear_2610_10075" x1="7.33301" y1="44.0027" x2="80.6663" y2="44.0027" gradientUnits="userSpaceOnUse">
<stop stop-color="#AB6E19"/>
<stop offset="0.01" stop-color="#B47B23"/>
<stop offset="0.06" stop-color="#CDA243"/>
<stop offset="0.121891" stop-color="#E2C15B"/>
<stop offset="0.171403" stop-color="#F0D76D"/>
<stop offset="0.232867" stop-color="#F9E477"/>
<stop offset="0.306282" stop-color="#FCE97B"/>
<stop offset="0.39399" stop-color="#F9E475"/>
<stop offset="0.504894" stop-color="#EFD665"/>
<stop offset="0.635883" stop-color="#E0C04B"/>
<stop offset="0.74" stop-color="#E8C853"/>
<stop offset="0.808788" stop-color="#FCE97B"/>
<stop offset="0.87" stop-color="#F8E475"/>
<stop offset="0.9" stop-color="#EED465"/>
<stop offset="0.94" stop-color="#DDBB4B"/>
<stop offset="0.98" stop-color="#C59826"/>
<stop offset="1" stop-color="#BA8916"/>
</linearGradient>
</defs>
</svg>
