<svg width="24" height="24" viewBox="0 0 24 24" fill="none" xmlns="http://www.w3.org/2000/svg">
<path d="M17.4344 3.90884C17.3274 3.89729 17.2187 3.89136 17.1086 3.89136H6.89136C6.7868 3.89136 6.68349 3.89671 6.58169 3.90715C5.15264 4.05852 4.02181 5.2092 3.90115 6.6472C3.89466 6.72773 3.89136 6.80916 3.89136 6.89136V17.1086C3.89136 17.1908 3.89466 17.2723 3.90115 17.3528C4.02181 18.7908 5.15259 19.9414 6.58159 20.0928C6.68342 20.1033 6.78676 20.1086 6.89136 20.1086H17.1086C17.2187 20.1086 17.3275 20.1027 17.4345 20.0912C18.8067 19.9385 19.9007 18.8641 20.0832 17.5011C20.1 17.3726 20.1086 17.2417 20.1086 17.1086V6.89136C20.1086 6.75836 20.1 6.62738 20.0832 6.49896C19.9007 5.13591 18.8067 4.06143 17.4344 3.90884Z" fill="white" fill-opacity="0.4"/>
<path fill-rule="evenodd" clip-rule="evenodd" d="M2.5 6.90244C2.5 4.47104 4.47104 2.5 6.90244 2.5H17.0976C19.529 2.5 21.5 4.47104 21.5 6.90244V17.0976C21.5 19.529 19.529 21.5 17.0976 21.5H6.90244C4.47104 21.5 2.5 19.529 2.5 17.0976V6.90244ZM6.90244 3.89024C5.23885 3.89024 3.89024 5.23885 3.89024 6.90244V17.0976C3.89024 18.7612 5.23885 20.1098 6.90244 20.1098H17.0976C18.7612 20.1098 20.1098 18.7612 20.1098 17.0976V6.90244C20.1098 5.23885 18.7612 3.89024 17.0976 3.89024H6.90244Z" fill="white" fill-opacity="0.4"/>
</svg>
