<svg width="24" height="24" viewBox="0 0 24 24" fill="none" xmlns="http://www.w3.org/2000/svg">
<path d="M9.23793 13.6787C9.23793 12.1832 10.4746 10.9708 12.0001 10.9708C13.5255 10.9708 14.7622 12.1832 14.7622 13.6787C14.7622 15.1743 13.5255 16.3867 12.0001 16.3867C10.4746 16.3867 9.23793 15.1743 9.23793 13.6787Z" fill="white" fill-opacity="0.8"/>
<path d="M7.24919 21.3718C7.24919 19.0866 9.13879 17.2341 11.4697 17.2341H12.5304C14.8613 17.2341 16.7509 19.0866 16.7509 21.3718C16.7509 21.7187 16.464 22 16.1101 22H7.89001C7.53609 22 7.24919 21.7187 7.24919 21.3718Z" fill="white" fill-opacity="0.8"/>
<path d="M17.9862 22H22.3592C22.7131 22 23 21.7187 23 21.3718C23 19.0866 21.1104 17.2341 18.7795 17.2341H17.7188C17.2563 17.2341 16.8111 17.307 16.3946 17.4418C17.4385 18.4334 18.09 19.8244 18.09 21.3718C18.09 21.5924 18.0534 21.8035 17.9862 22Z" fill="white" fill-opacity="0.8"/>
<path d="M15.862 15.0419C16.3409 15.8462 17.2307 16.3867 18.2491 16.3867C19.7746 16.3867 21.0113 15.1743 21.0113 13.6787C21.0113 12.1832 19.7746 10.9708 18.2491 10.9708C17.2307 10.9708 16.3409 11.5112 15.862 12.3155C16.0168 12.7406 16.1013 13.1994 16.1013 13.6787C16.1013 14.1581 16.0168 14.6169 15.862 15.0419Z" fill="white" fill-opacity="0.8"/>
<path d="M6.01376 22H1.64082C1.2869 22 1 21.7187 1 21.3718C1 19.0866 2.8896 17.2341 5.22054 17.2341H6.2812C6.74375 17.2341 7.18892 17.307 7.6054 17.4418C6.56151 18.4334 5.90999 19.8244 5.90999 21.3718C5.90999 21.5924 5.94655 21.8035 6.01376 22Z" fill="white" fill-opacity="0.8"/>
<path d="M8.13799 15.0419C7.65908 15.8462 6.76935 16.3867 5.75087 16.3867C4.22538 16.3867 2.98873 15.1743 2.98873 13.6787C2.98873 12.1832 4.22538 10.9708 5.75087 10.9708C6.76935 10.9708 7.65908 11.5112 8.13799 12.3155C7.9832 12.7406 7.89873 13.1994 7.89873 13.6787C7.89873 14.1581 7.9832 14.6169 8.13799 15.0419Z" fill="white" fill-opacity="0.8"/>
<path fill-rule="evenodd" clip-rule="evenodd" d="M7.24919 2C6.01659 2 5.01738 2.99129 5.01738 4.21412V5.91729C5.01738 7.14011 6.01659 8.1314 7.24919 8.1314H8.14192V9.528C8.14192 9.6997 8.24197 9.85593 8.39865 9.92888C8.55532 10.0018 8.74039 9.97834 8.87352 9.86862L10.9813 8.1314H12.4443L14.5521 9.86862C14.6853 9.97834 14.8703 10.0018 15.027 9.92888C15.1837 9.85593 15.2837 9.6997 15.2837 9.528V8.1314H16.1764C17.409 8.1314 18.4083 7.14011 18.4083 5.91729V4.21412C18.4083 2.99129 17.409 2 16.1764 2H7.24919ZM9.25782 5.98541C9.6276 5.98541 9.92737 5.68802 9.92737 5.32118C9.92737 4.95433 9.6276 4.65694 9.25782 4.65694C8.88804 4.65694 8.58828 4.95433 8.58828 5.32118C8.58828 5.68802 8.88804 5.98541 9.25782 5.98541ZM12.3824 5.32118C12.3824 5.68802 12.0826 5.98541 11.7128 5.98541C11.343 5.98541 11.0433 5.68802 11.0433 5.32118C11.0433 4.95433 11.343 4.65694 11.7128 4.65694C12.0826 4.65694 12.3824 4.95433 12.3824 5.32118ZM14.6142 5.32118C14.6142 5.68802 14.3144 5.98541 13.9446 5.98541C13.5749 5.98541 13.2751 5.68802 13.2751 5.32118C13.2751 4.95433 13.5749 4.65694 13.9446 4.65694C14.3144 4.65694 14.6142 4.95433 14.6142 5.32118Z" fill="white" fill-opacity="0.8"/>
</svg>
