<svg width="25" height="24" viewBox="0 0 25 24" fill="none" xmlns="http://www.w3.org/2000/svg">
<path d="M22.5002 5V9C22.5002 9.26522 22.3948 9.51957 22.2073 9.70711C22.0198 9.89464 21.7654 10 21.5002 10C21.235 10 20.9806 9.89464 20.7931 9.70711C20.6056 9.51957 20.5002 9.26522 20.5002 9V7.52L14.2502 14.66C14.1565 14.7667 14.0411 14.8522 13.9118 14.9108C13.7825 14.9694 13.6422 14.9998 13.5002 15C13.3629 15.0035 13.2263 14.9787 13.099 14.9271C12.9716 14.8755 12.8563 14.7982 12.7602 14.7L10.5202 12.44L4.2202 19.66C4.13553 19.7651 4.03044 19.852 3.91128 19.9155C3.79212 19.9789 3.66134 20.0175 3.52685 20.0291C3.39235 20.0406 3.25691 20.0248 3.12869 19.9826C3.00047 19.9404 2.88212 19.8726 2.78078 19.7834C2.67944 19.6943 2.5972 19.5855 2.53903 19.4637C2.48085 19.3419 2.44795 19.2095 2.44229 19.0747C2.43663 18.9398 2.45833 18.8052 2.50609 18.6789C2.55386 18.5526 2.62669 18.4374 2.7202 18.34L9.7202 10.34C9.81027 10.2368 9.92058 10.1532 10.0443 10.0944C10.168 10.0356 10.3025 10.0029 10.4394 9.99818C10.5762 9.99349 10.7126 10.017 10.8401 10.0672C10.9675 10.1174 11.0833 10.1932 11.1802 10.29L13.5002 12.53L19.1702 6H17.5002C17.235 6 16.9806 5.89464 16.7931 5.70711C16.6056 5.51957 16.5002 5.26522 16.5002 5C16.5002 4.73478 16.6056 4.48043 16.7931 4.29289C16.9806 4.10536 17.235 4 17.5002 4H21.5002C21.7654 4 22.0198 4.10536 22.2073 4.29289C22.3948 4.48043 22.5002 4.73478 22.5002 5Z" fill="white"/>
</svg>
