<svg width="36" height="36" viewBox="0 0 36 36" fill="none" xmlns="http://www.w3.org/2000/svg">
<g clip-path="url(#clip0_1866_12097)">
<path d="M18 36C27.9411 36 36 27.9411 36 18C36 8.05889 27.9411 0 18 0C8.05889 0 0 8.05889 0 18C0 27.9411 8.05889 36 18 36Z" fill="#34AADF"/>
<path d="M7.49172 17.8438C7.49172 17.8438 16.4917 14.1502 19.6131 12.8496C20.8096 12.3294 24.8674 10.6646 24.8674 10.6646C24.8674 10.6646 26.7403 9.93636 26.5842 11.7051C26.5321 12.4335 26.116 14.9826 25.6998 17.7398C25.0755 21.6415 24.3992 25.9074 24.3992 25.9074C24.3992 25.9074 24.2952 27.104 23.4108 27.312C22.5264 27.5201 21.0697 26.5838 20.8096 26.3756C20.6015 26.2196 16.9079 23.8785 15.5553 22.734C15.1911 22.4219 14.775 21.7976 15.6073 21.0693C17.4801 19.3525 19.7171 17.2196 21.0697 15.867C21.694 15.2427 22.3183 13.7861 19.7171 15.5548C16.0235 18.104 12.3819 20.497 12.3819 20.497C12.3819 20.497 11.5495 21.0172 9.98883 20.549C8.42808 20.0809 6.60727 19.4566 6.60727 19.4566C6.60727 19.4566 5.35879 18.6762 7.49172 17.8438Z" fill="white"/>
</g>
<defs>
<clipPath id="clip0_1866_12097">
<rect width="36" height="36" fill="white"/>
</clipPath>
</defs>
</svg>
