<svg width="24" height="24" viewBox="0 0 24 24" fill="none" xmlns="http://www.w3.org/2000/svg">
<path d="M19.0317 22.0588H15.0317C14.7665 22.0588 14.5122 21.9534 14.3246 21.7659C14.1371 21.5784 14.0317 21.324 14.0317 21.0588C14.0317 20.7936 14.1371 20.5392 14.3246 20.3517C14.5122 20.1642 14.7665 20.0588 15.0317 20.0588H16.5117L9.37175 13.8088C9.26508 13.7151 9.17959 13.5997 9.12096 13.4704C9.06234 13.3411 9.03193 13.2008 9.03175 13.0588C9.02824 12.9215 9.05307 12.7849 9.10468 12.6576C9.1563 12.5302 9.23359 12.4149 9.33175 12.3188L11.5917 10.0788L4.37175 3.7788C4.26662 3.69412 4.17972 3.58903 4.11629 3.46987C4.05286 3.35071 4.01421 3.21994 4.00268 3.08544C3.99115 2.95094 4.00696 2.8155 4.04918 2.68728C4.09139 2.55906 4.15913 2.44071 4.24831 2.33937C4.33749 2.23803 4.44626 2.1558 4.56808 2.09762C4.68989 2.03945 4.82222 2.00654 4.95709 2.00088C5.09197 1.99522 5.22659 2.01692 5.35285 2.06469C5.47911 2.11245 5.59439 2.18528 5.69175 2.2788L13.6917 9.2788C13.7949 9.36887 13.8785 9.47917 13.9373 9.60288C13.9961 9.72659 14.0289 9.86106 14.0336 9.99795C14.0383 10.1348 14.0148 10.2712 13.9646 10.3987C13.9144 10.5261 13.8385 10.6419 13.7417 10.7388L11.5017 13.0588L18.0317 18.7288V17.0588C18.0317 16.7936 18.1371 16.5392 18.3246 16.3517C18.5122 16.1642 18.7665 16.0588 19.0317 16.0588C19.297 16.0588 19.5513 16.1642 19.7389 16.3517C19.9264 16.5392 20.0317 16.7936 20.0317 17.0588V21.0588C20.0317 21.324 19.9264 21.5784 19.7389 21.7659C19.5513 21.9534 19.297 22.0588 19.0317 22.0588Z" fill="url(#paint0_linear_2302_36177)" fill-opacity="0.4"/>
<defs>
<linearGradient id="paint0_linear_2302_36177" x1="11.9399" y1="22.0811" x2="12.1155" y2="2.04706" gradientUnits="userSpaceOnUse">
<stop stop-color="#BA8916"/>
<stop offset="1" stop-color="#F4D131"/>
</linearGradient>
</defs>
</svg>
