<svg width="20" height="20" viewBox="0 0 20 20" fill="none" xmlns="http://www.w3.org/2000/svg">
<path d="M9.33333 13.8334L2.75 7.00008C2.58333 6.83342 2.5 6.66675 2.5 6.41675C2.5 5.91675 2.91667 5.58341 3.33333 5.58341C3.58333 5.58341 3.75 5.66675 3.91667 5.83342L10 12.0834L16 5.83342C16.1667 5.66675 16.4167 5.58341 16.6667 5.58341C17.1667 5.58341 17.5 6.00008 17.5 6.41675C17.5 6.66675 17.4167 6.83342 17.25 7.00008L10.6667 13.8334C10.5 14.0001 10.25 14.1667 10 14.1667C9.75 14.1667 9.5 14.0001 9.33333 13.8334Z" fill="url(#paint0_linear_1572_76703)"/>
<defs>
<linearGradient id="paint0_linear_1572_76703" x1="17.5167" y1="9.91551" x2="2.53628" y2="9.73213" gradientUnits="userSpaceOnUse">
<stop stop-color="#BA8916"/>
<stop offset="1" stop-color="#F4D131"/>
</linearGradient>
</defs>
</svg>
