<svg width="91" height="75" viewBox="0 0 91 75" fill="none" xmlns="http://www.w3.org/2000/svg">
<path d="M86.7329 50.1987V56.9284C86.7329 59.247 74.2915 61.1132 58.966 61.1132C43.6406 61.1132 31.1992 59.247 31.1992 56.9284V50.1987H86.7329Z" fill="#F3CC30"/>
<path d="M31.2637 50.082C31.2637 52.4006 43.705 54.2669 59.0305 54.2669C74.356 54.2669 86.7974 52.4006 86.7974 50.082C86.7974 47.7634 74.356 45.8972 59.0305 45.8972C43.6485 45.8407 31.2637 47.7634 31.2637 50.082Z" fill="#E7B816"/>
<path d="M36.916 49.6292C36.916 50.7037 46.8125 51.6085 58.9711 51.6085C71.1297 51.6085 81.0262 50.7602 81.0262 49.6292C81.0262 48.5547 71.1297 47.6499 58.9711 47.6499C46.8125 47.7065 36.916 48.5547 36.916 49.6292Z" fill="#F3CC30"/>
<path d="M80.0648 50.1947C77.2938 49.403 68.9242 48.7809 58.9711 48.7809C49.018 48.7809 40.5919 49.3465 37.8774 50.1947C37.2553 50.0251 36.916 49.7989 36.916 49.6292C36.916 48.5547 46.8125 47.6499 58.9711 47.6499C71.1297 47.6499 81.0262 48.4982 81.0262 49.6292C81.0262 49.8554 80.6869 50.0251 80.0648 50.1947Z" fill="#F3CC30"/>
<path d="M90.7533 42.6873V49.4169C90.7533 51.7355 78.312 53.6017 62.9865 53.6017C47.6611 53.6017 35.2197 51.7355 35.2197 49.4169V42.6873H90.7533Z" fill="#F3CC30"/>
<path d="M62.9865 46.7559C78.3217 46.7559 90.7533 44.8823 90.7533 42.571C90.7533 40.2598 78.3217 38.3862 62.9865 38.3862C47.6513 38.3862 35.2197 40.2598 35.2197 42.571C35.2197 44.8823 47.6513 46.7559 62.9865 46.7559Z" fill="#E7B816"/>
<path d="M40.9365 42.1192C40.9365 43.1937 50.8331 44.0985 62.9916 44.0985C75.1502 44.0985 85.0468 43.2502 85.0468 42.1192C85.0468 41.0447 75.1502 40.1399 62.9916 40.1399C50.8331 40.1399 40.9365 41.0447 40.9365 42.1192Z" fill="#F3CC30"/>
<path d="M84.1459 42.6847C81.3748 41.893 73.0052 41.2709 63.0522 41.2709C53.0991 41.2709 44.6729 41.8364 41.9584 42.6847C41.3364 42.5151 40.9971 42.2889 40.9971 42.1192C40.9971 41.0447 50.8936 40.1399 63.0522 40.1399C75.2107 40.1399 85.1072 40.9882 85.1072 42.1192C85.0507 42.2889 84.7114 42.5151 84.1459 42.6847Z" fill="#F3CC30"/>
<path d="M86.2281 35.0422V41.7719C86.2281 44.0905 73.7867 45.9567 58.4613 45.9567C43.1923 45.9567 30.751 44.0905 30.751 41.7719V35.0422H86.2281Z" fill="#F3CC30"/>
<path d="M30.751 34.9289C30.751 37.2475 43.1923 39.1137 58.5178 39.1137C73.8433 39.1137 86.2846 37.2475 86.2846 34.9289C86.2846 32.6103 73.8433 30.7441 58.5178 30.7441C43.1923 30.6876 30.751 32.6103 30.751 34.9289Z" fill="#E7B816"/>
<path d="M36.4697 34.4778C36.4697 35.5523 46.3662 36.4571 58.5248 36.4571C70.6834 36.4571 80.5799 35.6089 80.5799 34.4778C80.5799 33.4034 70.6834 32.4985 58.5248 32.4985C46.3097 32.4985 36.4697 33.4034 36.4697 34.4778Z" fill="#F3CC30"/>
<path d="M79.6185 35.0433C76.8475 34.2516 68.4779 33.6296 58.5248 33.6296C48.5717 33.6296 40.1456 34.1951 37.4311 35.0433C36.809 34.8737 36.4697 34.6475 36.4697 34.4778C36.4697 33.4034 46.3662 32.4985 58.5248 32.4985C70.6834 32.4985 80.5799 33.3468 80.5799 34.4778C80.5799 34.6475 80.2406 34.8737 79.6185 35.0433Z" fill="#F3CC30"/>
<path d="M84.31 27.3008V34.0304C84.31 36.349 71.8687 38.2152 56.5432 38.2152C41.2177 38.2152 28.7764 36.349 28.7764 34.0304V27.3008H84.31Z" fill="#F3CC30"/>
<path d="M28.7764 27.1846C28.7764 29.5032 41.2177 31.3694 56.5432 31.3694C71.8687 31.3694 84.31 29.5032 84.31 27.1846C84.31 24.866 71.8687 22.9998 56.5432 22.9998C41.2177 22.9998 28.7764 24.866 28.7764 27.1846Z" fill="#E7B816"/>
<path d="M34.4932 26.733C34.4932 27.8074 44.3897 28.7123 56.5483 28.7123C68.7068 28.7123 78.6033 27.864 78.6033 26.733C78.6033 25.6585 68.7068 24.7537 56.5483 24.7537C44.3897 24.8102 34.4932 25.6585 34.4932 26.733Z" fill="#F3CC30"/>
<path d="M77.642 27.2985C74.8709 26.5068 66.5013 25.8847 56.5483 25.8847C46.5952 25.8847 38.169 26.4502 35.4545 27.2985C34.8325 27.1288 34.4932 26.9026 34.4932 26.733C34.4932 25.6585 44.3897 24.7537 56.5483 24.7537C68.7068 24.7537 78.6033 25.6019 78.6033 26.733C78.6033 26.9592 78.264 27.1288 77.642 27.2985Z" fill="#F3CC30"/>
<path d="M90.936 19.7131V26.3862C90.936 28.7048 78.4947 30.571 63.1692 30.571C47.8437 30.571 35.4023 28.7048 35.4023 26.3862V19.7131H90.936Z" fill="#F3CC30"/>
<path d="M35.4668 19.5418C35.4668 21.8604 47.9081 23.7266 63.2336 23.7266C78.5591 23.7266 91.0005 21.8604 91.0005 19.5418C91.0005 17.2231 78.5591 15.3569 63.2336 15.3569C47.8516 15.3569 35.4668 17.2231 35.4668 19.5418Z" fill="#E7B816"/>
<path d="M63.1743 21.0695C75.355 21.0695 85.2294 20.1833 85.2294 19.0901C85.2294 17.997 75.355 17.1108 63.1743 17.1108C50.9936 17.1108 41.1191 17.997 41.1191 19.0901C41.1191 20.1833 50.9936 21.0695 63.1743 21.0695Z" fill="#F3CC30"/>
<path d="M84.268 19.716C81.497 18.9242 73.1274 18.3022 63.1743 18.3022C53.2212 18.3022 44.795 18.8677 42.0805 19.716C41.4585 19.5463 41.1191 19.3201 41.1191 19.1504C41.1191 18.076 51.0157 17.1711 63.1743 17.1711C75.3329 17.1711 85.2294 18.0194 85.2294 19.1504C85.2294 19.3201 84.8901 19.4898 84.268 19.716Z" fill="#F3CC30"/>
<path d="M85.5659 12.0789V18.8085C85.5659 21.1271 73.1245 22.9933 57.7991 22.9933C42.4736 22.9933 30.0322 21.1271 30.0322 18.8085V12.0789H85.5659Z" fill="#F3CC30"/>
<path d="M57.7991 16.093C73.1343 16.093 85.5659 14.2194 85.5659 11.9082C85.5659 9.59699 73.1343 7.72339 57.7991 7.72339C42.4639 7.72339 30.0322 9.59699 30.0322 11.9082C30.0322 14.2194 42.4639 16.093 57.7991 16.093Z" fill="#E7B816"/>
<path d="M35.751 11.5164C35.751 12.5909 45.6475 13.4957 57.8061 13.4957C69.9647 13.4957 79.8612 12.6474 79.8612 11.5164C79.8612 10.4419 69.9647 9.53711 57.8061 9.53711C45.6475 9.53711 35.751 10.3854 35.751 11.5164Z" fill="#F3CC30"/>
<path d="M78.9603 12.0819C76.1893 11.2902 67.8197 10.6681 57.8666 10.6681C47.9135 10.6681 39.4874 11.2337 36.7729 12.0819C36.1508 11.9123 35.8115 11.6861 35.8115 11.5164C35.8115 10.4419 45.708 9.53711 57.8666 9.53711C70.0252 9.53711 79.9217 10.3854 79.9217 11.5164C79.9217 11.6861 79.5824 11.8557 78.9603 12.0819Z" fill="#F3CC30"/>
<path d="M90.3667 4.45239V11.1255C90.3667 13.4441 77.9253 15.3103 62.5998 15.3103C47.2744 15.3103 34.833 13.4441 34.833 11.1255V4.45239H90.3667Z" fill="#F3CC30"/>
<path d="M34.8965 4.28101C34.8965 6.59962 47.3378 8.46583 62.6633 8.46583C77.9888 8.46583 90.4301 6.59962 90.4301 4.28101C90.4301 1.96239 77.9888 0.0961914 62.6633 0.0961914C47.3378 0.0961914 34.8965 1.96239 34.8965 4.28101Z" fill="#E7B816"/>
<path d="M40.5498 3.88971C40.5498 4.96419 50.4463 5.86902 62.6049 5.86902C74.7635 5.86902 84.66 5.02074 84.66 3.88971C84.66 2.81523 74.7635 1.9104 62.6049 1.9104C50.4463 1.9104 40.5498 2.81523 40.5498 3.88971Z" fill="#CE9200"/>
<path d="M83.7552 4.45522C80.9842 3.6635 72.6146 3.04143 62.6615 3.04143C52.7085 3.04143 44.2823 3.60695 41.5678 4.45522C40.9458 4.28557 40.6064 4.05936 40.6064 3.88971C40.6064 2.81523 50.503 1.9104 62.6615 1.9104C74.8201 1.9104 84.7166 2.75867 84.7166 3.88971C84.6601 4.05936 84.3773 4.22902 83.7552 4.45522Z" fill="#F3CC30"/>
<path opacity="0.5" d="M70.2871 57.0873C71.7574 53.468 72.6622 48.9439 72.8319 45.4377C73.6236 27.5109 65.0278 15.5219 50.7768 12.2419L45.4043 10.9978L34.2637 59.406C39.2968 60.4239 40.2016 70.6597 43.7078 69.9811C45.8002 69.5853 52.8126 67.8887 59.1464 65.4004C61.6347 64.2694 64.1795 63.3646 66.0457 61.8942C68.9864 59.6887 69.8347 58.1618 70.2871 57.0873Z" fill="#333333" fill-opacity="0.4"/>
<path d="M45.9672 11.1143L40.5948 9.87012L27.0225 68.9665L32.3949 70.2672C46.7024 73.5472 61.2927 62.9721 65.0817 46.6287C68.7575 30.2852 60.2182 14.3942 45.9672 11.1143Z" fill="#F3CC30"/>
<path d="M58.4909 45.1084C62.2425 28.7929 53.7107 12.9055 39.4347 9.6229C25.1587 6.34026 10.5444 16.9055 6.79284 33.2209C3.04126 49.5364 11.573 65.4238 25.849 68.7064C40.125 71.9891 54.7393 61.4239 58.4909 45.1084Z" fill="#E7B816"/>
<path d="M27.4807 62.804C16.849 60.3723 10.5717 48.044 13.4559 35.3765C16.3966 22.7089 27.4241 14.3958 38.0558 16.8275C48.6875 19.2593 54.9647 31.5875 52.0806 44.2551C49.1399 56.9226 38.1124 65.2357 27.4807 62.804Z" fill="#CE9200"/>
<path d="M27.3733 62.1175C16.685 59.6857 10.4078 47.4141 13.3485 34.6899C16.2891 22.0224 27.3167 13.7093 37.9484 16.141C48.5801 18.5727 54.8573 30.901 51.9166 43.5685C49.0325 56.2361 38.005 64.6057 27.3733 62.1175Z" fill="#F3CC30"/>
<path d="M29.6821 61.3942C19.0504 58.9625 12.7732 46.6342 15.6573 33.9667C17.6366 25.4274 23.2918 18.8674 30.0214 16.2095C22.2738 18.1322 15.5442 25.2012 13.3387 34.7018C10.398 47.3694 16.7318 59.6976 27.3635 62.1294C30.8131 62.9211 34.3193 62.5818 37.5993 61.3376C34.9979 61.9597 32.34 62.0163 29.6821 61.3942Z" fill="#A98005"/>
<path d="M39.8135 27.2227C39.9039 27.0078 39.8698 26.7703 39.8018 26.5781C39.6885 26.3519 39.5074 26.2163 39.2925 26.126L35.3781 24.7489C35.1632 24.6586 34.9257 24.6927 34.7335 24.7607C34.5073 24.874 34.3717 25.055 34.3153 25.2247L33.5025 27.4421C32.5185 27.341 31.591 27.353 30.7655 27.512C29.94 27.6709 29.1258 27.909 28.4927 28.2827C27.8143 28.6225 27.2378 29.1092 26.7519 29.6638C26.2659 30.2183 25.8705 30.8407 25.6448 31.5195C25.0013 33.2278 24.9798 34.766 25.5802 36.1341C26.1806 37.5022 27.4144 38.7794 29.2814 39.9657C30.2998 40.587 31.1485 41.1519 31.8952 41.5699C32.642 41.9878 33.2305 42.4285 33.6831 42.7675C34.1358 43.1065 34.464 43.4229 34.6339 43.7621C34.8377 44.056 34.8379 44.3388 34.7589 44.6329C34.5218 45.2325 34.0357 45.5043 33.2666 45.4936C32.4975 45.4828 31.5359 45.2573 30.4725 44.8848C29.8729 44.6477 29.3977 44.4332 29.0356 44.162C28.6734 43.8908 28.3905 43.6082 28.1867 43.3143C27.9829 43.0204 27.8244 42.7604 27.7111 42.5342C27.5978 42.3081 27.5298 42.1159 27.4732 42.0028C27.3599 41.7767 27.258 41.6297 27.1222 41.528C26.9865 41.4263 26.8054 41.2907 26.5113 41.2118L22.5969 39.8347C22.4272 39.7783 22.2689 39.801 22.0767 39.869C21.8844 39.937 21.7827 40.0728 21.7263 40.2425C21.5345 40.876 21.4671 41.5321 21.5694 42.2445C21.6717 42.957 21.8532 43.6581 22.2382 44.3704C22.6233 45.0827 23.0875 45.7836 23.71 46.4618C24.3326 47.1399 25.0682 47.7615 25.9622 48.3603L25.1494 50.5777C25.0591 50.7927 25.0932 51.0302 25.1612 51.2224C25.2744 51.4485 25.4555 51.5841 25.6705 51.6744L29.5848 53.0515C29.7998 53.1418 30.0373 53.1077 30.2295 53.0397C30.4556 52.9265 30.5912 52.7454 30.6476 52.5757L31.3926 50.4488C32.4333 50.663 33.406 50.6849 34.3673 50.6277C35.3287 50.5704 36.1881 50.3662 36.9457 50.0151C37.7032 49.6639 38.3702 49.245 38.9692 48.6338C39.5343 48.0679 39.9523 47.3211 40.2797 46.5065C40.6297 45.5675 40.7874 44.6965 40.719 43.9388C40.6845 43.1357 40.503 42.4346 40.1179 41.7224C39.7329 41.0101 39.2348 40.3544 38.4992 39.7329C37.7974 39.0661 36.9488 38.5012 35.9304 37.8798C34.912 37.2585 34.0747 36.7727 33.4071 36.3434C32.7395 35.9141 32.1624 35.5526 31.7889 35.2022C31.4154 34.8519 31.1325 34.5693 31.0531 34.2979C30.8946 34.0379 30.8944 33.7552 31.0525 33.4497C31.1314 33.1555 31.3009 32.9292 31.561 32.7707C31.821 32.6122 32.0585 32.5781 32.3751 32.5326C32.6579 32.5324 33.0198 32.5208 33.3592 32.6337C33.7325 32.7013 34.0719 32.8141 34.4565 32.9609C34.9656 33.1302 35.3616 33.3561 35.6785 33.5934C35.9954 33.8307 36.2331 34.0794 36.4255 34.2941C36.6179 34.5089 36.7312 34.735 36.7992 34.9272C36.8672 35.1194 36.9238 35.2325 36.9804 35.3456C37.0937 35.5717 37.2409 35.7526 37.3428 35.8995C37.4447 36.0465 37.7049 36.1707 37.999 36.2497L41.9134 37.6267C42.0831 37.6832 42.2414 37.6604 42.4336 37.5924C42.6258 37.5244 42.7275 37.3886 42.784 37.219C42.9533 36.7099 42.9868 36.0991 42.8506 35.4319C42.7596 34.7986 42.5329 34.0636 42.1931 33.3852C41.8533 32.7068 41.3891 32.0059 40.8118 31.3616C40.2345 30.7173 39.4989 30.0958 38.6955 29.5648L39.8135 27.2227Z" fill="#A98005"/>
<path d="M40.6524 27.14C40.7427 26.925 40.7086 26.6875 40.6406 26.4953C40.5274 26.2692 40.3463 26.1336 40.1314 26.0433L36.217 24.6662C36.002 24.5759 35.7645 24.61 35.5723 24.678C35.3462 24.7912 35.2106 24.9723 35.1542 25.142L34.3414 27.3594C33.3573 27.2583 32.4299 27.2703 31.6044 27.4292C30.7788 27.5881 29.9646 27.8262 29.3315 28.1999C28.6532 28.5397 28.0767 29.0265 27.5907 29.581C27.1048 30.1356 26.7094 30.7579 26.4836 31.4367C25.8402 33.145 25.8186 34.6832 26.4191 36.0514C27.0195 37.4195 28.2532 38.6967 30.1203 39.8829C31.1386 40.5043 31.9873 41.0692 32.7341 41.4871C33.4809 41.9051 34.0693 42.3457 34.522 42.6847C34.9746 43.0237 35.3029 43.3402 35.4728 43.6794C35.6766 43.9733 35.6768 44.256 35.5978 44.5502C35.3607 45.1498 34.8746 45.4216 34.1054 45.4108C33.3363 45.4001 32.3748 45.1745 31.3114 44.8021C30.7117 44.565 30.2366 44.3504 29.8744 44.0792C29.5123 43.808 29.2294 43.5255 29.0256 43.2315C28.8218 42.9376 28.6632 42.6776 28.55 42.4515C28.4367 42.2253 28.3687 42.0331 28.3121 41.9201C28.1988 41.6939 28.0969 41.547 27.9611 41.4453C27.8253 41.3436 27.6443 41.208 27.3501 41.129L23.4358 39.7519C23.2661 39.6955 23.1078 39.7183 22.9155 39.7863C22.7233 39.8543 22.6216 39.99 22.5652 40.1597C22.3734 40.7933 22.306 41.4493 22.4083 42.1618C22.5106 42.8743 22.692 43.5754 23.0771 44.2876C23.4621 44.9999 23.9264 45.7008 24.5489 46.379C25.1715 47.0572 25.9071 47.6787 26.801 48.2775L25.9883 50.4949C25.8979 50.7099 25.932 50.9474 26 51.1396C26.1133 51.3657 26.2944 51.5013 26.5093 51.5917L30.4237 52.9687C30.6386 53.0591 30.8761 53.025 31.0683 52.957C31.2945 52.8437 31.4301 52.6626 31.4865 52.4929L32.2315 50.3661C33.2722 50.5802 34.2449 50.6022 35.2062 50.5449C36.1675 50.4877 37.027 50.2835 37.7845 49.9323C38.5421 49.5812 39.2091 49.1622 39.8081 48.551C40.3732 47.9851 40.7911 47.2383 41.1186 46.4237C41.4685 45.4847 41.6262 44.6137 41.5578 43.856C41.5233 43.053 41.3419 42.3519 40.9568 41.6396C40.5718 40.9273 40.0736 40.2717 39.338 39.6501C38.6363 38.9833 37.7876 38.4184 36.7693 37.7971C35.7509 37.1757 34.9136 36.69 34.246 36.2607C33.5783 35.8314 33.0013 35.4698 32.6278 35.1195C32.2543 34.7691 31.9713 34.4866 31.892 34.2152C31.7334 33.9552 31.7332 33.6724 31.8914 33.3669C31.9703 33.0728 32.1398 32.8465 32.3998 32.6879C32.6599 32.5294 32.8973 32.4953 33.214 32.4498C33.4968 32.4496 33.8587 32.4381 34.1981 32.5509C34.5714 32.6185 34.9108 32.7314 35.2954 32.8781C35.8045 33.0474 36.2005 33.2733 36.5174 33.5106C36.8342 33.7479 37.0719 33.9966 37.2644 34.2113C37.4568 34.4261 37.57 34.6522 37.638 34.8445C37.706 35.0367 37.7627 35.1497 37.8193 35.2628C37.9326 35.4889 38.0797 35.6698 38.1816 35.8168C38.2835 35.9637 38.5438 36.0879 38.8379 36.1669L42.7522 37.544C42.9219 37.6004 43.0803 37.5777 43.2725 37.5097C43.4647 37.4417 43.5664 37.3059 43.6228 37.1362C43.7921 36.6271 43.8256 36.0163 43.6894 35.3491C43.5985 34.7158 43.3718 33.9808 43.032 33.3024C42.6922 32.624 42.228 31.9231 41.6507 31.2788C41.0734 30.6346 40.3378 30.013 39.5344 29.482L40.6524 27.14Z" fill="#FFFDF3"/>
<path d="M7.57205 34.3539C11.3045 18.0105 25.9513 7.43536 40.2589 10.7154C46.1968 12.0726 51.1733 15.6353 54.6795 20.5553C51.1168 15.1264 45.8575 11.0547 39.4106 9.58432C25.1596 6.30432 10.5127 16.8795 6.78032 33.2229C4.57481 42.7236 6.61067 52.1112 11.4741 58.9539C7.17618 52.2243 5.47964 43.3457 7.57205 34.3539Z" fill="#CE9200"/>
</svg>
