<svg width="26" height="26" viewBox="0 0 26 26" fill="none" xmlns="http://www.w3.org/2000/svg">
<g opacity="0.8">
<path style="mix-blend-mode:screen" d="M14.4748 12.9525C14.7217 15.1143 14.883 17.2366 14.9381 19.0511C14.9933 20.8656 14.9399 22.2907 14.7847 23.1463C14.6296 24.0019 14.3795 24.2494 14.0663 23.8576C13.7531 23.4658 13.3907 22.4523 13.025 20.9452C12.6594 19.4382 12.3068 17.5052 12.012 15.391C11.7171 13.2767 11.4932 11.076 11.3686 9.06724C11.244 7.0585 11.2242 5.33194 11.3118 4.10593C11.3995 2.87992 11.5905 2.20954 11.8608 2.17958C12.0402 2.15909 12.2501 2.42152 12.4786 2.95187C12.707 3.48223 12.9496 4.27012 13.1923 5.27054C13.435 6.27096 13.6732 7.4643 13.8933 8.7824C14.1133 10.1005 14.3109 11.5175 14.4748 12.9525Z" fill="url(#paint0_radial_1585_73620)"/>
<path style="mix-blend-mode:screen" d="M12.9528 11.7425C15.1145 11.4956 17.2368 11.3343 19.0513 11.2792C20.8658 11.224 22.291 11.2774 23.1466 11.4325C24.0021 11.5877 24.2497 11.8377 23.8579 12.151C23.4661 12.4642 22.4526 12.8266 20.9455 13.1922C19.4384 13.5579 17.5055 13.9105 15.3912 14.2053C13.2769 14.5002 11.0762 14.7241 9.06748 14.8487C7.05874 14.9733 5.33218 14.9931 4.10617 14.9054C2.88017 14.8178 2.20979 14.6268 2.17982 14.3565C2.15933 14.1771 2.42176 13.9672 2.95212 13.7387C3.48248 13.5103 4.27037 13.2677 5.27079 13.025C6.27121 12.7822 7.46455 12.544 8.78265 12.324C10.1007 12.1039 11.5178 11.9064 12.9528 11.7425Z" fill="url(#paint1_radial_1585_73620)"/>
</g>
<defs>
<radialGradient id="paint0_radial_1585_73620" cx="0" cy="0" r="1" gradientUnits="userSpaceOnUse" gradientTransform="translate(13.1087 13.1086) rotate(-6.5166) scale(1.375 11)">
<stop stop-color="white"/>
<stop offset="0.01" stop-color="#FFFDF7"/>
<stop offset="0.02" stop-color="#FFF7E2"/>
<stop offset="0.03" stop-color="#FFEDBE"/>
<stop offset="0.04" stop-color="#FFDF8E"/>
<stop offset="0.05" stop-color="#FFCD4F"/>
<stop offset="0.07" stop-color="#FFB700"/>
<stop offset="0.12" stop-color="#FFA400"/>
<stop offset="0.16" stop-color="#FF9100"/>
<stop offset="0.23" stop-color="#D07600"/>
<stop offset="0.3" stop-color="#A05B00"/>
<stop offset="0.38" stop-color="#754200"/>
<stop offset="0.46" stop-color="#512E00"/>
<stop offset="0.55" stop-color="#331D00"/>
<stop offset="0.64" stop-color="#1D1000"/>
<stop offset="0.74" stop-color="#0C0700"/>
<stop offset="0.85" stop-color="#030200"/>
<stop offset="1"/>
</radialGradient>
<radialGradient id="paint1_radial_1585_73620" cx="0" cy="0" r="1" gradientUnits="userSpaceOnUse" gradientTransform="translate(13.1088 13.1086) rotate(-96.5166) scale(1.375 11)">
<stop stop-color="white"/>
<stop offset="0.01" stop-color="#FFFDF7"/>
<stop offset="0.02" stop-color="#FFF7E2"/>
<stop offset="0.03" stop-color="#FFEDBE"/>
<stop offset="0.04" stop-color="#FFDF8E"/>
<stop offset="0.05" stop-color="#FFCD4F"/>
<stop offset="0.07" stop-color="#FFB700"/>
<stop offset="0.12" stop-color="#FFA400"/>
<stop offset="0.16" stop-color="#FF9100"/>
<stop offset="0.23" stop-color="#D07600"/>
<stop offset="0.3" stop-color="#A05B00"/>
<stop offset="0.38" stop-color="#754200"/>
<stop offset="0.46" stop-color="#512E00"/>
<stop offset="0.55" stop-color="#331D00"/>
<stop offset="0.64" stop-color="#1D1000"/>
<stop offset="0.74" stop-color="#0C0700"/>
<stop offset="0.85" stop-color="#030200"/>
<stop offset="1"/>
</radialGradient>
</defs>
</svg>
