<svg width="56" height="56" viewBox="0 0 56 56" fill="none" xmlns="http://www.w3.org/2000/svg">
<rect width="56" height="56" rx="28" fill="url(#paint0_linear_1655_104873)"/>
<path d="M34.9548 23.347C35.5958 22.7838 35.9602 21.9667 35.9602 21.1073V16.5686H37.6359C38.0967 16.5686 38.4737 16.1875 38.4737 15.7218C38.4737 15.2561 38.0967 14.875 37.6359 14.875H18.3652C17.9044 14.875 17.5273 15.2561 17.5273 15.7218C17.5273 16.1875 17.9044 16.5686 18.3652 16.5686H20.0409V21.5222C20.0409 22.3859 20.4096 23.2073 21.0589 23.7704L24.779 27.0304C25.0597 27.276 25.2189 27.6232 25.2189 28C25.2189 28.3768 25.0639 28.724 24.779 28.9696L21.0589 32.2254C20.4096 32.7927 20.0409 33.6141 20.0409 34.4778V39.4314H18.3652C17.9044 39.4314 17.5273 39.8125 17.5273 40.2782C17.5273 40.7439 17.9044 41.125 18.3652 41.125H37.6359C38.0967 41.125 38.4737 40.7439 38.4737 40.2782C38.4737 39.8125 38.0967 39.4314 37.6359 39.4314H35.9602V34.8927C35.9602 34.0333 35.5915 33.2162 34.9548 32.653L30.7823 28.9653C30.5016 28.7197 30.3508 28.3768 30.3508 28C30.3508 27.6232 30.5058 27.2803 30.7823 27.0347L34.9548 23.347ZM29.6804 30.2396L33.8529 33.9274C34.1295 34.1729 34.2844 34.5243 34.2844 34.8927V39.4313H21.7166V34.4777C21.7166 34.1051 21.8758 33.7537 22.1523 33.5082L25.8724 30.2523C26.5176 29.685 26.8904 28.8679 26.8904 28.0042C26.8904 27.1404 26.5217 26.3191 25.8724 25.756L22.1523 22.4959C21.8758 22.2503 21.7166 21.8947 21.7166 21.5222V16.5685H34.2845V21.1072C34.2845 21.4755 34.1253 21.8269 33.8488 22.0725L29.6762 25.7602C29.0394 26.3233 28.6708 27.1404 28.6708 27.9999C28.6708 28.8594 29.0395 29.6765 29.6804 30.2396Z" fill="#1D1B18"/>
<path d="M33.4466 21.1072V20.4298C33.4466 20.1673 33.2371 19.9556 32.9816 19.9556H23.0195C22.7639 19.9556 22.5545 20.1673 22.5545 20.4256V21.5221C22.5545 21.772 22.6634 22.009 22.8477 22.17L26.5092 25.3792C26.9616 25.7772 27.3345 26.2726 27.5314 26.8441C28.009 28.2159 27.5901 29.6724 26.5679 30.5657L22.8478 33.8257C22.6635 33.9909 22.5545 34.2237 22.5545 34.4735V38.2036C22.5545 38.4152 22.7221 38.5846 22.9274 38.5846H33.0739C33.2791 38.5846 33.4467 38.4152 33.4467 38.2078V34.8927C33.4467 34.6429 33.342 34.41 33.1577 34.2449L29.0564 30.6165C28.6081 30.2185 28.2395 29.7274 28.0383 29.16C27.5566 27.7925 27.9713 26.3403 28.9851 25.4385L33.1577 21.7508C33.3419 21.5899 33.4466 21.3528 33.4466 21.1072Z" fill="#1D1B18"/>
<defs>
<linearGradient id="paint0_linear_1655_104873" x1="0" y1="28.002" x2="56" y2="28.002" gradientUnits="userSpaceOnUse">
<stop stop-color="#AB6E19"/>
<stop offset="0.01" stop-color="#B47B23"/>
<stop offset="0.06" stop-color="#CDA243"/>
<stop offset="0.121891" stop-color="#E2C15B"/>
<stop offset="0.171403" stop-color="#F0D76D"/>
<stop offset="0.232867" stop-color="#F9E477"/>
<stop offset="0.306282" stop-color="#FCE97B"/>
<stop offset="0.39399" stop-color="#F9E475"/>
<stop offset="0.504894" stop-color="#EFD665"/>
<stop offset="0.635883" stop-color="#E0C04B"/>
<stop offset="0.74" stop-color="#E8C853"/>
<stop offset="0.808788" stop-color="#FCE97B"/>
<stop offset="0.87" stop-color="#F8E475"/>
<stop offset="0.9" stop-color="#EED465"/>
<stop offset="0.94" stop-color="#DDBB4B"/>
<stop offset="0.98" stop-color="#C59826"/>
<stop offset="1" stop-color="#BA8916"/>
</linearGradient>
</defs>
</svg>
