<svg width="52" height="52" viewBox="0 0 52 52" fill="none" xmlns="http://www.w3.org/2000/svg">
<path style="mix-blend-mode:screen" d="M27.701 24.4731C29.8409 27.4415 31.8227 30.4226 33.3957 33.0392C34.9687 35.6559 36.0623 37.7906 36.5381 39.1734C37.014 40.5562 36.8508 41.1249 36.0691 40.8077C35.2874 40.4905 33.9223 39.3015 32.1466 37.3912C30.3708 35.4809 28.2641 32.9351 26.093 30.0757C23.9218 27.2163 21.7837 24.1718 19.9491 21.3273C18.1145 18.4828 16.6658 15.966 15.7862 14.0953C14.9066 12.2246 14.6356 11.084 15.0075 10.8178C15.2538 10.6402 15.7776 10.8526 16.5489 11.4428C17.3201 12.0331 18.3238 12.9895 19.5026 14.2576C20.6814 15.5257 22.0121 17.0806 23.4188 18.8334C24.8255 20.5862 26.2806 22.5026 27.701 24.4731V24.4731Z" fill="url(#paint0_radial_1585_73623)"/>
<path style="mix-blend-mode:screen" d="M24.4734 23.9496C27.4418 21.8097 30.4228 19.828 33.0395 18.255C35.6561 16.682 37.7908 15.5884 39.1736 15.1125C40.5564 14.6366 41.1252 14.7999 40.808 15.5816C40.4907 16.3633 39.3018 17.7283 37.3915 19.5041C35.4812 21.2798 32.9353 23.3865 30.0759 25.5576C27.2166 27.7288 24.1721 29.8669 21.3276 31.7015C18.4831 33.5361 15.9663 34.9849 14.0956 35.8645C12.2249 36.7441 11.0843 37.015 10.818 36.6431C10.6405 36.3968 10.8529 35.873 11.4431 35.1018C12.0333 34.3305 12.9898 33.3268 14.2579 32.148C15.526 30.9693 17.0808 29.6385 18.8336 28.2318C20.5864 26.8251 22.5028 25.37 24.4734 23.9496V23.9496Z" fill="url(#paint1_radial_1585_73623)"/>
<defs>
<radialGradient id="paint0_radial_1585_73623" cx="0" cy="0" r="1" gradientUnits="userSpaceOnUse" gradientTransform="translate(25.8251 25.8254) rotate(-35.7873) scale(2.3125 18.5)">
<stop stop-color="white"/>
<stop offset="0.01" stop-color="#FFFDF7"/>
<stop offset="0.02" stop-color="#FFF7E2"/>
<stop offset="0.03" stop-color="#FFEDBE"/>
<stop offset="0.04" stop-color="#FFDF8E"/>
<stop offset="0.05" stop-color="#FFCD4F"/>
<stop offset="0.07" stop-color="#FFB700"/>
<stop offset="0.12" stop-color="#FFA400"/>
<stop offset="0.16" stop-color="#FF9100"/>
<stop offset="0.23" stop-color="#D07600"/>
<stop offset="0.3" stop-color="#A05B00"/>
<stop offset="0.38" stop-color="#754200"/>
<stop offset="0.46" stop-color="#512E00"/>
<stop offset="0.55" stop-color="#331D00"/>
<stop offset="0.64" stop-color="#1D1000"/>
<stop offset="0.74" stop-color="#0C0700"/>
<stop offset="0.85" stop-color="#030200"/>
<stop offset="1"/>
</radialGradient>
<radialGradient id="paint1_radial_1585_73623" cx="0" cy="0" r="1" gradientUnits="userSpaceOnUse" gradientTransform="translate(25.8257 25.8255) rotate(-125.787) scale(2.3125 18.5)">
<stop stop-color="white"/>
<stop offset="0.01" stop-color="#FFFDF7"/>
<stop offset="0.02" stop-color="#FFF7E2"/>
<stop offset="0.03" stop-color="#FFEDBE"/>
<stop offset="0.04" stop-color="#FFDF8E"/>
<stop offset="0.05" stop-color="#FFCD4F"/>
<stop offset="0.07" stop-color="#FFB700"/>
<stop offset="0.12" stop-color="#FFA400"/>
<stop offset="0.16" stop-color="#FF9100"/>
<stop offset="0.23" stop-color="#D07600"/>
<stop offset="0.3" stop-color="#A05B00"/>
<stop offset="0.38" stop-color="#754200"/>
<stop offset="0.46" stop-color="#512E00"/>
<stop offset="0.55" stop-color="#331D00"/>
<stop offset="0.64" stop-color="#1D1000"/>
<stop offset="0.74" stop-color="#0C0700"/>
<stop offset="0.85" stop-color="#030200"/>
<stop offset="1"/>
</radialGradient>
</defs>
</svg>
