<svg width="56" height="56" viewBox="0 0 56 56" fill="none" xmlns="http://www.w3.org/2000/svg">
<rect width="56" height="56" rx="28" fill="url(#paint0_linear_1572_76826)"/>
<path d="M33.3027 20.9662L31.1668 17.3071C31.0652 17.1331 30.8982 17.0063 30.703 16.956C30.5088 16.9077 30.3006 16.9359 30.1275 17.0395L23.5981 20.9572L33.3027 20.9662Z" fill="#1D1B18"/>
<path d="M18.946 21.9632C18.3926 21.9632 17.9399 21.5105 17.9399 20.9572C17.9399 20.4038 18.3926 19.9511 18.946 19.9511H22.3364L25.6967 17.9389H18.946C17.457 17.9389 16.2195 19.0255 15.978 20.4541C15.9579 20.5346 15.9277 20.6151 15.9277 20.7056V36.0483C15.9277 37.7083 17.2859 39.0665 18.946 39.0665H36.0492C37.1559 39.0665 38.0614 38.1611 38.0614 37.0544V35.0422H35.5462C33.0511 35.0422 31.0189 33.0099 31.0189 30.5149C31.0189 28.0198 33.0511 25.9875 35.5462 25.9875H38.0614V23.9754C38.0614 22.8687 37.1559 21.9632 36.0492 21.9632H18.946ZM35.0432 19.9511C35.0432 18.9349 34.2886 18.0898 33.3027 17.9591L35.0432 20.9572V19.9511Z" fill="#1D1B18"/>
<path d="M39.319 27.4967H35.5462C33.8822 27.4967 32.528 28.8508 32.528 30.5149C32.528 32.1789 33.8822 33.5331 35.5462 33.5331H39.319C39.7355 33.5331 40.0736 33.1951 40.0736 32.7786V28.2512C40.0736 27.8347 39.7355 27.4967 39.319 27.4967ZM35.5462 31.521C34.9909 31.521 34.5402 31.0702 34.5402 30.5149C34.5402 29.9595 34.9909 29.5088 35.5462 29.5088C36.1016 29.5088 36.5523 29.9595 36.5523 30.5149C36.5523 31.0702 36.1016 31.521 35.5462 31.521Z" fill="#1D1B18"/>
<defs>
<linearGradient id="paint0_linear_1572_76826" x1="0" y1="28.002" x2="56" y2="28.002" gradientUnits="userSpaceOnUse">
<stop stop-color="#AB6E19"/>
<stop offset="0.01" stop-color="#B47B23"/>
<stop offset="0.06" stop-color="#CDA243"/>
<stop offset="0.121891" stop-color="#E2C15B"/>
<stop offset="0.171403" stop-color="#F0D76D"/>
<stop offset="0.232867" stop-color="#F9E477"/>
<stop offset="0.306282" stop-color="#FCE97B"/>
<stop offset="0.39399" stop-color="#F9E475"/>
<stop offset="0.504894" stop-color="#EFD665"/>
<stop offset="0.635883" stop-color="#E0C04B"/>
<stop offset="0.74" stop-color="#E8C853"/>
<stop offset="0.808788" stop-color="#FCE97B"/>
<stop offset="0.87" stop-color="#F8E475"/>
<stop offset="0.9" stop-color="#EED465"/>
<stop offset="0.94" stop-color="#DDBB4B"/>
<stop offset="0.98" stop-color="#C59826"/>
<stop offset="1" stop-color="#BA8916"/>
</linearGradient>
</defs>
</svg>
