<svg width="76" height="65" viewBox="0 0 76 65" fill="none" xmlns="http://www.w3.org/2000/svg">
<path d="M65.9025 17.0942C66.9693 18.7152 67.6547 20.456 67.8313 22.3561C67.8635 22.9047 67.8958 23.4533 67.968 24.1291C68.0174 26.0691 67.6852 28.1288 66.9715 30.308C66.7969 30.6421 66.7495 30.9363 66.5748 31.2704C66.0433 32.6942 65.2575 34.1976 64.4716 35.7011C64.297 36.0352 64.2097 36.2022 64.0351 36.5363C63.2967 37.7455 62.4311 38.9946 61.4383 40.2836C61.2238 40.4905 61.0492 40.8246 60.8347 41.0315C59.9292 42.1534 59.0238 43.2753 57.9513 44.3099C57.7368 44.5168 57.5223 44.7237 57.3078 44.9306C56.3625 45.9254 55.2501 46.8328 54.1776 47.8673C53.9631 48.0743 53.7486 48.2812 53.4943 48.3609C52.5091 49.2284 51.3568 50.0087 50.3318 50.749C50.2046 50.7889 50.2046 50.7889 50.1173 50.9559C49.9028 51.1629 49.6484 51.2426 49.4339 51.4495C48.2817 52.2297 47.0023 53.0498 45.8102 53.7029C45.5558 53.7826 45.3413 53.9895 45.087 54.0692C44.8326 54.149 44.6181 54.3559 44.2365 54.4755C43.2988 55.0488 42.194 55.5348 41.2164 55.9809C40.9621 56.0606 40.7077 56.1404 40.4932 56.3473C39.2612 56.8731 38.0293 57.399 36.7574 57.7977C36.6302 57.8375 36.6302 57.8375 36.5031 57.8774C36.2487 57.9571 35.9943 58.0369 35.6128 58.1565C34.0866 58.6349 32.6477 58.9462 31.1689 59.1304C30.9146 59.2101 30.4932 59.2025 30.2388 59.2823L30.1116 59.3221C29.4358 59.3943 28.8872 59.4266 28.2114 59.4987C27.2414 59.5234 26.2714 59.5481 25.3014 59.5728C25.0072 59.5254 24.5857 59.5178 24.2915 59.4704C22.9874 59.3204 21.8105 59.1306 20.6335 58.9408C20.1722 58.8061 19.711 58.6713 19.3769 58.4967C19.0428 58.322 18.7485 58.2746 18.4144 58.1C17.9133 57.838 17.4121 57.5761 16.911 57.3141C15.5347 56.4884 14.3331 55.3286 13.3858 54.089L9.32523 47.8191L10.3104 46.9516L10.9938 46.458L14.4106 43.9902L15.094 43.4966L18.5108 41.0288L19.1942 40.5352L22.611 38.0674L23.2944 37.5738L26.7112 35.106L27.3946 34.6124L30.8114 32.1446L31.4948 31.651L34.9116 29.1832L35.5949 28.6896L39.0118 26.2217L39.6951 25.7282L43.112 23.2603L43.7953 22.7668L47.2122 20.2989L47.8955 19.8053L51.3124 17.3375L51.9957 16.8439L55.4125 14.3761L56.0959 13.8825L59.5127 11.4147L60.1961 10.9211L61.2212 10.1808L64.7882 15.7673C65.6158 16.6253 65.6956 16.8796 65.9025 17.0942Z" fill="#CE9200"/>
<path d="M61.8086 10.6981C67.6441 19.0656 60.7557 34.0754 46.1981 44.2258C44.2752 45.6667 42.2725 46.8531 40.23 47.9124C37.7186 49.2584 35.1275 50.3499 32.5838 51.1473C30.2945 51.8649 28.2197 52.3756 26.0652 52.6319C25.3894 52.704 24.8408 52.7363 24.165 52.8085C21.422 52.9699 18.8537 52.7972 16.5871 52.2506C16.1258 52.1158 15.6646 51.981 15.3305 51.8064C12.857 51.0453 10.86 49.5761 9.37926 47.526C9.17235 47.3115 9.13248 47.1843 9.05275 46.9299C3.89302 38.4903 10.9011 23.8621 24.9898 13.9983C28.4066 11.5304 32.1101 9.53146 35.5915 8.16082C36.3546 7.92162 36.9506 7.5951 37.5866 7.39577C40.5991 6.31177 43.4769 5.68907 46.18 5.40046C46.7286 5.36818 47.4044 5.29602 47.953 5.26373C50.0202 5.17446 52.04 5.37942 53.8054 5.66412C55.6106 6.076 57.3286 6.65493 58.7447 7.60782C59.7869 8.2589 60.7417 9.07704 61.4422 9.97491C61.5618 10.3565 61.6416 10.6108 61.8086 10.6981Z" fill="#E7B816"/>
<path d="M56.5777 14.4347C56.7846 14.6492 56.8245 14.7764 56.9042 15.0308C60.8699 21.8891 55.2665 33.4232 44.0384 41.2728C32.8103 49.1225 19.9705 50.4933 14.9797 44.3753C14.9399 44.2481 14.733 44.0337 14.6931 43.9065C9.96433 37.2873 15.5355 25.2047 27.1052 17.1082C38.6351 8.88462 51.849 7.81556 56.5777 14.4347Z" fill="#A98005"/>
<path d="M56.9109 15.0257C60.8765 21.8841 55.2731 33.4181 44.045 41.2678C43.8305 41.4747 43.5762 41.5544 43.2345 41.8012C40.7155 43.5686 38.077 44.9544 35.446 45.9188C32.8549 47.0104 30.3985 47.6406 27.9896 47.9767C27.3138 48.0488 26.7652 48.0811 26.2166 48.1134C23.4736 48.2748 21.1596 48.0224 19.0677 47.1417C18.6064 47.0069 18.1053 46.745 17.6041 46.483C16.6018 45.9591 15.647 45.141 14.9465 44.2431C10.9808 37.3848 16.5842 25.8507 27.8123 18.0011C29.179 17.0139 30.7128 16.1141 32.1593 15.3814C32.8825 15.015 33.6058 14.6486 34.329 14.2822C37.389 12.904 40.4414 11.9472 43.2318 11.4915C43.9076 11.4194 44.4163 11.2599 44.9649 11.2276C47.2865 11.0586 49.3936 11.0965 51.3659 11.5957C53.2111 12.1348 54.8417 12.8807 56.0433 14.0406C56.4572 14.4696 56.6641 14.6841 56.9109 15.0257Z" fill="#F3CC30"/>
<path d="M43.2762 33.976L44.7569 36.0261L40.2751 39.1071L38.9615 37.1443C35.7193 39.2781 32.3176 40.9031 29.9885 41.4935L30.1592 36.6909C32.7028 35.8935 35.7628 34.5153 38.1546 32.7878C40.2047 31.3071 40.8083 30.5592 40.5217 30.0903C39.4548 28.4692 28.1489 38.2988 24.861 33.6025C23.3803 31.5524 24.7925 28.0368 29.671 23.9933L28.2302 22.0704L32.7119 18.9894L34.0255 20.9522C36.4971 19.4791 38.8813 18.173 41.1706 17.4554L41.0872 22.091C38.4163 22.9282 36.2466 24.0273 34.3237 25.4682C32.1464 26.9888 31.7098 27.824 31.9965 28.2929C33.0235 29.7868 44.3294 19.9572 47.6173 24.6535C49.098 26.7036 47.8129 30.1793 43.2762 33.976Z" fill="#795807"/>
<path d="M42.7059 33.4509L44.1866 35.501L39.7048 38.582L38.3912 36.6192C35.149 38.7529 31.7473 40.3779 29.4181 40.9684L29.5889 36.1657C32.1325 35.3684 35.1925 33.9902 37.5843 32.2627C39.6344 30.782 40.238 30.034 39.9514 29.5652C38.8845 27.9441 27.5786 37.7736 24.2907 33.0774C22.81 31.0273 24.2222 27.5116 29.1007 23.4682L27.6598 21.5453L32.1416 18.4643L33.4552 20.427C35.9268 18.9539 38.311 17.6479 40.6002 16.9303L40.5168 21.5658C37.846 22.403 35.6763 23.5022 33.7534 24.943C31.5761 26.4636 31.1395 27.2989 31.4262 27.7677C32.4532 29.2616 43.759 19.4321 47.047 24.1283C48.4878 26.0513 47.2028 29.527 42.7059 33.4509Z" fill="#FFFDF3"/>
</svg>
