<svg width="24" height="25" viewBox="0 0 24 25" fill="none" xmlns="http://www.w3.org/2000/svg">
<path d="M14.7257 1.67889C15.0572 1.67889 15.3259 1.93952 15.3259 2.26102V3.27688C15.3259 3.59838 15.0572 3.85901 14.7257 3.85901C14.3943 3.85901 14.1255 3.59838 14.1255 3.27688V2.26102C14.1255 1.93952 14.3943 1.67889 14.7257 1.67889Z" fill="#0F0E0C"/>
<path d="M12.9959 12.7392C12.9959 12.4177 13.2646 12.1571 13.5961 12.1571H15.9282C16.2597 12.1571 16.5284 12.4177 16.5284 12.7392C16.5284 13.0607 16.2597 13.3213 15.9282 13.3213H13.5961C13.2646 13.3213 12.9959 13.0607 12.9959 12.7392Z" fill="#0F0E0C"/>
<path d="M11.0738 3.48499C10.8394 3.25766 10.4594 3.25765 10.225 3.48498C9.99065 3.71231 9.99064 4.08089 10.225 4.30823L10.9687 5.02949C11.203 5.25683 11.5831 5.25683 11.8174 5.0295C12.0518 4.80217 12.0518 4.43359 11.8175 4.20626L11.0738 3.48499Z" fill="#0F0E0C"/>
<path d="M8.36468 7.84835C8.36468 7.52685 8.6334 7.26623 8.96487 7.26623H10.0122C10.3437 7.26623 10.6124 7.52685 10.6124 7.84835C10.6124 8.16984 10.3437 8.43047 10.0122 8.43047H8.96487C8.6334 8.43047 8.36468 8.16984 8.36468 7.84835Z" fill="#0F0E0C"/>
<path d="M19.4405 7.26623C19.1091 7.26623 18.8404 7.52685 18.8404 7.84835C18.8404 8.16984 19.1091 8.43047 19.4405 8.43047H20.4879C20.8194 8.43047 21.0881 8.16984 21.0881 7.84835C21.0881 7.52685 20.8194 7.26623 20.4879 7.26623H19.4405Z" fill="#0F0E0C"/>
<path d="M19.224 3.48498C19.4584 3.71231 19.4584 4.08089 19.224 4.30823L18.4804 5.02949C18.246 5.25683 17.866 5.25683 17.6316 5.0295C17.3972 4.80217 17.3972 4.43359 17.6316 4.20626L18.3752 3.48499C18.6096 3.25766 18.9896 3.25765 19.224 3.48498Z" fill="#0F0E0C"/>
<path d="M14.7264 4.85506C13.0217 4.85506 11.6397 6.19543 11.6397 7.84885C11.6397 8.91526 12.2146 9.85144 13.0802 10.3818V10.9424C13.0802 11.1898 13.2836 11.3902 13.5346 11.3902H15.9182C16.1692 11.3902 16.3726 11.1898 16.3726 10.9424V10.3818C17.2382 9.85144 17.8131 8.91526 17.8131 7.84885C17.8131 6.19543 16.4311 4.85506 14.7264 4.85506Z" fill="#0F0E0C"/>
<path fill-rule="evenodd" clip-rule="evenodd" d="M7.69269 7.05245H4.27489C3.52198 7.05245 2.91162 7.65391 2.91162 8.39584V21.3819C2.91162 22.1239 3.52198 22.7253 4.27489 22.7253H14.2722C15.0251 22.7253 15.6354 22.1239 15.6354 21.3819V14.2169H13.5961C12.7763 14.2169 12.087 13.5687 12.087 12.7392C12.087 12.5372 12.1279 12.346 12.2016 12.1723C12.1379 12.1917 12.0702 12.2021 12.0001 12.2021H6.547C6.17054 12.2021 5.86536 11.9014 5.86536 11.5304C5.86536 11.1595 6.17054 10.8587 6.547 10.8587H12.0001C12.0592 10.8587 12.1166 10.8661 12.1713 10.8801V10.839C11.5943 10.3713 11.1528 9.7463 10.9184 9.02973C10.6643 9.21646 10.3493 9.32606 10.0122 9.32606H8.96487C8.14511 9.32606 7.45584 8.67782 7.45584 7.84835C7.45584 7.55306 7.54319 7.28074 7.69269 7.05245ZM6.547 14.4411C6.17054 14.4411 5.86536 14.7418 5.86536 15.1128C5.86536 15.4838 6.17054 15.7845 6.547 15.7845H12.0001C12.3765 15.7845 12.6817 15.4838 12.6817 15.1128C12.6817 14.7418 12.3765 14.4411 12.0001 14.4411H6.547ZM5.86536 18.6952C5.86536 18.3242 6.17054 18.0235 6.547 18.0235H12.0001C12.3765 18.0235 12.6817 18.3242 12.6817 18.6952C12.6817 19.0661 12.3765 19.3669 12.0001 19.3669H6.547C6.17054 19.3669 5.86536 19.0661 5.86536 18.6952Z" fill="#0F0E0C"/>
</svg>
