<svg width="24" height="24" viewBox="0 0 24 24" fill="none" xmlns="http://www.w3.org/2000/svg">
<path fill-rule="evenodd" clip-rule="evenodd" d="M19.2801 12.49V11.5036L20.5514 10.4205C20.7857 10.2194 20.9395 9.94413 20.9855 9.6433C21.0316 9.34247 20.9669 9.03549 20.803 8.77659L19.2403 6.19786C19.1242 6.00205 18.9573 5.8394 18.7562 5.72625C18.5551 5.6131 18.3271 5.55341 18.0948 5.55318C17.9509 5.5521 17.8078 5.57388 17.6711 5.61765L16.0621 6.14629C15.7843 5.96655 15.4945 5.80503 15.1947 5.66277L14.857 4.03818C14.7964 3.74137 14.6306 3.47475 14.3885 3.28499C14.1464 3.09524 13.8435 2.99444 13.5327 3.00024H10.4339C10.1232 2.99444 9.82024 3.09524 9.57814 3.28499C9.33603 3.47475 9.17019 3.74137 9.10964 4.03818L8.77195 5.66277C8.46997 5.80499 8.178 5.96652 7.89793 6.14629L6.32205 5.59186C6.18386 5.5568 6.04076 5.54374 5.89828 5.55318C5.66605 5.55341 5.43797 5.6131 5.23692 5.72625C5.03586 5.8394 4.8689 6.00205 4.75279 6.19786L3.19014 8.77659C3.03559 9.0351 2.97816 9.33789 3.02769 9.63309C3.07721 9.9283 3.23062 10.1976 3.46162 10.3947L4.71306 11.51V12.4964L3.46162 13.5795C3.22409 13.778 3.06649 14.0521 3.0168 14.3531C2.9671 14.654 3.02851 14.9624 3.19014 15.2234L4.75279 17.8021C4.8689 17.998 5.03586 18.1606 5.23692 18.2737C5.43797 18.3869 5.66605 18.4466 5.89828 18.4468C6.0422 18.4479 6.18533 18.4261 6.32205 18.3824L7.93104 17.8537C8.20883 18.0334 8.49861 18.195 8.79844 18.3372L9.13613 19.9618C9.19668 20.2586 9.36252 20.5253 9.60462 20.715C9.84672 20.9048 10.1497 21.0056 10.4604 20.9998H13.5857C13.8964 21.0056 14.1994 20.9048 14.4415 20.715C14.6836 20.5253 14.8494 20.2586 14.91 19.9618L15.2476 18.3372C15.5496 18.195 15.8416 18.0335 16.1217 17.8537L17.724 18.3824C17.8608 18.4261 18.0039 18.4479 18.1478 18.4468C18.38 18.4466 18.6081 18.3869 18.8092 18.2737C19.0102 18.1606 19.1772 17.998 19.2933 17.8021L20.803 15.2234C20.9575 14.9649 21.015 14.6621 20.9654 14.3669C20.9159 14.0717 20.7625 13.8024 20.5315 13.6053L19.2801 12.49ZM12 16C14.2091 16 16 14.2091 16 12C16 9.79086 14.2091 8 12 8C9.79086 8 8 9.79086 8 12C8 14.2091 9.79086 16 12 16Z" fill="white"/>
</svg>
