<svg width="24" height="24" viewBox="0 0 24 24" fill="none" xmlns="http://www.w3.org/2000/svg">
<path d="M20.5 16.9509C20.5 15.694 18.8369 15.0288 18.8369 13.7718V9.72547C18.8369 5.73495 15.7663 2.5 11.9786 2.5C8.19084 2.5 5.12027 5.73495 5.12027 9.72547V13.8181C5.12027 15.0495 3.5 15.7195 3.5 16.9509C3.5 17.4497 3.88382 17.8541 4.35729 17.8541H19.6427C20.1162 17.8541 20.5 17.4497 20.5 16.9509Z" fill="white"/>
<path d="M9.05009 18.8777C9.05009 19.2221 9.12705 19.5631 9.27655 19.8812C9.42606 20.1994 9.6452 20.4885 9.92145 20.732C10.1977 20.9755 10.5257 21.1686 10.8866 21.3004C11.2476 21.4322 11.6344 21.5 12.0251 21.5C12.4158 21.5 12.8026 21.4322 13.1636 21.3004C13.5245 21.1686 13.8525 20.9755 14.1287 20.732C14.405 20.4885 14.6241 20.1994 14.7736 19.8812C14.9231 19.5631 15.0001 19.2221 15.0001 18.8777H9.05009Z" fill="white"/>
<circle cx="17.5" cy="5.5" r="4.5" fill="#FF3E33"/>
</svg>
