<svg width="24" height="24" viewBox="0 0 24 24" fill="none" xmlns="http://www.w3.org/2000/svg">
<path fill-rule="evenodd" clip-rule="evenodd" d="M14.8115 3C12.3299 3 10.3182 5.0147 10.3182 7.49995C10.3182 9.98521 12.3299 11.9999 14.8115 11.9999C17.293 11.9999 19.3047 9.98521 19.3047 7.49995C19.3047 5.0147 17.293 3 14.8115 3ZM22 18.3C22 15.3177 19.5859 12.9001 16.6081 12.9001H13.0135C10.0356 12.9001 7.62158 15.3177 7.62158 18.3V19.579C7.62158 20.3638 8.25685 21 9.0405 21H20.581C21.3647 21 22 20.3638 22 19.579V18.3ZM3 10C2.44772 10 2 10.4477 2 11C2 11.5523 2.44772 12 3 12H8C8.55228 12 9 11.5523 9 11C9 10.4477 8.55228 10 8 10H3Z" fill="#0F0E0C"/>
</svg>
